<svg id="Layer_1" data-name="Layer 1" xmlns="http://www.w3.org/2000/svg" width="1000" height="1000" viewBox="0 0 1000 1000"><defs><style>.cls-1{fill:#fff;}.cls-2{fill:#ffc41f;}.cls-3{fill:#fc7f3a;}.cls-4{fill:#458dc9;}.cls-5{fill:#fcb332;}.cls-6{fill:#a8542a;}.cls-7{fill:#fc7272;}.cls-8{fill:#ea2f2f;}.cls-9{fill:#389b48;}</style></defs><path d="M746.3146,72.3921V866.8812c0,2.5164.0588,5.042-.0195,7.558-.4458,14.3192-7.8842,26.6916-19.3647,34.9274-6.8892,4.9422-13.8192,9.8286-20.7285,14.7427l-15.7536,11.2045c-2.0218,1.438-.0824,4.8108,1.9621,3.3567,12.3264-8.767,24.6832-17.4927,36.98-26.3013a48.8086,48.8086,0,0,0,20.8117-40.3324c.0345-11.4616,0-22.9238,0-34.3855V110.3738c0-12.1285.1686-24.2706,0-36.3983-.0074-.5276,0-1.0557,0-1.5834,0-2.5014-3.8874-2.5055-3.8874,0Z"/><rect class="cls-1" x="481.0504" y="113.7114" width="493.9496" height="432.0752"/><path d="M481.05,547.73H954.9492c6.3995,0,12.8121.1192,19.2109,0,.28-.0053.56,0,.84,0a1.972,1.972,0,0,0,1.9437-1.9437V131.2905c0-5.6171.13-11.2519,0-16.868-.0055-.2367,0-.4743,0-.7111A1.9719,1.9719,0,0,0,975,111.7677H501.1012c-6.3995,0-12.8121-.1193-19.2109,0-.28.0052-.56,0-.84,0a1.9719,1.9719,0,0,0-1.9437,1.9437v414.496c0,5.6171-.13,11.2519,0,16.868.0055.2368,0,.4743,0,.7112,0,2.5013,3.8874,2.5055,3.8874,0v-425.55a57.2015,57.2015,0,0,0,0-5.8139,6.9984,6.9984,0,0,1,0-.7111L481.05,115.655H954.9492c6.3255,0,12.9.518,19.2109,0,.276-.0226.5625,0,.84,0l-1.9437-1.9436v425.55a57.2015,57.2015,0,0,0,0,5.8139,7,7,0,0,1,0,.7112L975,543.8429H501.1012c-6.3995,0-12.8121-.1193-19.2109,0-.28.0052-.56,0-.84,0C478.5491,543.8429,478.5449,547.73,481.05,547.73Z"/><rect x="481.0504" y="536.6195" width="493.9496" height="9.1671"/><path d="M481.05,547.73H954.9492c6.3995,0,12.8121.1192,19.2109,0,.28-.0053.56,0,.84,0a1.972,1.972,0,0,0,1.9437-1.9437V536.62A1.9719,1.9719,0,0,0,975,534.6758H501.1012c-6.3995,0-12.8121-.1193-19.2109,0-.28.0052-.56,0-.84,0a1.9719,1.9719,0,0,0-1.9437,1.9437v9.1671c0,2.5013,3.8874,2.5055,3.8874,0V536.62l-1.9437,1.9437H954.9492c6.3255,0,12.9.518,19.2109,0,.276-.0227.5625,0,.84,0l-1.9437-1.9437v9.1671L975,543.8429H501.1012c-6.3995,0-12.8121-.1193-19.2109,0-.28.0052-.56,0-.84,0C478.5491,543.8429,478.5449,547.73,481.05,547.73Z"/><rect class="cls-1" x="837.8069" y="206.8743" width="107.3436" height="209.0214" rx="22.4373"/><path d="M860.2442,417.8394h57.417a55.6072,55.6072,0,0,0,9.3421-.3853,24.5717,24.5717,0,0,0,18.7921-16.1354c1.7463-5.0442,1.2988-10.647,1.2988-15.9138V232.3841c0-1.023.0067-2.0462,0-3.0692a24.6585,24.6585,0,0,0-12.17-21.11c-4.4058-2.5521-9.2007-3.2739-14.192-3.2739H861.0718a25.2441,25.2441,0,0,0-17.1222,6.2486,24.6256,24.6256,0,0,0-8.0864,18.2775c-.0059,1.3514,0,2.7029,0,4.0544V392.6683A25.6049,25.6049,0,0,0,839.137,405.67a24.6653,24.6653,0,0,0,21.1072,12.17c2.5021.0191,2.5046-3.8682,0-3.8874a20.7025,20.7025,0,0,1-19.0476-12.8893,23.9511,23.9511,0,0,1-1.446-8.9537V242.4353c0-4.3173-.0109-8.6347,0-12.952a20.76,20.76,0,0,1,7.8169-16.29c4.12-3.2557,8.99-4.375,14.1242-4.375h59.317c.7426,0,1.4864-.01,2.2289.0067A20.47,20.47,0,0,1,943.2068,229.44c.02,4.189,0,8.3787,0,12.5678V391.9536a24.988,24.988,0,0,1-1.16,8.3317,20.6288,20.6288,0,0,1-18.2875,13.6428c-2.4017.11-4.8235.0239-7.2264.0239H860.2442C857.7429,413.952,857.7387,417.8394,860.2442,417.8394Z"/><line class="cls-1" x1="927.3555" y1="235.7447" x2="854.4538" y2="235.7447"/><path d="M927.3555,233.801H854.4538c-2.5014,0-2.5055,3.8874,0,3.8874h72.9017c2.5014,0,2.5055-3.8874,0-3.8874Z"/><line class="cls-1" x1="927.3555" y1="262.3054" x2="854.4538" y2="262.3054"/><path d="M927.3555,260.3617H854.4538c-2.5014,0-2.5055,3.8874,0,3.8874h72.9017c2.5014,0,2.5055-3.8874,0-3.8874Z"/><line class="cls-1" x1="927.3555" y1="288.8661" x2="854.4538" y2="288.8661"/><path d="M927.3555,286.9224H854.4538c-2.5014,0-2.5055,3.8874,0,3.8874h72.9017c2.5014,0,2.5055-3.8874,0-3.8874Z"/><line class="cls-1" x1="927.3555" y1="315.4269" x2="854.4538" y2="315.4269"/><path d="M927.3555,313.4832H854.4538c-2.5014,0-2.5055,3.8874,0,3.8874h72.9017c2.5014,0,2.5055-3.8874,0-3.8874Z"/><line class="cls-1" x1="927.3555" y1="341.9876" x2="854.4538" y2="341.9876"/><path d="M927.3555,340.0439H854.4538c-2.5014,0-2.5055,3.8874,0,3.8874h72.9017c2.5014,0,2.5055-3.8874,0-3.8874Z"/><line class="cls-1" x1="927.3555" y1="368.5483" x2="854.4538" y2="368.5483"/><path d="M927.3555,366.6046H854.4538c-2.5014,0-2.5055,3.8874,0,3.8874h72.9017c2.5014,0,2.5055-3.8874,0-3.8874Z"/><line class="cls-1" x1="927.3555" y1="395.1091" x2="854.4538" y2="395.1091"/><path d="M927.3555,393.1654H854.4538c-2.5014,0-2.5055,3.8874,0,3.8874h72.9017c2.5014,0,2.5055-3.8874,0-3.8874Z"/><rect class="cls-1" x="723.5782" y="196.8645" width="86.318" height="35.2218" rx="12.268"/><path d="M735.8462,234.03H795.58a18.9488,18.9488,0,0,0,7.0339-.91,14.4361,14.4361,0,0,0,9.226-13.52c.0141-3.4391.027-6.8805,0-10.32a14.4363,14.4363,0,0,0-9.5357-13.5662,19.6167,19.6167,0,0,0-6.8225-.7936h-56.09c-1.2966,0-2.5985-.0343-3.8949.0049a14.3423,14.3423,0,0,0-13.56,11.3,26.5962,26.5962,0,0,0-.3021,5.2154v6.3724a22.7406,22.7406,0,0,0,.4112,5.4038,14.1611,14.1611,0,0,0,4.9725,7.72,14.4667,14.4667,0,0,0,8.828,3.0924c2.5024.035,2.5035-3.8524,0-3.8874a10.4391,10.4391,0,0,1-10.3243-10.328c-.0383-3.2643,0-6.5313,0-9.7958a11.7183,11.7183,0,0,1,1.0442-5.4264,10.4392,10.4392,0,0,1,5.7934-5.1856,16.6543,16.6543,0,0,1,5.6828-.5986h44.7032c4.8867,0,9.7739-.0195,14.6606,0a10.4823,10.4823,0,0,1,9.8355,6.5258,13.4914,13.4914,0,0,1,.711,5.0721v6.0018c0,1.3641.0569,2.7434-.0194,4.1066a10.3646,10.3646,0,0,1-3.4758,7.0513c-2.2348,2.0111-5.0069,2.5768-7.9025,2.5768H735.8462C733.3448,230.1426,733.3407,234.03,735.8462,234.03Z"/><rect class="cls-1" x="728.1672" y="443.0339" width="59.3387" height="24.2511" rx="8.4402"/><path d="M736.6074,469.2287h41.3141a12.9183,12.9183,0,0,0,5.71-1.0625,10.5356,10.5356,0,0,0,5.8177-9.5742c.0123-2.3621.0389-4.73,0-7.0914A10.5543,10.5543,0,0,0,782.25,441.59a14.6032,14.6032,0,0,0-4.707-.5H738.7874a27.5111,27.5111,0,0,0-3.4711.0972,10.4242,10.4242,0,0,0-8.9608,8.7372,54.6463,54.6463,0,0,0-.132,7.8143c0,3.7131,1.0953,7.0742,4.16,9.3991a10.5466,10.5466,0,0,0,6.2237,2.0907c2.5025.0506,2.5023-3.8368,0-3.8874a6.5749,6.5749,0,0,1-6.4965-6.5389c-.0358-2.2815-.0055-4.567,0-6.8488a6.6641,6.6641,0,0,1,4.9849-6.8,13.7414,13.7414,0,0,1,3.2415-.1758h30.7059c3.2889,0,6.5787-.0234,9.8676,0a6.5916,6.5916,0,0,1,6.29,4.3454c.7749,2.23.3609,5.0735.3609,7.389,0,2.7509-.0935,5.3976-2.4928,7.2662a7.5541,7.5541,0,0,1-4.8972,1.3631H736.6074C734.106,465.3413,734.1019,469.2287,736.6074,469.2287Z"/><path class="cls-1" d="M463.431,95.3772v.0077c-.1014-.0017-.2018-.0077-.3037-.0077a18.64,18.64,0,0,0,0,37.28c.1019,0,.2023-.006.3037-.0078v.0078h493.95V95.3772Z"/><path d="M461.4873,95.3772v.0077l1.9437-1.9437c-11.2934-.2884-20.7984,9.3843-20.7781,20.5757s9.454,20.8649,20.7781,20.5757l-1.9437-1.9437v.0078A1.972,1.972,0,0,0,463.431,134.6H937.2918c6.422,0,12.86.1326,19.2813,0,.2689-.0056.5385,0,.8075,0a1.9719,1.9719,0,0,0,1.9437-1.9437V95.3772a1.9719,1.9719,0,0,0-1.9437-1.9437H483.52c-6.4221,0-12.86-.1327-19.2813,0-.269.0055-.5385,0-.8076,0-2.5013,0-2.5054,3.8874,0,3.8874H949.9354c2.1767,0,4.4685.206,6.6377,0,.2641-.0251.5416,0,.8075,0l-1.9437-1.9437v37.28l1.9437-1.9437H470.8763c-2.1767,0-4.4686-.2061-6.6377,0-.2641.025-.5416,0-.8076,0l1.9437,1.9437v-.0078a1.9672,1.9672,0,0,0-1.9437-1.9437,16.69,16.69,0,1,1,0-33.3766,1.9685,1.9685,0,0,0,1.9437-1.9437v-.0077C465.3747,92.8758,461.4873,92.8717,461.4873,95.3772Z"/><ellipse cx="956.4693" cy="114.0169" rx="18.5307" ry="18.6397"/><path d="M973.0563,114.0169A16.5681,16.5681,0,1,1,959.6872,97.63a16.8423,16.8423,0,0,1,13.3691,16.3868c.0229,2.5,3.91,2.5063,3.8874,0a20.8443,20.8443,0,0,0-13.5092-19.3536,20.5187,20.5187,0,0,0-22.7413,6.2486,20.562,20.562,0,0,0,19.8624,33.2727c9.5208-1.8689,16.3-10.5886,16.3881-20.1677C976.9666,111.5148,973.0792,111.5126,973.0563,114.0169Z"/><ellipse cx="712.8361" cy="554.0369" rx="13.0626" ry="13.1395"/><path d="M697.83,554.0369a15.3029,15.3029,0,0,0,9.863,14.1658,15.0172,15.0172,0,0,0,16.6232-4.4649,15.0369,15.0369,0,1,0-26.4862-9.7009c-.0325,2.5024,3.8549,2.5037,3.8874,0a11.1352,11.1352,0,1,1,20.6645,5.7447,11.1661,11.1661,0,0,1-11.7437,5.2364,11.3121,11.3121,0,0,1-8.9208-10.9811C701.6847,551.5374,697.7972,551.5305,697.83,554.0369Z"/><path d="M746.3146,858.7527c0,5.04-.153,10.1049.0417,15.1423a57.3873,57.3873,0,0,0,9.94,30.1571,65.17,65.17,0,0,0,14.89,14.95L785.554,929.858l11.6638,8.8125a1.9576,1.9576,0,0,0,2.6594-.6973,1.9892,1.9892,0,0,0-.6973-2.6594l-24.4088-18.4417a71.2764,71.2764,0,0,1-12.6785-11.519,53.181,53.181,0,0,1-11.6242-28.1713c-.5992-6.0883-.2664-12.3195-.2664-18.4291,0-2.5013-3.8874-2.5055-3.8874,0Z"/><ellipse cx="748.8323" cy="72.2464" rx="9.1845" ry="9.2385"/><path d="M737.7041,72.2464a11.3458,11.3458,0,0,0,7.3185,10.5,11.125,11.125,0,0,0,12.3181-3.3081,11.1472,11.1472,0,1,0-19.6366-7.1922c-.0341,2.5023,3.8533,2.5035,3.8874,0a7.2534,7.2534,0,1,1,13.4522,3.7512,7.2748,7.2748,0,0,1-7.4543,3.4436,7.3655,7.3655,0,0,1-5.9979-7.1948C741.5574,69.747,737.67,69.74,737.7041,72.2464Z"/><path class="cls-2" d="M633.7141,363.3031l38.1113-85.0861a88.2728,88.2728,0,0,0-37.9017-8.501c-49.1856,0-89.0582,40.1073-89.0582,89.5823s39.8726,89.5822,89.0582,89.5822c47.8507,0,86.8818-37.9616,88.9652-85.5774Z"/><path d="M635.3924,364.2841l3.8017-8.4875,9.0768-20.2646L659.3,310.9086l9.4955-21.1993c1.5474-3.4548,3.12-6.8995,4.6426-10.3651.0215-.0489.0437-.0975.0655-.1462a1.9762,1.9762,0,0,0-.6973-2.6593,91.6774,91.6774,0,0,0-53.542-7.5736,89.99,89.99,0,0,0-40.072,17.2218A91.7633,91.7633,0,0,0,586.2119,437.25a90.6581,90.6581,0,0,0,86.2918,4.9563,91.6111,91.6111,0,0,0,51.1485-67.6611,96.2335,96.2335,0,0,0,1.18-11.2423,1.9662,1.9662,0,0,0-1.9436-1.9437H644.6915c-3.5955,0-7.2294-.1541-10.8226,0-.0514.0022-.1033,0-.1548,0-2.5013,0-2.5055,3.8874,0,3.8874h85.505a31.7026,31.7026,0,0,0,3.5149,0,1.4042,1.4042,0,0,1,.1549,0l-1.9437-1.9437a87.7,87.7,0,0,1-41.11,70.4882,86.782,86.782,0,0,1-82.5433,5.0528,87.8971,87.8971,0,0,1-23.8031-142.6656,86.7234,86.7234,0,0,1,97.3555-16.2832l-.6974-2.6593-3.8016,8.4875-9.0768,20.2645-11.0292,24.6235-9.4955,21.1993c-1.5474,3.4548-3.12,6.9-4.6427,10.3651-.0214.0489-.0436.0975-.0654.1462a2.0065,2.0065,0,0,0,.6973,2.6593A1.9569,1.9569,0,0,0,635.3924,364.2841Z"/><path d="M760.5683,363.3031c.0827-1.8893.1323-3.7873.1323-5.697a127.4936,127.4936,0,0,0-72.7719-115.341l-54.2146,121.038Z"/><path d="M762.512,363.3031a130.8038,130.8038,0,0,0-11.6148-59.7582A129.4418,129.4418,0,0,0,688.91,240.5868a1.9692,1.9692,0,0,0-2.6593.6973l-5.3986,12.0526L667.89,282.2756l-15.6261,34.8865-13.5538,30.26c-2.1941,4.8985-4.418,9.785-6.5828,14.6966-.03.068-.0608.1357-.0912.2036a1.97,1.97,0,0,0,1.6783,2.9247H744.96c5.12,0,10.2822.1946,15.3992,0,.07-.0026.1395,0,.209,0,2.5014,0,2.5055-3.8874,0-3.8874H638.9216a49.6639,49.6639,0,0,0-4.9985,0,2.0814,2.0814,0,0,1-.209,0l1.6783,2.9247,5.3986-12.0526,12.9621-28.9389,15.6261-34.8864,13.5538-30.26,4.455-9.9462a49.19,49.19,0,0,0,2.1279-4.75,2.11,2.11,0,0,1,.0911-.2036l-2.6593.6973a125.5713,125.5713,0,0,1,71.6769,119.36C758.5189,365.8045,762.4065,365.8,762.512,363.3031Z"/><path class="cls-3" d="M678.5868,436.8116a89.63,89.63,0,0,0,44.3021-73.5085H633.7141Z"/><path d="M679.5678,438.49a92.31,92.31,0,0,0,42.0839-54.7977,93.328,93.328,0,0,0,3.1808-20.3891,1.9662,1.9662,0,0,0-1.9436-1.9437H644.6915c-3.5955,0-7.2294-.1541-10.8226,0-.0514.0022-.1033,0-.1548,0a1.9606,1.9606,0,0,0-1.6783,2.9247l4.4685,7.32,10.7291,17.576,12.9118,21.1514L671.37,428.72c1.8159,2.9747,3.5371,6.039,5.461,8.9459.0273.0413.0518.0848.0776.1271,1.3015,2.1321,4.6649.1811,3.3566-1.9621l-4.4685-7.32-10.7291-17.576-12.9118-21.1515L640.931,371.3951l-3.702-6.0644a30.0513,30.0513,0,0,0-1.759-2.8816,1.3166,1.3166,0,0,1-.0776-.127l-1.6783,2.9247h85.505a31.7026,31.7026,0,0,0,3.5149,0,1.4042,1.4042,0,0,1,.1549,0l-1.9437-1.9437a87.7088,87.7088,0,0,1-43.3394,71.83C675.45,436.3991,677.4036,439.76,679.5678,438.49Z"/><path d="M642.6039,252.9246l9.6768-13.0593,12.661-17.0867a8.3389,8.3389,0,0,1,.548-.74c.295-.3163.1966-.1317.6357-.4907a21.9163,21.9163,0,0,1,9.22-4.3714,34.167,34.167,0,0,1,7.31-.4692h22.4379c5.9836,0,11.9936.1658,17.9754,0,.1034-.0029.2073,0,.3108,0,2.5014,0,2.5055-3.8874,0-3.8874H684.084c-1.7456,0-3.5018-.0521-5.2466.0227a26.2323,26.2323,0,0,0-10.4847,2.6975c-2.1319,1.0512-4.7,2.5122-6.1466,4.4378-3.7205,4.952-7.3759,9.9542-11.0635,14.9307l-7.3949,9.98c-1.4257,1.924-2.9566,3.8063-4.2932,5.7939-.0645.0959-.1384.1867-.2073.28a1.9588,1.9588,0,0,0,.6973,2.6593,1.9871,1.9871,0,0,0,2.6594-.6973Z"/><path d="M755.8805,442.42l-2.5771-7.1356a68.8789,68.8789,0,0,0-3.1672-8.1514,24.658,24.658,0,0,0-21.8688-13.1811c-11.2606-.0255-22.5216,0-33.7822,0H681.6708c-2.5013,0-2.5055,3.8874,0,3.8874h45.5049a25.3974,25.3974,0,0,1,6.1268.5688,20.61,20.61,0,0,1,11.6167,7.67c2.0664,2.7985,3.1027,5.9956,4.2669,9.219l2.9458,8.1565c.8434,2.3351,4.6013,1.3276,3.7486-1.0334Z"/><line class="cls-1" x1="685.689" y1="478.8331" x2="510.0359" y2="478.8331"/><path d="M685.689,476.8894H517.1784c-2.28,0-4.5711-.0643-6.8507,0-.0971.0028-.1946,0-.2918,0-2.5013,0-2.5054,3.8874,0,3.8874H678.5465c2.28,0,4.5712.0643,6.8508,0,.097-.0027.1946,0,.2917,0,2.5014,0,2.5055-3.8874,0-3.8874Z"/><line class="cls-1" x1="712.6684" y1="496.7327" x2="510.0359" y2="496.7327"/><path d="M712.6684,494.789H518.257c-2.6241,0-5.2572-.0634-7.8808,0-.1133.0028-.2269,0-.34,0-2.5013,0-2.5054,3.8874,0,3.8874H704.4473c2.6242,0,5.2573.0634,7.8809,0,.1133-.0027.2269,0,.34,0,2.5014,0,2.5055-3.8874,0-3.8874Z"/><line class="cls-1" x1="712.6684" y1="514.6324" x2="543.9037" y2="514.6324"/><path d="M712.6684,512.6887H564.667c-6.8161,0-13.67-.21-20.4836,0-.093.0028-.1866,0-.28,0-2.5014,0-2.5055,3.8874,0,3.8874H691.9051c6.8162,0,13.67.2094,20.4836,0,.0931-.0029.1866,0,.28,0,2.5014,0,2.5055-3.8874,0-3.8874Z"/><ellipse class="cls-4" cx="527.2568" cy="170.4977" rx="17.2209" ry="17.3222"/><path d="M508.0922,170.4977a19.5155,19.5155,0,0,0,12.639,18.1127,19.2071,19.2071,0,0,0,21.2791-5.8311,19.2057,19.2057,0,1,0-33.9181-12.2816c-.0248,2.5021,3.8625,2.5041,3.8874,0a15.2982,15.2982,0,1,1,28.3843,7.9035,15.3523,15.3523,0,0,1-16.0194,7.201A15.5331,15.5331,0,0,1,511.98,170.4977C511.9548,167.9976,508.0673,167.9913,508.0922,170.4977Z"/><line class="cls-5" x1="787.2923" y1="158.3721" x2="623.1198" y2="158.3721"/><path d="M787.2923,156.4284H643.3039c-6.6225,0-13.2764-.1888-19.897,0-.0956.0027-.1915,0-.2871,0-2.5014,0-2.5055,3.8874,0,3.8874H767.1081c6.6226,0,13.2765.1888,19.8971,0,.0955-.0027.1915,0,.2871,0,2.5013,0,2.5055-3.8874,0-3.8874Z"/><line class="cls-5" x1="787.2923" y1="175.1169" x2="659.8577" y2="175.1169"/><path d="M787.2923,173.1732H675.5959c-5.1605,0-10.36-.1858-15.5181,0-.0731.0027-.1469,0-.22,0-2.5014,0-2.5055,3.8874,0,3.8874H771.5541c5.1605,0,10.36.1858,15.5181,0,.0731-.0026.1468,0,.22,0,2.5013,0,2.5055-3.8874,0-3.8874Z"/><path class="cls-6" d="M146.91,385.2623a226.7461,226.7461,0,0,1,5.3959,22.3168l-30.7134,8.2486-8.7386,2.347L147.9845,554.85,94.0678,567.9728l-46.25-132.9c-7.2347-28.6647,8.188-58.5474,34.92-70.8588l17.8425-6.7585,31.821-8.788A198.6316,198.6316,0,0,1,146.91,385.2623Z"/><path d="M145.0356,385.779c2.1559,7.348,3.9827,14.79,5.3958,22.3169l1.3576-2.391q-15.361,4.1254-30.722,8.2509l-8.73,2.3446a1.9762,1.9762,0,0,0-1.3576,2.391l3.5193,13.6915,8.3827,32.6128,10.13,39.41,8.76,34.0825,2.9062,11.3063c.4511,1.7552.764,3.638,1.3743,5.3468.0257.0719.0388.1509.0579.225l1.3575-2.3909-18.2357,4.4385-29.0438,7.0691-6.6373,1.6155,2.391,1.3576-3.2085-9.22L84.6507,535.01,73.9663,504.3075,63.08,473.0239l-8.8111-25.3191c-1.4736-4.2344-2.9923-8.456-4.4216-12.7056a45.7534,45.7534,0,0,1-1.8662-14.3921,58.6986,58.6986,0,0,1,4.7606-22.9394A62.0788,62.0788,0,0,1,66.1719,378.009a60.9058,60.9058,0,0,1,9.3049-7.5425q2.57-1.6895,5.2958-3.1227c.86-.4523,1.729-.8976,2.6148-1.2977-.2725.1231.0919-.0413.1787-.0759,4.2931-1.7133,8.652-3.2773,12.9747-4.9147,2.1675-.821,4.2786-1.6492,6.5085-2.2651l27.5345-7.6042,2.335-.6448-2.1951-.8933a193.0468,193.0468,0,0,1,14.3119,36.1309c.7075,2.3937,4.46,1.3747,3.7485-1.0334a198.1986,198.1986,0,0,0-14.7037-37.06,1.9714,1.9714,0,0,0-2.1951-.8933l-24.5817,6.7888c-2.4648.6807-5.0109,1.2381-7.43,2.0713-4.3367,1.494-8.5986,3.2571-12.8879,4.8818-1.5548.5889-3.12,1.1564-4.6661,1.7675a50.3083,50.3083,0,0,0-9.4042,5.2063,66.4238,66.4238,0,0,0-17.5013,17.3234,63.1923,63.1923,0,0,0-10.3841,46.4686,77.8271,77.8271,0,0,0,3.6711,12.2126l7.8592,22.5838,10.6625,30.6393L78.239,528.3906l9.039,25.9739,4.7031,13.5148.2124.61a1.9906,1.9906,0,0,0,2.391,1.3575l18.2357-4.4385,29.0438-7.0691,6.6372-1.6155a1.9734,1.9734,0,0,0,1.3576-2.391L146.34,540.6414l-8.3827-32.6128-10.13-39.41-8.7605-34.0825L116.16,423.23c-.4511-1.7552-.764-3.638-1.3743-5.3468-.0257-.0719-.0388-.1509-.0579-.225l-1.3575,2.3909,33.4752-8.99,5.9768-1.6052a1.9913,1.9913,0,0,0,1.3575-2.391c-1.413-7.5271-3.24-14.9688-5.3958-22.3168C148.0813,382.35,144.3286,383.37,145.0356,385.779Z"/><path class="cls-7" d="M142.315,533.101,145.1,544.0287a102.4826,102.4826,0,0,0,8.0615,21.3616,108.9754,108.9754,0,0,0,6.9928,12.4988c11.86,19.2736,6.7226,28.597-33.6186,39.57-1.3234.3336-2.6471.6685-3.96,1.0017a21.5349,21.5349,0,0,1-26.7128-19.2071l-2.88-35.1281-6.1816-27.5264"/><path d="M140.4408,533.6177c1.8117,7.11,3.4321,14.3011,5.98,21.1934a144.7356,144.7356,0,0,0,6.95,15.3045c1.8309,3.604,4.0932,6.9545,6.1172,10.448a34.03,34.03,0,0,1,3.7318,8.34,12.637,12.637,0,0,1,.5759,3.5241,16.476,16.476,0,0,1-.0551,1.7439c-.0064.088-.0861.607-.0074.102-.0158.1013-.0289.2057-.05.3064-.0744.3542-.1414.7075-.2366,1.0572a8.475,8.475,0,0,1-1.3641,2.9968,14.065,14.065,0,0,1-2.3341,2.72,34.9121,34.9121,0,0,1-8.7652,5.6252,107.0073,107.0073,0,0,1-14.05,5.3988c-3.0266.97-6.0764,1.8662-9.1382,2.7176a46.9072,46.9072,0,0,1-9.0022,2.0332,19.8332,19.8332,0,0,1-20.8406-16.6332c-.2518-1.5905-.3084-3.23-.44-4.8326l-.7628-9.3023-1.6246-19.8151a72.7584,72.7584,0,0,0-1.8626-10.0382l-4.3032-19.162-.2838-1.2637c-.5479-2.44-4.2966-1.4073-3.7485,1.0335l3.58,15.9409,2.1234,9.4557a15.1143,15.1143,0,0,0,.4558,2.0293c.1372.3606-.03-.6866-.04-.3334a5.8763,5.8763,0,0,0,.052.6339c.9373,11.4325,1.8144,22.8716,2.8122,34.2989a23.8383,23.8383,0,0,0,18.045,21.3079c6.035,1.4058,11.71-.1557,17.5271-1.7869a178.8042,178.8042,0,0,0,17.15-5.5913c6.8078-2.6748,14.6789-6.067,18.8073-12.4746,3.1741-4.9264,2.5333-10.8017.3937-15.9927a83.5393,83.5393,0,0,0-6.1361-11.1907c-1.8487-3.0617-3.4538-6.2212-5.065-9.4118a100.4749,100.4749,0,0,1-7.4277-19.602c-.7838-2.9631-1.5178-5.94-2.2746-8.91l-.74-2.9048c-.6173-2.4226-4.3676-1.3959-3.7485,1.0335Z"/><polyline class="cls-1" points="143.052 529.448 146.937 550.774 92.976 563.684 87.467 545.292"/><path d="M141.1778,529.9647l3.398,18.6532.4868,2.6726L146.42,548.9,128.17,553.2659,99.1018,560.22,92.4591,561.81l2.391,1.3576-5.5093-18.3919c-.716-2.3906-4.4691-1.3723-3.7485,1.0334l5.5092,18.3919a1.9841,1.9841,0,0,0,2.391,1.3575l18.2507-4.3664,29.0677-6.9543,6.6427-1.5892a1.9887,1.9887,0,0,0,1.3575-2.391l-3.3979-18.6532-.4869-2.6726c-.4476-2.4576-4.1948-1.4165-3.7485,1.0334Z"/><path class="cls-1" d="M275.8376,374.5642,152.3057,407.5791,112.67,418.0355l21.4608,50.4259a136.4382,136.4382,0,0,1,10.111,67.9549l-.3548,3.3109-55.4757,12.049L63.0561,534.6237A38.8651,38.8651,0,0,1,46.91,510.8419L26.04,416.7747a66.3578,66.3578,0,0,1,45.0713-74.9472l41.783-13.2556,87.0177-25.835a97.7966,97.7966,0,0,1,27.8358-4.0459H278.08"/><path d="M275.3209,372.69l-20.507,5.4807-44.1915,11.8105-42.6383,11.3955c-5.7591,1.5392-11.5145,3.0935-17.2786,4.6141l-37.4683,9.8847-1.0835.2858a1.9782,1.9782,0,0,0-1.1616,2.8553l13.62,32.0032,7.0694,16.6108a143.1569,143.1569,0,0,1,8.82,28.03,133.7393,133.7393,0,0,1,2.5669,24.8963,164.7729,164.7729,0,0,1-1.1254,19.1706l1.427-1.8743-18.7485,4.0721L94.745,548.4142l-6.85,1.4878,1.4978.1959L72.8021,538.8747l-8.1063-5.4837a36.99,36.99,0,0,1-15.9788-23.37q-.4468-2.0052-.89-4.0113l-4.1318-18.6233-5.7561-25.9442L32.3035,436.04l-3.7686-16.9862a64.26,64.26,0,0,1,43.1392-75.3667q8.5581-2.7336,17.1271-5.4335l22.4856-7.1335c2.1957-.6966,4.402-1.35,6.6105-2.0059l18.9779-5.6344,25.9725-7.7111,23.8937-7.0939,13.1414-3.9016a101.2045,101.2045,0,0,1,28.9816-4.1386H278.08c2.5014,0,2.5055-3.8874,0-3.8874H230.7611A110.984,110.984,0,0,0,198.9321,301q-8.0295,2.3813-16.0576,4.7674l-29.0493,8.6245-28.1227,8.3495c-4.43,1.3153-8.8738,2.5926-13.2924,3.9464-6.2708,1.9213-12.5062,3.9669-18.7577,5.95q-11.4095,3.62-22.8191,7.2393a68.2939,68.2939,0,0,0-47.7768,64.9761c-.0178,6.5842,1.1767,12.74,2.5852,19.089L31.079,448.45l6.8621,30.93,5.498,24.7811c1.4065,6.3395,2.6318,12.567,5.8714,18.3285a41.9948,41.9948,0,0,0,13.2529,14.1433l9.5938,6.49,12.1376,8.2108c.99.6695,1.9606,1.4221,2.9932,2.0248a2.9,2.9,0,0,0,2.26.158l22.0815-4.796,27.9063-6.0612,4.8686-1.0574a1.9931,1.9931,0,0,0,1.4269-1.8742c.6005-5.6038,1.086-11.1982,1.128-16.84a139.78,139.78,0,0,0-1.6563-22.3093,141.2093,141.2093,0,0,0-9.8-33.82L119.9715,430.266l-5.6227-13.2115-1.1616,2.8552,35.76-9.4341q8.0873-2.1335,16.1638-4.3066l40.7029-10.8782,45.5634-12.1772c8.1972-2.1907,16.4651-4.2081,24.6129-6.578.12-.035.2425-.0648.3636-.0972,2.4145-.6452,1.39-4.3962-1.0334-3.7485Z"/><path d="M142.4294,408.1741l-17.94,4.4L95.903,419.5846l-6.55,1.6063c-2.4285.5955-1.4,4.3453,1.0335,3.7485l17.94-4.4,28.5862-7.0107,6.55-1.6063c2.4285-.5956,1.4-4.3453-1.0334-3.7485Z"/><path d="M357.0675,485.0011s4.8431,28.44-27.8025,25.6088c-36.0226-2.8308-135.6887-2.7271-135.6887-2.7271s-11.9584,7.7586-5.9587-25.6131,63.4107-35.6365,63.4107-35.6365"/><path d="M355.1932,485.5178c.0881.5218-.0337-.394-.0083-.0844.03.3618.08.7219.1081,1.0842a29.4219,29.4219,0,0,1,.046,3.7583q-.0285.5666-.0789,1.1319c-.0186.2088-.0406.4172-.0625.6257-.01.0946-.0225.1889-.033.2834-.055.494.0674-.4391-.0065.059-.1312.8834-.2947,1.76-.5111,2.6272a22.8678,22.8678,0,0,1-.8594,2.7228c-.0405.1045-.0821.2085-.1239.3124-.2027.5035.1-.2231-.0348.0814-.1041.2346-.2107.4679-.3229.6988q-.3423.7047-.74,1.3806a15.929,15.929,0,0,1-3.9606,4.51,19.1408,19.1408,0,0,1-7.0434,3.2671c-6.0363,1.5312-12.2557.6418-18.378.2737-12.31-.74-24.6461-1.0815-36.9739-1.3718q-21.2652-.5007-42.5364-.6822-17.6385-.18-35.2782-.2332-5.3912-.0174-10.7823-.0228c-1.3341-.0012-2.7021-.0889-4.0343-.0008a2.8575,2.8575,0,0,0-1.13.352c-.27.13-.8994.2856-.139.0943-.2976.0748-.6.1984-.8962.2864-.43.1278-.3068.0134-.0153.0215-.192-.0054-.41.0124-.6022.0254-.5705.0385.2727.1419-.1117-.0027-.1881-.0706-.4112-.128-.6052-.1822.6849.1914.034-.0335-.2024-.1637-.3574-.1969.2221.2158.0678.0529-.0988-.1043-.2118-.2054-.3173-.3036-.0915-.0851-.1633-.19-.2463-.2832.412.4615.0667.0974-.0214-.0587-.17-.3014-.3388-.596-.4918-.9074-.1228-.25.1744.465.0207.0515-.0313-.0843-.0669-.1669-.0956-.2521-.0606-.18-.1246-.3586-.1806-.54a14.3641,14.3641,0,0,1-.3492-1.4,11.4422,11.4422,0,0,1-.2123-1.36c-.0661-.6666-.1163-1.3336-.1432-2.003a48.6351,48.6351,0,0,1,.083-4.9885,83.1507,83.1507,0,0,1,1.7508-12.8311,29.1674,29.1674,0,0,1,7.85-14.1229c7.844-7.9775,18.8862-12.2825,29.56-15.0612a128.0814,128.0814,0,0,1,14.1922-2.8223q.3817-.0543.7638-.1067c.0835-.0115.3852-.0515-.02.0024.1084-.0144.2169-.0289.3254-.0428.4682-.06.9365-.12,1.4052-.1761q1.2471-.15,2.4969-.275c1.1637-.1166,2.3291-.2179,3.496-.2954.4055-.027.8114-.0533,1.2175-.07,2.4931-.1,2.5059-3.9874,0-3.8874a111.282,111.282,0,0,0-13.3212,1.4987,106.0968,106.0968,0,0,0-26.8492,7.7515c-8.8892,4.0281-17.4708,10.1-22.0645,18.95-2.9847,5.75-3.8138,12.2672-4.4547,18.6362-.4652,4.6232-.9178,9.9846.8013,14.43.9277,2.3987,2.6665,4.4067,5.3607,4.6308a6.7328,6.7328,0,0,0,3.8892-.9263c.0551-.034.113-.0633.1674-.0984l-.981.2654q10.0665-.01,20.133.0435,22.8647.0969,45.7281.4033c16.4414.2312,32.8859.5369,49.3173,1.1726,6.4107.2481,12.8229.538,19.2216,1.01,7.5406.5558,15.7356.4486,22.1785-4.09,7.2314-5.0946,9.9427-14.37,8.9231-22.8864-.04-.332-.08-.6647-.1361-.9944-.4156-2.4615-4.1624-1.4177-3.7486,1.0334Z"/><polyline class="cls-7" points="330.954 832.758 330.954 884.279 271.291 896.169 269.603 818.038"/><path d="M329.01,832.7582v51.5211l1.427-1.8743-20.2063,4.0267-32.067,6.39-7.3892,1.4725,2.46,1.8743-.5706-26.4033-.9094-42.0777-.2086-9.65c-.054-2.4979-3.9416-2.5067-3.8874,0l.5706,26.4032.9094,42.0778.2086,9.65a1.9728,1.9728,0,0,0,2.46,1.8742l20.2063-4.0267,32.067-6.39,7.3892-1.4725a1.9611,1.9611,0,0,0,1.427-1.8743V832.7582c0-2.5013-3.8874-2.5055-3.8874,0Z"/><polyline class="cls-7" points="261.501 298.864 262.542 246.999 306.28 263.937 307.645 297.988"/><path d="M263.4447,298.864l.3531-17.589.56-27.8738.1285-6.4027-2.46,1.8743,14.7729,5.7213,23.5518,9.1211,5.4128,2.0963-1.427-1.8742,1.1968,29.8488.1685,4.2019c.1,2.493,3.9879,2.5058,3.8874,0l-1.1968-29.8488-.1685-4.2019a2.03,2.03,0,0,0-1.4269-1.8743l-14.773-5.7213-23.5517-9.1211-5.4129-2.0963a1.9587,1.9587,0,0,0-2.46,1.8742l-.3531,17.589-.56,27.8739-.1285,6.4026c-.05,2.5025,3.8372,2.5023,3.8874,0Z"/><path class="cls-7" d="M299.0105,270.8413a84.092,84.092,0,0,0,11.7079,1.67,11.0485,11.0485,0,0,0,3.6005-.3258c16.7216-4.36,23.4168-20.1284,25.581-36.87h1.5973c5.2629.7459,7.261-.5492,6.6533-3.8747-4.7672-5.2388-6.7746-8.16-7.2969-11.9435l-.1292-2.4511a170.9664,170.9664,0,0,0-3.3487-29.1922l-83.9574-3.0228s-10.9056,18.0733-10.1038,26.397c1.38,14.3342,15.2655,24.5992,19.1005,43.08"/><path d="M298.4938,272.7155c2.6483.57,5.32,1.0029,8.0093,1.3289,2.7842.3375,5.572.6984,8.3325.0151a30.4515,30.4515,0,0,0,10.9552-5.2447c6.4107-4.8556,10.5035-11.9224,13.007-19.4626a75.6363,75.6363,0,0,0,3.0458-14.0371L339.9,237.2588c3.2128,0,7.98,1.152,9.7856-2.46a5.2775,5.2775,0,0,0,.5036-2.6086,3.96,3.96,0,0,0-.36-1.7307,14.9252,14.9252,0,0,0-1.857-2.1319,28.9462,28.9462,0,0,1-4.11-5.6573,10.6835,10.6835,0,0,1-.8253-2.148,10.2924,10.2924,0,0,1-.27-1.2794c.0739.5527-.0086-.4882-.015-.6087-.1246-2.3631-.1815-4.7284-.3266-7.0907-.3374-5.4928-.9469-10.969-1.778-16.4086-.3984-2.6077-.8269-5.2212-1.3972-7.798a1.975,1.975,0,0,0-1.8743-1.4269l-28.3611-1.0211-45.2108-1.6278-10.3855-.3739a1.9456,1.9456,0,0,0-1.6783.9627c-1.4308,2.3744-2.743,4.8273-3.9936,7.3a68.3271,68.3271,0,0,0-5.7242,14.2446,18.0257,18.0257,0,0,0-.5841,6.4493,30.7125,30.7125,0,0,0,2.1154,8.0255c2.1978,5.3522,5.4216,10.1664,8.4133,15.0917,3.7865,6.2341,7.05,12.6785,8.574,19.8633.5187,2.4459,4.2669,1.4108,3.7485-1.0335a61.7191,61.7191,0,0,0-7.274-17.9427c-2.8309-4.9032-6.0923-9.5713-8.6175-14.6474-1.9934-4.0072-3.7632-8.8694-2.956-13.2563.8656-4.7041,2.8934-9.2048,4.985-13.4744,1.441-2.9413,2.9787-5.8519,4.67-8.6584l-1.6783.9627,28.3611,1.0211,45.2107,1.6277,10.3856.374-1.8743-1.427c.9392,4.2426,1.5724,8.572,2.0937,12.8826.5464,4.5186.9275,9.0585,1.1122,13.6065.1047,2.5786.0057,5.2308.8934,7.6939,1.4292,3.9653,4.39,7.1908,7.1754,10.2615l-.5-.8577a3.6828,3.6828,0,0,1,.0209.9067c.0071-.0667-.0989.219-.1426.2953.18-.3142-.2095.15.0544-.0392a1.8137,1.8137,0,0,1-.3416.2041c.2136-.0882-.3752.1128-.3665.1107a4.7839,4.7839,0,0,1-.5028.1021,38.83,38.83,0,0,1-5.0982-.1654,2.0027,2.0027,0,0,0-1.9437,1.9437c-1.8494,14.0919-7.6442,29.7414-22.4247,34.4933a13.8207,13.8207,0,0,1-3.4522.7759,26.7015,26.7015,0,0,1-4.19-.27,79.2234,79.2234,0,0,1-8.3616-1.3469c-2.44-.525-3.4818,3.2216-1.0335,3.7485Z"/><path class="cls-8" d="M289.9943,236.0229c-4.075-3.0133-10.1445-14.8069-10.3456-21.67-.3039-10.3691,5.1583-12.973,12.3585-13.1865s15.56,13.2324,15.8567,23.3383l.5186-21.9133a11.4263,11.4263,0,0,1,12.7629-11.1194l15.62.27a8.9475,8.9475,0,0,0,8.1206-12.9342L343.6,176.2043a30.25,30.25,0,0,0-26.0281-16.8676L275.4249,157.84a35.5585,35.5585,0,0,0-30.703,15.6442L234.68,188.32s-21.2087,35.66,27.6974,78.9377c3.7329-.1716,22.3859-1.521,28.3568-9.2868S289.9943,236.0229,289.9943,236.0229Z"/><path d="M290.9753,234.3445a17.3213,17.3213,0,0,1-1.5484-1.5984,24.6428,24.6428,0,0,1-1.919-2.6831,45.6037,45.6037,0,0,1-3.5651-6.8253c-1.8686-4.4567-3.1934-9.4313-1.8034-14.2213,1.0645-3.6681,4.0317-5.3035,7.6565-5.7536a7.5881,7.5881,0,0,1,4.9229.5548,16.0532,16.0532,0,0,1,4.9375,4.449,29.2575,29.2575,0,0,1,6.2639,16.2377,1.9449,1.9449,0,0,0,3.8874,0l.3149-13.3058.1746-7.3762a11.0549,11.0549,0,0,1,1.9655-6.7633,9.46,9.46,0,0,1,4.4537-3.2188,11.99,11.99,0,0,1,4.557-.4227c2.1423.0967,4.2968.0743,6.4407.1114l8.1156.14a11.68,11.68,0,0,0,8.3473-2.78,11.0068,11.0068,0,0,0,3.183-11.053,25.2806,25.2806,0,0,0-1.8392-4.1218,33.6349,33.6349,0,0,0-2.9009-4.8919,32.5555,32.5555,0,0,0-23.21-13.3078c-3.27-.3168-6.5967-.2905-9.8767-.407l-17.7287-.6295-14.4857-.5144a41.0565,41.0565,0,0,0-17.8752,2.95A39.4028,39.4028,0,0,0,242.3,173.6023l-8.8029,13.0053c-2.4958,3.6872-3.7385,8.4193-4.507,12.7383-2.1326,11.9859.1587,24.1819,5.2128,35.1611a93.2118,93.2118,0,0,0,15.3126,22.7349q2.8161,3.1638,5.8437,6.1307,1.523,1.4975,3.0909,2.9483c1.03.9537,2.4388,2.8181,3.9278,2.88a41.3315,41.3315,0,0,0,7.0017-.662c7.0827-.9488,14.9185-2.4994,20.6258-7.0838,6.3225-5.0785,5.78-13.9157,3.6992-20.96a38.2684,38.2684,0,0,0-2.0318-5.4531c-1.0649-2.2618-4.4173-.2907-3.3566,1.9621.07.1478.1349.2977.2.4474.196.4478-.1389-.3663.0821.1967.12.3059.244.61.36.9175a41.0094,41.0094,0,0,1,1.42,4.51c.9414,3.74,1.506,8.0716-.0325,11.7368-1.36,3.2406-4.5764,5.16-7.676,6.477A50.4846,50.4846,0,0,1,271.24,264.361a75.4454,75.4454,0,0,1-8.8625.9528l1.3744.5693c-11.7861-10.4631-22.6193-22.9976-28.1106-37.9884a57.65,57.65,0,0,1-3.4428-15.34,52.18,52.18,0,0,1-.0828-6.598q.0751-1.4614.2354-2.9167c.0231-.2092.0484-.4181.0731-.6271.014-.1177.0294-.2354.0449-.3529-.0493.3754-.009.0689.0016-.0053.0648-.45.134-.9.2106-1.3485a43.858,43.858,0,0,1,2.22-8.2461c.0871-.2282.1775-.4549.2678-.6818.0394-.0988.0816-.1964.121-.2952.0735-.1844-.1991.4464-.0125.031.1572-.35.31-.7015.476-1.0476.1771-.369.3542-.7451.5649-1.0967,1.4774-2.4656,3.2409-4.7983,4.8516-7.1779,2.2044-3.2568,4.2671-6.7223,6.743-9.7862a34.1064,34.1064,0,0,1,19.4061-11.94,44.8443,44.8443,0,0,1,11.0455-.5775l27.5353.9777,10.5269.3738a29.9518,29.9518,0,0,1,13.9561,3.6793,28.6838,28.6838,0,0,1,8.3022,7.1034,40.0607,40.0607,0,0,1,4.3939,7.5054,7.0025,7.0025,0,0,1-6.6746,10.2639c-4.3039-.0624-8.6077-.1489-12.9114-.2233a39.3784,39.3784,0,0,0-5.2211-.0243A13.4378,13.4378,0,0,0,309.1,194.84c-2.7711,3.6757-2.6648,7.9229-2.7674,12.2568l-.3417,14.4383-.07,2.97h3.8874a33.0038,33.0038,0,0,0-6.09-17.2349c-2.9248-4.1837-7.0767-8.3308-12.555-8.01-4.66.2725-9.46,1.8072-11.764,6.2091-2.6628,5.0883-1.9,11.3231-.0713,16.5391a49.5671,49.5671,0,0,0,4.3985,9.333,22.3483,22.3483,0,0,0,5.2872,6.3609,1.9571,1.9571,0,0,0,2.6593-.6973A1.99,1.99,0,0,0,290.9753,234.3445Z"/><path d="M302.1852,225.1273a44.6163,44.6163,0,0,0-1.94-5.2111c-1.14-2.6323-2.5866-5.511-4.8683-7.3392a5.77,5.77,0,0,0-5.0537-1.3464,1.9615,1.9615,0,0,0-1.3575,2.391,1.9848,1.9848,0,0,0,2.391,1.3576c.0569-.0137.1247-.0224.1812-.0407.2668-.0864-.2131.0444-.2469.0295a1.3969,1.3969,0,0,0,.356-.0155c.0567.0009.1193.0105.1763.0079.2739-.0121-.2285-.0217-.2544-.0386a2.0227,2.0227,0,0,0,.4312.1c.0555.0167.1136.0424.17.0561.2673.0645-.19-.0692-.2111-.0952.0549.0681.2537.1208.3329.164.1118.0608.2209.1267.3276.1961.0546.0355.1072.0738.1617.1095.2475.1621.0606.18-.0742-.0632.1093.1975.4557.3957.6208.5612.2219.2224.4317.4567.6324.6984.0432.0519.17.1595.18.2225-.0027-.0154-.2888-.3924-.0908-.1169.0921.1281.1874.2538.2782.3829q.2966.4214.5677.86a29.0776,29.0776,0,0,1,1.8977,3.6649,2.8942,2.8942,0,0,1,.1872.4321c-.13-.5274-.0424-.1.0252.0643q.1855.4519.3613.908.2862.7416.5474,1.4925c.1845.53.3646,1.0634.5219,1.6026a1.9442,1.9442,0,1,0,3.7485-1.0335Z"/><path d="M334.5913,206.6017a15.9459,15.9459,0,0,0-5.5437-2.2433,18.0549,18.0549,0,0,0-12.7654,1.9865c-2.1838,1.2211-.226,4.58,1.962,3.3566a14.1359,14.1359,0,0,1,10.1518-1.5066,16.7957,16.7957,0,0,1,1.8742.5733c.1473.0546.2923.1155.44.17.3516.13-.2012-.0933.0063.0023.2156.0994.4322.1954.6451.3006a10.2058,10.2058,0,0,1,1.2681.7172,1.9622,1.9622,0,0,0,2.6594-.6973,1.9825,1.9825,0,0,0-.6973-2.6593Z"/><ellipse cx="327.8964" cy="218.1651" rx="2.9398" ry="2.957"/><path d="M323.9852,218.119a3.9869,3.9869,0,0,0,2.5562,3.7274,3.8981,3.8981,0,0,0,4.2965-1.0963,3.9173,3.9173,0,1,0-6.8527-2.6311.98.98,0,0,0,.9719.9718.9912.9912,0,0,0,.9718-.9718c.0024-.0822.0121-.1645.0139-.2464-.0043.1909-.0134.0728-.0013.0178.0287-.13.056-.2587.097-.3855.0123-.0382.1128-.2766.0145-.06.0215-.0473.0435-.0942.0672-.14a3.3752,3.3752,0,0,1,.2428-.3947c-.1186.17-.0224.0274.0163-.0131.0442-.0463.0857-.0949.131-.14.0482-.0483.3421-.28.1528-.1472a3.4518,3.4518,0,0,1,.3248-.2058c.0454-.0248.0921-.0462.1376-.07.1629-.0867-.1434.0326.0919-.0336.1269-.0357.25-.0755.38-.1005.06-.0116.2334-.0178.0187-.0054.0677-.0039.1349-.01.2028-.0119s.1369-.0015.2054.0015c.0031,0,.27.0193.1136.0044-.1534-.0146.1013.02.1081.0215q.1161.0248.23.0586c.0754.0224.1486.0493.2224.0763-.0343-.0125-.1758-.0874-.0183-.0047.1144.06.2275.12.3355.1908.0042.0029.2044.1524.0884.0593s.0753.0689.0784.0716a3.275,3.275,0,0,1,.3149.3355c-.1271-.1536-.0374-.0494-.0146-.0113.04.0662.0843.129.1228.1961.0256.0447.05.09.0735.1363.02.04.103.2727.0276.0526a3.8614,3.8614,0,0,1,.1147.3765c.0121.0518.0216.104.032.1561.0383.1922-.0074-.1554.0063.1031.0066.1243-.0024.2469-.003.3708-.0013.2618.0468-.19-.0055.0636-.0108.0524-.02.1047-.0328.1567a3.5962,3.5962,0,0,1-.1167.3771c.0784-.22-.01.0141-.0292.0527q-.053.1034-.1139.2025a1.8785,1.8785,0,0,0-.1066.1607c-.059.1239.1453-.1533-.0133.0158-.0881.0938-.1717.1882-.2676.2747-.0036.0033-.1977.1606-.079.0706s-.0855.0558-.089.0582a3.0825,3.0825,0,0,1-.4063.2214c.0346-.0157.1845-.0637.0155-.0115-.075.0232-.1485.0492-.2246.0693-.0508.0135-.1022.0255-.1537.0363-.0086.0017-.26.0316-.1072.02.1575-.0115-.1089.0032-.1124.0033-.0684.0027-.1368.0028-.2052.0008s-.1358-.0081-.2038-.0128c.2315.0159-.0032-.0026-.059-.0144a3.2931,3.2931,0,0,1-.4524-.1348c.1972.0722.0334.0151-.0163-.0127-.0789-.0439-.1592-.0841-.236-.1319-.0437-.0272-.0852-.0573-.1286-.0848q-.1315-.0958.013.0128-.0594-.0487-.1161-.1c-.095-.0866-.1794-.1816-.2661-.2761-.1664-.1816.0924.1637-.0342-.048-.04-.0663-.0843-.1289-.1228-.1961s-.0719-.1371-.1076-.206c-.0921-.1782.0385.1546-.02-.0565-.0429-.1539-.0868-.3023-.12-.4591-.0123-.0583.0017-.1683.0023.0189,0-.1091-.0129-.2183-.0127-.3278a.9719.9719,0,1,0-1.9437,0Z"/><path class="cls-8" d="M275.5669,157.8061l76.4976,1.3267s17.5869,35.0143-31.1288,40.4731a32.397,32.397,0,0,1-27.4517-10.2932l-3.9633-4.31"/><path d="M275.5669,159.75l25.9729.45,41.0806.7125,9.4441.1638-1.6783-.9627c.0675.1347.1382.2718.1934.4119.0625.1583.1356.316.2065.4706.0544.1188-.2241-.5645-.06-.1386.0482.1247.1009.2478.15.3721a35.1056,35.1056,0,0,1,1.3446,4.1454q.3528,1.366.5959,2.7574c.0383.2205.0724.4415.1081.6624.0218.1348.04.27.0594.4052-.08-.555-.0093-.0754.0026.0319.0605.5417.1186,1.0829.1561,1.6268a27.9754,27.9754,0,0,1,.0346,3.3544c-.0291.5685-.0817,1.134-.1435,1.7-.0557.5094.0438-.29-.0019.03-.0187.1306-.0368.2614-.0587.3916-.0573.3417-.116.6828-.1854,1.0223a18.1073,18.1073,0,0,1-2.6946,6.7561,22.5038,22.5038,0,0,1-5.9891,6.1173A37.7574,37.7574,0,0,1,333.43,195.182a56.8833,56.8833,0,0,1-16.0819,2.6812,30.7559,30.7559,0,0,1-18.1306-5.9817c-3.155-2.3108-5.6882-5.389-8.322-8.2531-1.6972-1.8455-4.4406.9091-2.7488,2.7488a72.26,72.26,0,0,0,7.4592,7.5909,34.54,34.54,0,0,0,16.8907,7.4216c6.0608.845,12.2517-.0795,18.1742-1.4528a48.6269,48.6269,0,0,0,12.9765-4.8359c5.7124-3.2316,10.334-8.1654,12.32-14.4979a29.2,29.2,0,0,0,.379-14.6532,32.2819,32.2819,0,0,0-2.6028-7.7982,1.9344,1.9344,0,0,0-1.6783-.9626l-25.9728-.4505-41.0806-.7124-9.4442-.1638c-2.5024-.0434-2.5028,3.844,0,3.8874Z"/><path d="M284.9665,233.25a15.9785,15.9785,0,0,0,16.1767,7.3579,1.9555,1.9555,0,0,0,1.3575-2.391A1.9961,1.9961,0,0,0,300.11,236.86c.2476-.0338-.453.0386-.5287.0442q-.4032.0294-.8076.0364a13.7411,13.7411,0,0,1-1.5384-.06q-.1845-.0175-.3686-.04.3213.0432-.0241-.0087c-.2331-.0449-.4667-.0836-.6986-.1349q-.587-.13-1.1605-.3129-.3163-.101-.6276-.2175-.1527-.0572-.3041-.1181.3233.14.02.0082c-.3769-.1737-.7494-.3532-1.1125-.5545q-.5163-.2863-1.0084-.6139-.2355-.1566-.465-.3219c-.0435-.0313-.4881-.368-.2413-.1759s-.1754-.1446-.2167-.1788q-.1958-.1624-.3862-.331-.3563-.3149-.6936-.65-.5478-.5442-1.0425-1.1386c-.0608-.0733-.12-.148-.18-.2214-.2851-.3446.25.346.0817.1082-.0875-.124-.1816-.2433-.2686-.3677-.0739-.1059-.1478-.2124-.2153-.3226a1.944,1.944,0,1,0-3.3566,1.9621Z"/><path class="cls-9" d="M267.8851,879.32l.2387,57.0466H394.0469s2.1473-35.9681-44.8742-39.76a16.8568,16.8568,0,0,1-15.3861-17.0412c.0248-2.5032.0519-4.5285.079-6.1646a6.5463,6.5463,0,0,0-6.5284-6.6725h-5.3893l-14.3372,8.8985a22.71,22.71,0,0,1-24.16-.12l-4.0828-2.59A7.4877,7.4877,0,0,0,267.8851,879.32Z"/><path d="M265.9414,879.32l.0809,19.3171.1282,30.6542.03,7.0753a1.9725,1.9725,0,0,0,1.9437,1.9437H378.4994c5.0988,0,10.2406.1942,15.3368,0,.07-.0026.1406,0,.2107,0a1.9842,1.9842,0,0,0,1.9437-1.9437,35.08,35.08,0,0,0-2.7644-14.576c-4.3364-10.8168-13.0986-18.536-23.8411-22.7786a61.3668,61.3668,0,0,0-11.5294-3.2242c-2.3555-.43-4.7337-.7512-7.1165-.9851a19.0423,19.0423,0,0,1-6.1767-1.3367,15.032,15.032,0,0,1-7.9134-8.5137,17.6752,17.6752,0,0,1-.9094-6.3035c.0246-2.3125.3389-4.8236-.1132-7.1048a8.6252,8.6252,0,0,0-8.623-6.7594c-1.3571-.0064-2.7145,0-4.0716,0a4.0581,4.0581,0,0,0-2.187.4031c-4.36,2.472-8.5493,5.3061-12.8081,7.9494a25.2166,25.2166,0,0,1-8.1742,3.5526,20.7507,20.7507,0,0,1-14.2645-2.2244c-2.2745-1.2753-4.3364-3.0559-6.7673-4.0261a9.4546,9.4546,0,0,0-10.8294,3.0759,9.63,9.63,0,0,0-1.96,5.8049c-.0413,2.5025,3.8461,2.5031,3.8874,0a5.5986,5.5986,0,0,1,8.6727-4.652c3.7157,2.2889,7.1921,4.6809,11.5391,5.68a24.9739,24.9739,0,0,0,18.5553-3.0457c2.1872-1.3354,4.3553-2.7031,6.5327-4.0545l7.8-4.8413-.9811.2653c3.0575,0,7.4867-.8691,9.3311,2.2572a6.1257,6.1257,0,0,1,.6277,3.4335c-.024,1.58-.0466,3.1593-.0591,4.7389a20.2232,20.2232,0,0,0,1.8169,8.7446,18.7408,18.7408,0,0,0,12.5931,10.264c2.9881.6893,6.1317.69,9.16,1.1839a67.4568,67.4568,0,0,1,8.2151,1.8491c7.8269,2.3054,15.0651,6.3239,20.3543,12.5658a34.5114,34.5114,0,0,1,7.2249,14.6163c.2674,1.1395.4718,2.2886.6449,3.4458.0616.4124-.0588-.4873-.011-.08.0165.14.035.2806.0513.421q.0348.3.0647.6009.0617.6236.1007,1.249a20.1649,20.1649,0,0,1,.04,2.4048l1.9437-1.9437H273.2644a47.8552,47.8552,0,0,0-4.93,0,2.0285,2.0285,0,0,1-.2107,0l1.9437,1.9437-.0808-19.3171-.1283-30.6541-.03-7.0754C269.8184,876.8191,265.931,876.814,265.9414,879.32Z"/><path d="M225.33,457.1617s-27.1918,5.26-30.3293,21.04,36.6043,19.4619,36.6043,19.4619"/><path d="M224.8133,455.2875a65.0623,65.0623,0,0,0-13.0893,4.196c-6.91,2.963-14.2741,7.4726-17.4295,14.6285-1.2956,2.9383-1.9577,6.2564-.7735,9.3439a15.1462,15.1462,0,0,0,5.8088,6.7955c5.48,3.8192,12.3453,5.7318,18.7894,7.1661a108.7726,108.7726,0,0,0,13.4858,2.19,1.9581,1.9581,0,0,0,1.9437-1.9437,1.9853,1.9853,0,0,0-1.9437-1.9437c-.9859-.0919-1.9692-.2183-2.9507-.3487.6063.0805-.1565-.0224-.294-.0418q-.3681-.0518-.7358-.1058-.8975-.132-1.7927-.277-1.988-.3222-3.9647-.71c-6.15-1.2078-12.4853-2.8015-17.9161-5.7222-.6167-.3316-1.2231-.6826-1.8142-1.0581-.5327-.3385-1.3172-.8909-1.556-1.0817A16.0972,16.0972,0,0,1,199.18,485.12q-.3176-.3212-.6141-.6624c-.1156-.1339-.23-.2695-.3387-.409.2379.3051-.0659-.0985-.1115-.1654a10.0993,10.0993,0,0,1-.88-1.5418c-.1336-.297.15.4275-.0259-.074-.0551-.1567-.1111-.3124-.16-.4714-.0891-.2925-.1568-.5889-.2169-.8885-.0213-.1059-.0619-.48-.0168-.0649q-.0275-.2538-.04-.5089a8.3781,8.3781,0,0,1,.0048-.87c.0067-.1186.0168-.237.0276-.3553.0534-.5865-.08.3837.0309-.207q.1338-.7145.3332-1.414c1.9394-6.7517,8.6787-11.0191,14.6924-13.8338a60.9262,60.9262,0,0,1,13.9808-4.6181c2.4533-.477,1.4146-4.2245-1.0334-3.7485Z"/><polyline class="cls-7" points="169.73 804.399 142.288 847.902 85.578 825.787 125.768 758.906"/><path d="M168.0515,803.4183l-9.265,14.6872-14.7752,23.4222-3.402,5.3931,2.195-.8933-19.2062-7.49-30.48-11.8861-7.0235-2.7389,1.1616,2.8553,13.5816-22.6014,21.6444-36.0189,4.9639-8.26c1.2918-2.15-2.0681-4.1064-3.3567-1.962L110.508,780.5268,88.8636,816.5457l-4.9639,8.26a1.9734,1.9734,0,0,0,1.1617,2.8553l19.2061,7.49,30.48,11.886,7.0235,2.7389a1.9593,1.9593,0,0,0,2.195-.8932l9.265-14.6872,14.7752-23.4222,3.402-5.393c1.3387-2.1221-2.0238-4.0749-3.3566-1.9621Z"/><path class="cls-9" d="M91.6766,809.725,61.4928,858.0216l106.3246,67.8633s20.9711-29.2129-16.7122-57.7558a16.96,16.96,0,0,1-3.9146-22.6809c1.3542-2.1,2.4559-3.7958,3.35-5.1626a6.5876,6.5876,0,0,0-1.9583-9.1523l-4.55-2.9044-16.8454-.2132a22.8156,22.8156,0,0,1-20.336-13.1213l-2.0677-4.3872A7.4677,7.4677,0,0,0,91.6766,809.725Z"/><path d="M89.9983,808.744,79.7912,825.0762,63.5326,851.0913l-3.7181,5.9493a1.9774,1.9774,0,0,0,.6973,2.6593l10.6032,6.7677,25.453,16.2458,30.5636,19.5076L153.74,919.2045c4.2878,2.7367,8.5016,5.7186,12.9185,8.2454.0607.0348.1185.0757.1775.1133a1.9877,1.9877,0,0,0,2.6593-.6973c3.5865-5.0121,5.402-11.6569,5.94-17.7,1.3262-14.8932-6.7643-28.2815-17.5169-37.9342-3.43-3.0792-7.6507-5.4565-9.8465-9.6526a15.0934,15.0934,0,0,1-1.1042-10.9475,21.091,21.091,0,0,1,2.9311-5.7973c1.1473-1.7733,2.6019-3.5553,3.2636-5.5836a8.679,8.679,0,0,0-3.7837-9.913c-.9942-.6461-1.9992-1.276-2.9986-1.9139a5.2182,5.2182,0,0,0-2.4079-1.139c-1.7252-.1159-3.4843-.0441-5.2127-.0659-4.436-.0562-8.9781.17-13.4008-.2432a20.6,20.6,0,0,1-10.9827-4.5371,23.04,23.04,0,0,1-6.1715-8.2121c-1.0962-2.3259-2.0129-4.9826-4.0369-6.684a9.4089,9.4089,0,0,0-14.17,2.2019c-1.3714,2.1012,1.993,4.0514,3.3566,1.9621,2.5035-3.8359,7.8533-3.07,9.776.838,1.9266,3.9163,3.5509,7.76,6.6623,10.9542a24.9631,24.9631,0,0,0,15.9292,7.3954c2.8663.2213,5.7805.12,8.6522.1566l9.6574.1223-.981-.2654,3.2768,2.0915c1.2392.7909,2.4425,1.5041,3.02,2.952.95,2.3814-.4112,4.2343-1.661,6.1567a35.6735,35.6735,0,0,0-4.0991,7.3276,19.1427,19.1427,0,0,0,.8238,14.493c2.4784,5.2578,7.6229,8.12,11.7369,11.9465,6.9269,6.4421,12.6953,14.4072,14.76,23.7736a34.5231,34.5231,0,0,1-.9062,18.0329,29.0633,29.0633,0,0,1-2.4759,5.9113,20.9873,20.9873,0,0,1-1.3873,2.3116l2.6593-.6973-10.6032-6.7677-25.453-16.2458-30.5636-19.5076L75.57,864.702l-8.7665-5.5953c-1.3583-.8669-2.7109-1.924-4.1521-2.65-.0616-.031-.1191-.076-.1775-.1132l.6973,2.6593L73.3782,842.67l16.2586-26.0151,3.7181-5.9492C94.6846,808.5785,91.3226,806.6249,89.9983,808.744Z"/><path d="M144.9,856.4237a11.3776,11.3776,0,0,0-2.8309.2313,12.2093,12.2093,0,0,0-5.1952,2.2352,13.0841,13.0841,0,0,0-3.1663,3.4233,1.96,1.96,0,0,0,.6973,2.6594,1.986,1.986,0,0,0,2.6593-.6973c.1056-.1649.2131-.3283.3261-.4882q.0827-.117.1683-.2316-.2424.3089-.0454.0611c.2325-.2746.4655-.5456.72-.8.2408-.241.4972-.4609.7549-.683q.2434-.1944-.1038.0762.0963-.073.1944-.1437.1447-.1043.2933-.2035a11.4376,11.4376,0,0,1,1.5713-.8621c.315-.1454-.4694.1845.019-.004q.1889-.0729.38-.1389.3424-.1179.6919-.2138c.43-.1181.8649-.2046,1.3041-.28.4555-.0776-.4558.05-.144.0175.0926-.01.185-.0216.2777-.0308q.2325-.023.4658-.0361a7.0821,7.0821,0,0,1,.9619-.0038,1.9525,1.9525,0,0,0,1.9437-1.9437,1.9927,1.9927,0,0,0-1.9437-1.9437Z"/><path d="M149.52,864.704a11.378,11.378,0,0,0-2.8309.2313,12.2084,12.2084,0,0,0-5.1951,2.2352,13.0828,13.0828,0,0,0-3.1664,3.4233,1.96,1.96,0,0,0,.6973,2.6594,1.9861,1.9861,0,0,0,2.6594-.6973c.1055-.1649.213-.3283.3261-.4882q.0825-.117.1683-.2316-.2424.3089-.0455.0611c.2325-.2746.4656-.5456.72-.8.2408-.241.4972-.4609.755-.683q.2433-.1944-.1039.0762.0963-.073.1944-.1437.1449-.1043.2933-.2035a11.4387,11.4387,0,0,1,1.5714-.8621c.3149-.1454-.47.1845.0189-.004q.1889-.0729.38-.1388.3423-.1181.6919-.2139c.43-.1181.8648-.2046,1.304-.2795.4556-.0776-.4557.05-.144.0175.0927-.01.185-.0216.2777-.0308q.2325-.023.4658-.0361a7.0821,7.0821,0,0,1,.9619-.0038,1.9524,1.9524,0,0,0,1.9437-1.9437,1.9927,1.9927,0,0,0-1.9437-1.9437Z"/><path d="M156.59,871.5014a11.3732,11.3732,0,0,0-2.8309.2313,12.2093,12.2093,0,0,0-5.1952,2.2352,13.0841,13.0841,0,0,0-3.1663,3.4233,1.96,1.96,0,0,0,.6973,2.6594,1.9862,1.9862,0,0,0,2.6594-.6973c.1055-.1649.213-.3283.326-.4882q.0826-.117.1683-.2317-.2424.309-.0454.0612c.2325-.2746.4655-.5456.72-.8.2408-.2409.4972-.4608.7549-.6829q.2435-.1946-.1038.0761.0963-.0729.1944-.1436.1449-.1043.2933-.2035a11.4387,11.4387,0,0,1,1.5714-.8621c.3149-.1455-.4695.1845.0189-.004q.1889-.0729.38-.1389.3423-.1179.6918-.2138c.43-.1181.8649-.2046,1.3041-.2795.4555-.0776-.4557.05-.144.0175.0926-.01.185-.0217.2777-.0308q.2325-.023.4658-.0361a7.0821,7.0821,0,0,1,.9619-.0038,1.9524,1.9524,0,0,0,1.9437-1.9437,1.9926,1.9926,0,0,0-1.9437-1.9437Z"/><path class="cls-1" d="M172.9155,913.1487a35.687,35.687,0,0,1-5.098,12.7362L61.4927,858.0215l4.7165-7.74-.0589-.0376,8.4341-13.37S91.8819,841.21,101.2782,863.3c8.692,11.5825,18.9547,2.7108,29.9314,11.7283s4.5051,10.4475,11.7623,14.9815c0,0,8.3571,5.9064,17.3774,4.2879S175.08,899.8808,172.9155,913.1487Z"/><path d="M171.0412,912.632a32.6369,32.6369,0,0,1-4.9021,12.2719l2.6594-.6973-10.6032-6.7677-25.4531-16.2458-30.5636-19.5077L75.57,864.702l-8.7665-5.5954c-1.3583-.8669-2.7109-1.924-4.1521-2.65-.0616-.0311-.1191-.0761-.1775-.1133l.6973,2.6593,4.7165-7.74a1.9792,1.9792,0,0,0-.6973-2.6594l-.0588-.0375.6973,2.6593,8.434-13.37-2.195.8932c.3563.09.7067.2085,1.0539.3281.3933.1354.7827.282,1.169.4362.117.0466.2333.0948.35.1422.4284.1741-.4053-.18.0356.016.3212.1427.6424.285.96.4348a39.2131,39.2131,0,0,1,8.7288,5.6525A47.1044,47.1044,0,0,1,96.55,858.14q1.188,2.0649,2.1957,4.2265a14.9018,14.9018,0,0,0,1.1263,2.27,16.2409,16.2409,0,0,0,1.68,1.9794,16.8916,16.8916,0,0,0,7.4932,4.5125c5.2007,1.4838,10.7582.59,15.8884,2.4537a22.3728,22.3728,0,0,1,7.81,5.4148,19.2755,19.2755,0,0,1,2.3078,2.6224,13.6029,13.6029,0,0,1,.7283,1.1541q.1465.2619.28.5307c.0325.0657.3346.7522.1743.361.5086,1.241.7681,2.5671,1.38,3.7693a10.4192,10.4192,0,0,0,3.45,3.64,30.3388,30.3388,0,0,0,10.8545,4.8454,23.9435,23.9435,0,0,0,5.549.5993c1.5261-.0271,3.0018-.3834,4.5163-.4776a8.3,8.3,0,0,1,5.6148,1.4756c4.3566,3.3469,4.2115,10.24,3.4424,15.1152a2.0046,2.0046,0,0,0,1.3576,2.3909,1.9587,1.9587,0,0,0,2.391-1.3575c.8457-5.3616,1.0061-11.5874-2.1459-16.3015a11.8853,11.8853,0,0,0-11.6042-5.1173,23.2582,23.2582,0,0,1-9.333-.3847,27.18,27.18,0,0,1-6.5132-2.7523,17.7837,17.7837,0,0,1-3.0234-2.0845c-.212-.1956-.7048-.7269-.7074-.73.1236.1591-.1307-.19-.1678-.2522-.088-.1475-.1756-.294-.2591-.4443-.0684-.1231-.1248-.253-.1842-.3806.1375.2952.0555.1527-.01-.048-.0941-.2869-.1937-.5716-.2847-.86-1.4548-4.6022-4.57-7.9627-8.3154-10.9328a21.8274,21.8274,0,0,0-8.7651-4.2691,57.3107,57.3107,0,0,0-8.4026-.9493,18.8433,18.8433,0,0,1-7.185-1.6154,13.4429,13.4429,0,0,1-3.5879-2.6771,7.7919,7.7919,0,0,1-1.5117-1.9383c-.3921-.8072-.7332-1.64-1.128-2.4465A52.38,52.38,0,0,0,91.4155,845.118a44.7773,44.7773,0,0,0-10.0272-7.4642,28.1406,28.1406,0,0,0-6.0131-2.577c-.0918-.0241-.1821-.0534-.2741-.0767a1.9991,1.9991,0,0,0-2.1951.8933l-8.434,13.37a1.9768,1.9768,0,0,0,.6973,2.6593l.0588.0376-.6973-2.6594-4.7165,7.74a1.9791,1.9791,0,0,0,.6974,2.6593l10.6032,6.7677,25.453,16.2458,30.5637,19.5077L153.74,919.2045c4.2878,2.7368,8.5017,5.7186,12.9185,8.2455.0607.0347.1186.0756.1775.1132a1.9872,1.9872,0,0,0,2.6594-.6973,35.4,35.4,0,0,0,5.294-13.2005C175.2924,911.2236,171.5461,910.1794,171.0412,912.632Z"/><path class="cls-4" d="M259.4711,446.6332,338.8336,457.39l29.2335,369.5725a19.8,19.8,0,0,1-25.3421,20.6359l-12.7772-3.8233-8.924,4.3788a31.4609,31.4609,0,0,1-31.7742-2.3766l-4.7046-3.2534-10.5474,4.2885a31.4573,31.4573,0,0,1-28.7786-2.6255l-3.5889-2.2887-.3421.1574a31.4909,31.4909,0,0,1-36.94-7.9818l-6.2547-7.19-16.0233-.597a31.5925,31.5925,0,0,1-26.2816-16.0028l-6.2077-10.9273H130.4918a43.5222,43.5222,0,0,1-29.5048-11.5444h0a4.1507,4.1507,0,0,1-.8017-5.0789l85.4688-152.2928S164.871,509.73,225.33,457.1617"/><path d="M258.9544,448.5075l26.7977,3.6323,42.7314,5.792,9.8333,1.3328L336.89,457.39l1.56,19.7219,4.0118,50.7178,5.5452,70.1033,6.0682,76.7137L359.769,746.63l4.3077,54.4582c.6687,8.4537,1.3621,16.906,2.0062,25.3616a18.8562,18.8562,0,0,1-1.77,10.1411,18.0139,18.0139,0,0,1-21.0858,9.1287c-2.26-.6463-4.505-1.348-6.7566-2.0217a47.3852,47.3852,0,0,0-6.0055-1.7971,4.0426,4.0426,0,0,0-2.5178.6965l-4.1438,2.0333a53.5985,53.5985,0,0,1-8.1412,3.5486c-9.4515,2.83-18.7493.54-26.7009-4.9584-1.7426-1.2051-3.4813-3.1612-5.68-2.2673l-7.7941,3.1691a37.5564,37.5564,0,0,1-9.9163,2.8775,29.7153,29.7153,0,0,1-15.8218-2.5364,41.1781,41.1781,0,0,1-4.6842-2.6792c-.9376-.598-2.2387-1.83-3.4343-1.83a8.0451,8.0451,0,0,0-2.53.9378,30.37,30.37,0,0,1-3.4039,1.1164,29.2951,29.2951,0,0,1-7.5906.9836,30.1817,30.1817,0,0,1-22.7121-10.6706q-2.6617-3.045-5.3088-6.1029c-1.2121-1.3934-2.4761-1.2971-4.2019-1.3614-5.1772-.1929-10.4312-.1372-15.5911-.6313a29.9572,29.9572,0,0,1-22.8255-14.9235c-2.1-3.6243-4.1386-7.2853-6.2076-10.9273a1.9516,1.9516,0,0,0-1.6784-.9627H131.312a43.9432,43.9432,0,0,1-14.925-2.4662,41.5612,41.5612,0,0,1-9.0369-4.5809c-1.9211-1.2808-6.68-3.8013-5.4865-6.6515a40.7558,40.7558,0,0,1,2.2331-3.9791l6.0244-10.7345,19.8254-35.3259,24.1994-43.12,21.45-38.22,11.3106-20.1539a5.1716,5.1716,0,0,0,.3912-3.7071q-.1269-.8292-.2446-1.66c-.1454-1.019-.1832-1.3-.27-1.97q-.4018-3.0923-.7369-6.1925a329.685,329.685,0,0,1-1.8376-41.7364c.365-18.7993,2.3557-37.6573,7.0406-55.8961,4.8369-18.8307,12.6916-37.3185,25.3682-52.2539a96.6544,96.6544,0,0,1,10.0877-10.229c1.8872-1.6494-.8716-4.3895-2.7488-2.7488-23.77,20.7757-35.2417,51.8452-40.2219,82.2762-4.1479,25.3451-4.3973,51.3517-1.9522,76.887.5118,5.3447,1.0887,10.7124,1.9983,16.007l.1959-1.4978-12.16,21.6683L144.478,699.8388l-28.7973,51.3126L99.14,780.625A8.2743,8.2743,0,0,0,97.712,784.87c.0488,3.7048,3.66,5.989,6.3409,7.9272a45.3324,45.3324,0,0,0,10.998,5.787c9.957,3.6429,20.8275,2.7159,31.2434,2.7159h3.2863l-1.6783-.9627c3.7372,6.5786,7.06,13.9386,12.7294,19.1065a33.5461,33.5461,0,0,0,16.2291,8.1877,71.5486,71.5486,0,0,0,10.6584.8017l10.574.3939-1.3744-.5693c4.6713,5.37,9.0271,11.0639,15.4058,14.5305a33.9382,33.9382,0,0,0,30.4865.7882h-1.962a53.0269,53.0269,0,0,0,10.0686,5.4734,33.5974,33.5974,0,0,0,17.0162,1.5418c5.9978-.98,11.7327-3.9187,17.3278-6.1937l-1.4977-.1959a71.39,71.39,0,0,0,8.6353,5.5717,33.5091,33.5091,0,0,0,17.6983,3.4243c7.69-.6708,14.2462-4.4155,21.0312-7.7448l-1.4977.196c8.1464,2.4376,17.024,6.502,25.56,3.689a22.0941,22.0941,0,0,0,15.0033-22.5826c-.3426-4.875-.7708-9.7454-1.1562-14.6171l-2.665-33.691-3.7509-47.4189-4.4286-55.9874-4.6673-59.004-4.4778-56.6089L345,510.772l-2.8118-35.5463c-.4508-5.6994-.8683-11.4026-1.3525-17.0992-.0209-.2453-.0388-.4908-.0582-.7361a1.9805,1.9805,0,0,0-1.427-1.8743l-26.7977-3.6323-42.7314-5.792-9.8333-1.3329c-2.4464-.3315-3.505,3.4136-1.0335,3.7486Z"/><path class="cls-1" d="M220.04,342.2673c-10.5351,38.4293-30.2651,113.7621-33.6844,150.8341,15.6876-17.0086,130.5821-10.3965,170.2824-.222,4.7652-15.8362-24.1528-154.1875-24.1528-154.1875l-4.3463-39.8279h-88.368"/><path d="M218.1662,341.7506q-7.8579,28.6683-15.0514,57.5143c-5.2889,21.3442-10.3218,42.7815-14.3371,64.4062-1.81,9.7458-3.4473,19.5554-4.3654,29.43-.1573,1.6918,2.2253,2.5463,3.3181,1.3744q.2789-.2989.5791-.5763c.1658-.1524.91-.7462.4384-.3906a17.1258,17.1258,0,0,1,1.6808-1.1153c.65-.3788,1.3208-.72,2.0036-1.0346.1715-.079.3445-.1544.5167-.2318.4287-.193-.0328.0083.2052-.0879.4214-.17.8439-.3366,1.27-.4937a69.442,69.442,0,0,1,11.9762-3.0322c10.9443-1.93,22.4315-2.5277,33.7115-2.7915,13.7015-.32,27.4186.0059,41.1027.7286,13.4477.71,26.8812,1.81,40.2543,3.3994a295.4583,295.4583,0,0,1,31.6159,5.1659q1.5225.3516,3.0366.7379a1.9807,1.9807,0,0,0,2.3909-1.3576c1.0733-3.63.6373-7.8838.4056-11.5953-.41-6.5707-1.2182-13.1177-2.0925-19.64-1.1341-8.4617-2.44-16.8994-3.8249-25.3233q-2.2544-13.71-4.7541-27.3775-2.4184-13.3358-4.9826-26.6444-2.1933-11.4191-4.4695-22.8219-1.5877-7.9587-3.2152-15.9095-.4491-2.192-.9025-4.383c-.08-.3859-.1533-.7738-.24-1.1581-.1589-.7011.1016.0453-.0081.141a5.9266,5.9266,0,0,0-.1671-1.5314l-.4078-3.7366L332.58,321.7428l-2.3558-21.5882-.1409-1.2906a1.99,1.99,0,0,0-1.9437-1.9437H250.6658c-3.5674,0-7.1732-.1533-10.7382,0-.0519.0022-.1044,0-.1563,0-2.5014,0-2.5055,3.8874,0,3.8874h84.7731a30.72,30.72,0,0,0,3.4386,0,1.3813,1.3813,0,0,1,.1563,0l-1.9437-1.9437,1.7962,16.4591,2.3821,21.8292c.1958,1.7938.54,3.5079.9044,5.2758q1.3856,6.7224,2.7368,13.4518,2.1351,10.6161,4.2015,21.2458,2.5156,12.9438,4.9163,25.91,2.5236,13.6618,4.868,27.3561c1.47,8.6455,2.8728,17.3034,4.1271,25.983,1.0014,6.9292,1.9212,13.814,2.5594,20.9609a76.2868,76.2868,0,0,1,.3617,13.67c-.0511.56.0793-.3822-.0092.0754-.03.1558-.05.3136-.08.4694-.0532.2738-.1163.5451-.1954.8127l2.391-1.3576a258.4142,258.4142,0,0,0-31.0488-5.4693c-13.3633-1.7176-26.7969-2.9046-40.2448-3.7107-13.8783-.8319-27.7913-1.2573-41.6948-1.0657a263.2217,263.2217,0,0,0-35.7187,2.5022,85.6468,85.6468,0,0,0-13.0785,2.86,27.996,27.996,0,0,0-9.0655,4.4025,11.92,11.92,0,0,0-1.3224,1.2026l3.3181,1.3744c1.7592-18.9224,5.8372-37.6794,9.9379-56.2059,4.771-21.5552,10.1125-42.9837,15.7-64.3405q3.9-14.909,7.9774-29.771c.6622-2.4161-3.087-3.447-3.7485-1.0334Z"/><path d="M337.7526,890.03a11.3244,11.3244,0,0,0-2.246,1.674,13.0936,13.0936,0,0,0-3.3827,5.0336,12.2668,12.2668,0,0,0-.7429,4.2585,1.9437,1.9437,0,1,0,3.8874,0c.0017-.2772.01-.554.0307-.83.0116-.1554.0306-.31.045-.4651.0206-.2225-.0272.1961-.0262.1928a2.12,2.12,0,0,0,.0412-.2538,10.2654,10.2654,0,0,1,.3761-1.4842q.0648-.1935.1373-.3844c.02-.0534.0443-.1063.0627-.16.0673-.198-.0936.2129-.087.2022.1224-.1995.2-.44.3083-.649a10.64,10.64,0,0,1,.6991-1.16c.0564-.0815.115-.1614.1724-.2421.2123-.2982-.1451.1759-.07.0856.1288-.1549.2531-.3129.3859-.4644q.3649-.4162.7681-.7966c.23-.2176.4715-.4219.7158-.6237.2925-.2417-.4313.3167-.05.0383.0939-.0685.1876-.137.2831-.2031a6.5909,6.5909,0,0,1,.6532-.4107,1.96,1.96,0,0,0,.6973-2.6594,1.9866,1.9866,0,0,0-2.6593-.6973Z"/><path d="M346.064,894.5316a11.3208,11.3208,0,0,0-2.2459,1.674,13.0938,13.0938,0,0,0-3.3828,5.0336,12.2668,12.2668,0,0,0-.7429,4.2585,1.9437,1.9437,0,1,0,3.8874,0c.0017-.2772.01-.5539.0307-.83.0116-.1554.0306-.31.045-.4651.0206-.2225-.0272.1961-.0262.1929a2.1256,2.1256,0,0,0,.0413-.2539,10.2521,10.2521,0,0,1,.376-1.4842q.0648-.1935.1373-.3844c.02-.0534.0444-.1063.0627-.16.0673-.1981-.0936.2128-.087.2021.1224-.1995.2-.44.3083-.6489a10.6475,10.6475,0,0,1,.6991-1.16c.0564-.0815.115-.1613.1724-.2421.2123-.2982-.1451.1759-.07.0856.1288-.1549.2531-.3129.3859-.4644q.3649-.4161.7681-.7966c.2305-.2176.4715-.4219.7158-.6237.2925-.2417-.4313.3167-.05.0383.0939-.0685.1876-.137.2832-.2031a6.5677,6.5677,0,0,1,.6532-.4107,1.96,1.96,0,0,0,.6973-2.6594,1.9867,1.9867,0,0,0-2.6594-.6973Z"/><path d="M355.6541,896.4609a11.3244,11.3244,0,0,0-2.246,1.674,13.0936,13.0936,0,0,0-3.3827,5.0336,12.2668,12.2668,0,0,0-.7429,4.2585,1.9437,1.9437,0,0,0,3.8874,0c.0017-.2772.01-.5539.0307-.83.0116-.1554.0306-.31.045-.4651.0206-.2225-.0272.1961-.0262.1929a2.1254,2.1254,0,0,0,.0412-.2539,10.2654,10.2654,0,0,1,.3761-1.4842q.0648-.1935.1373-.3844c.02-.0534.0443-.1063.0627-.16.0673-.1981-.0936.2128-.087.2021.1224-.1995.2-.44.3083-.6489a10.6412,10.6412,0,0,1,.6991-1.16c.0564-.0815.115-.1613.1724-.2421.2123-.2982-.1451.1759-.07.0856.1288-.1549.2531-.3129.3859-.4644q.3649-.4161.7681-.7966c.2305-.2176.4715-.4219.7158-.6237.2925-.2417-.4313.3167-.05.0383.0939-.0685.1876-.137.2831-.2031a6.5909,6.5909,0,0,1,.6532-.4107,1.96,1.96,0,0,0,.6973-2.6594,1.9866,1.9866,0,0,0-2.6593-.6973Z"/><path class="cls-6" d="M429.2139,362.33a225.9868,225.9868,0,0,1,11.3-19.9574l27.9676,15.2009,7.9574,4.3249,67.69-123.6641L592.3,265.9064,535.2724,394.5c-14.2934,25.8439-45.8983,36.934-73.7418,27.4363l-17.589-7.4L414.8,398.9629A198.6463,198.6463,0,0,1,429.2139,362.33Z"/><path d="M430.8922,363.3111a229.2347,229.2347,0,0,1,11.3-19.9574l-2.6593.6973,27.9754,15.2052,7.95,4.3206a1.9736,1.9736,0,0,0,2.6594-.6973l6.72-12.2772,16.2-29.5964,19.5406-35.6993L537.5122,254.37l5.5292-10.1015c.87-1.59,1.9382-3.1813,2.654-4.8487.03-.07.075-.1369.1117-.2041l-2.6593.6973,16.3149,9.3722,25.8841,14.8693,5.9717,3.43-.6973-2.6593-3.9836,8.9828L576.61,296.52l-13.1869,29.7358-13.4616,30.3553-10.8517,24.47c-1.7852,4.0254-3.5194,8.0784-5.3572,12.08a46.2365,46.2365,0,0,1-8.8665,12.177,58.5373,58.5373,0,0,1-19.1949,13.1872,60.959,60.959,0,0,1-22.4674,4.8131A55.9865,55.9865,0,0,1,461.86,419.983c-4.202-1.6531-8.3357-3.5071-12.4978-5.2582q-2.3825-1.0023-4.7649-2.0047c-.3484-.1463.6915.3556.0205-.0255-.45-.2556-.9146-.4888-1.3711-.7327L417.92,398.4273l-2.1383-1.1427.8932,2.195a193.1246,193.1246,0,0,1,14.2176-36.1685c1.1186-2.23-2.2336-4.201-3.3567-1.9621a198.2913,198.2913,0,0,0-14.6094,37.0972,1.9761,1.9761,0,0,0,.8932,2.195l22.6054,12.08c2.3594,1.2608,4.6946,2.7176,7.1633,3.7573q6.312,2.6581,12.6258,5.312c1.5656.6588,3.12,1.3628,4.7032,1.9788a51.0208,51.0208,0,0,0,10.1073,2.5578,65.928,65.928,0,0,0,24.2181-.4843,62.6325,62.6325,0,0,0,39.0923-26.0775A73.9036,73.9036,0,0,0,540.2239,388.1l9.6877-21.8455,13.1257-29.5978,13.64-30.7583,11.2392-25.3439,5.7991-13.0767.2619-.59a1.993,1.993,0,0,0-.6973-2.6593l-16.315-9.3723-25.8841-14.8693-5.9717-3.43a1.97,1.97,0,0,0-2.6593.6973l-6.72,12.2772-16.2,29.5963L499.99,314.8263l-16.9338,30.9369-5.5292,10.1015c-.87,1.59-1.9383,3.1813-2.6541,4.8487-.03.07-.0749.1369-.1117.2041l2.6594-.6973-30.4825-16.5678-5.4425-2.958a1.9871,1.9871,0,0,0-2.6594.6973,229.2477,229.2477,0,0,0-11.3,19.9573C426.4122,363.5774,429.7646,365.5478,430.8922,363.3111Z"/><path class="cls-7" d="M533.4152,257.9674l5.43-9.8707a102.7478,102.7478,0,0,0,8.7415-21.2134c1.6455-5.74,3.5813-13.2694,5.426-22.3277,4.5223-22.2058,12.6025-16.9211,49.4317,2.9441-13.1661,11.5108-12.8455,17.528-12.8455,17.528l-1.0706,40.3-12.3467,28.4152"/><path d="M535.0935,258.9484c2.95-5.3623,6.0734-10.6726,8.6447-16.23,4.9748-10.7522,7.859-22.3176,10.3534-33.8583a74.4062,74.4062,0,0,1,2.783-11.0522,10.7418,10.7418,0,0,1,3.151-4.7329c-.4434.3527.14-.0816.2407-.1448.1817-.1142.37-.2126.557-.3163.0934-.0517.1926-.0927.2888-.1386.2537-.1211-.46.1626-.0488.023.2478-.0843.4915-.1712.7451-.2381.2162-.0571.4353-.0957.6536-.143.5481-.1189-.2647-.0153.3083-.0365.5475-.02,1.0855-.0446,1.6339-.0114.2664.0162.5318.0426.7971.0718.0839.0093.3769.0561-.0214-.0036q.2547.0383.5084.0828c.6344.112,1.2628.2565,1.8855.4213a39.5175,39.5175,0,0,1,4.1877,1.3951,125.6519,125.6519,0,0,1,12.3413,5.8444c5.8247,3.0271,11.5834,6.18,17.36,9.2971l-.3934-3.0528c-5.001,4.3951-10.4138,9.5877-12.7937,15.9842a13.272,13.272,0,0,0-.6622,4.4638l-.7733,29.1108-.2562,9.6435.2653-.981-10.8114,24.8819-1.5352,3.5333a2.01,2.01,0,0,0,.6973,2.6594,1.9562,1.9562,0,0,0,2.6593-.6973l7.2635-16.7166,4.1959-9.6566a9.9927,9.9927,0,0,0,1.1724-3.7663l.5321-20.0311c.169-6.36.3523-12.72.5069-19.08.0052-.2127.022-.43.0172-.6428-.0089-.3971.005.03-.029.1563.04-.1488.05-.3079.0861-.4583a12.0568,12.0568,0,0,1,.3966-1.3233c.047-.128.0975-.2546.1469-.3817.1144-.2938-.1228.2573.072-.162.159-.3423.3222-.682.4979-1.0162a25.9449,25.9449,0,0,1,1.4658-2.43,44.4325,44.4325,0,0,1,5.3384-6.3193c1.38-1.395,2.8223-2.7264,4.2962-4.0218a1.9575,1.9575,0,0,0-.3933-3.0527c-9.2486-4.9894-18.4242-10.3563-28.1-14.4932-4.8058-2.0547-10.9005-4.588-16.0576-2.2615-4.7915,2.1615-6.5371,8.0791-7.6438,12.7563-2.68,11.3268-4.7448,22.8045-9.0042,33.6916-2.9315,7.4928-7.0142,14.44-10.8825,21.4718-1.2065,2.1933,2.1492,4.1569,3.3566,1.962Z"/><path class="cls-7" d="M578.9588,209.11c-.5337-11.2748,2.1351-18.2545,2.1351-18.2545,5.0993-15.0543,12.3569-15.41,25.48-15.1127s16.55-13.93,5.298-13.586c0,0-34.5171-10.08-47.6005,15.19-1.294,2.4418-2.4152,4.4832-3.3823,6.1881a73.96,73.96,0,0,0-8.1327,21.7435l-1.49,7.3186"/><path d="M580.9025,209.11c-.2576-5.9155.1164-12.0851,2.0616-17.7271,1.8828-5.4609,4.7461-10.9934,10.3989-12.747a28.5608,28.5608,0,0,1,8.2657-1c3.5273-.039,7.1363.3894,10.5529-.72,4.7189-1.532,9.8355-6.3806,8.1083-11.8405a7.0557,7.0557,0,0,0-5.4488-4.6035,8.4656,8.4656,0,0,0-2.405-.2639c-.5515.0564.1376.0947-.1347.05-.2576-.0426-.5169-.1386-.77-.202a63.5563,63.5563,0,0,0-10.0568-1.6087c-11.3342-.9561-23.5609,1.108-32.1807,9.053a32.0962,32.0962,0,0,0-6.3124,8.1384c-2.2637,4.1235-4.6677,8.2244-6.6307,12.5012a76.7888,76.7888,0,0,0-4.9873,14.4276c-.5677,2.4122-1.0224,4.8538-1.5166,7.2817l-.4541,2.231c-.4972,2.4423,3.2491,3.487,3.7485,1.0335a135.8018,135.8018,0,0,1,3.8039-15.9816,75.993,75.993,0,0,1,5.97-13.2321c1.9085-3.3936,3.5217-7.03,5.896-10.1359,6.9681-9.1162,18.558-11.9744,29.4811-11.6165a55.3514,55.3514,0,0,1,10.82,1.3342c.7261.1584,1.4416.3739,2.1676.5279.7878.1672,1.7049.0588,2.414.1876a6.8029,6.8029,0,0,1,1.3666.4079,2.3859,2.3859,0,0,1,1.0028.7212,4.6212,4.6212,0,0,1,.4585.7057,2.8333,2.8333,0,0,1,.1838.8783,4.36,4.36,0,0,1-.4954,2.1951,8.65,8.65,0,0,1-5.1936,4.1034c-3.116.9741-6.4625.4956-9.677.5434a33.1218,33.1218,0,0,0-8.6763,1.0352c-11.2767,3.2572-14.8744,16.9337-15.5819,27.2967a62.9044,62.9044,0,0,0-.0659,7.026c.1086,2.492,3.9966,2.5055,3.8874,0Z"/><path class="cls-7" d="M558.1423,286.9606l23.5537.1659s11.9183-20.8968,19.2532-34.2208A21.9389,21.9389,0,0,0,603.3838,239a33.0023,33.0023,0,0,1,2.0146-17.7494s12.5247,11.4836,21.5986-1.4019q.1121-.1853.2219-.3671c4.1907-6.9375,7.7844-18.4243-1.7236-20.833l-1.4433-2.211a13.4627,13.4627,0,0,0-11.27-6.1183H607.248l-.7462-1.4177c-2.4715-4.6959-7.3247-6.4137-12.5978-6.0989h0c-6.9388-7.5165-18.1129-2.3515-22.3183,5.4854"/><path d="M558.1423,288.9043l20.59.145,2.9634.0209a1.9484,1.9484,0,0,0,1.6783-.9627q5.3814-9.4358,10.707-18.9033,4.1462-7.3662,8.24-14.7619a25.444,25.444,0,0,0,3.1455-9.7871c.35-3.411-.4519-6.71-.5278-10.1077a32.4283,32.4283,0,0,1,1.066-9.0929c.2323-.8718.5-1.7354.815-2.5809.0487-.1309.101-.2605.15-.3913.1911-.5121-.0518-.0758-.0036-.0036-.0152-.0228.0923-.2092.1105-.2475l-3.0528.3934c4.1,3.7379,10.2047,6.2515,15.743,4.9009,4.7825-1.1663,8.1959-5.0444,10.357-9.2674,1.8311-3.578,3.3411-7.62,3.3373-11.6917a9.6712,9.6712,0,0,0-7.4493-9.7925l1.1616.8933a34.1158,34.1158,0,0,0-3.0075-4.2445,15.4438,15.4438,0,0,0-7.1847-4.4625c-3.1123-.8928-6.53-.585-9.7334-.585l1.6783.9627a15.3452,15.3452,0,0,0-5.2305-6.2576,16.6655,16.6655,0,0,0-9.7918-2.2217l1.3744.5693c-7.8788-8.2987-20.51-2.9648-25.371,5.8788-1.2058,2.1937,2.15,4.1573,3.3567,1.9621,2.9214-5.3146,10.0469-10.2844,16.23-7.3757a9.0845,9.0845,0,0,1,1.9914,1.273c.9551.8082,1.4287,1.5467,2.7859,1.5613a16.6753,16.6753,0,0,1,5.3735.6917c2.9751,1.0105,4.53,3.23,5.9249,5.8808a1.9353,1.9353,0,0,0,1.6784.9627c4.0406,0,8.1688-.443,11.7478,1.8287,2.13,1.352,3.3061,3.319,4.688,5.3339.7678,1.12,1.9512,1.1493,3.0642,1.7492a5.0365,5.0365,0,0,1,2.0588,1.9563c2.1147,3.7332-.1213,9.3448-1.9086,12.9072-2.3072,4.5986-6.2063,8.6812-11.7487,7.8884a15.521,15.521,0,0,1-6.0521-2.3639q-.5619-.3482-1.1029-.7286c-.1439-.1011-.2846-.2065-.428-.3082-.3888-.2758.0444.0438-.1117-.0813-.2308-.1851-.4632-.3691-.682-.5685a1.9634,1.9634,0,0,0-3.0527.3933,30.8385,30.8385,0,0,0-2.53,10.3035c-.3193,3.4614.1941,6.7329.4468,10.17a20.2889,20.2889,0,0,1-1.5851,9.6156c-1.1233,2.5649-2.6725,4.9927-4.0348,7.4378q-2.1069,3.7817-4.2289,7.555-3.8177,6.7935-7.6642,13.5707-2.05,3.6141-4.1066,7.2242l1.6783-.9627-20.59-.145-2.9634-.0209c-2.502-.0176-2.5046,3.87,0,3.8874Z"/><polyline class="cls-1" points="530.387 260.116 542.11 241.922 590.168 269.78 581.628 286.961"/><path d="M532.0653,261.0967l10.2334-15.8813,1.49-2.3122-2.6593.6973,16.2766,9.4351,25.8232,14.9691,5.9577,3.4535-.6973-2.6594-8.54,17.1808c-1.11,2.2333,2.2418,4.2048,3.3566,1.962l8.54-17.1807a1.9849,1.9849,0,0,0-.6974-2.6594l-16.2765-9.4351-25.8233-14.969-5.9577-3.4535a1.9835,1.9835,0,0,0-2.6593.6973l-10.2334,15.8813-1.49,2.3122c-1.3591,2.1091,2.0046,4.06,3.3567,1.962Z"/><path class="cls-1" d="M296.268,297.8531l44.5573-.12a52.9186,52.9186,0,0,1,24.3615,5.87l75.3274,38.7691,35.9633,19.7535,18.7917-51.4925a135.7293,135.7293,0,0,1,39.006-56.4081l2.5168-2.1634,48.5719,29.5294,6.7412,29.9787a39.0556,39.0556,0,0,1-4.4805,28.4434L538.63,422.842a65.7167,65.7167,0,0,1-83.9146,23.4032l-39.4352-19.2L321.6879,379.307"/><path d="M296.268,299.7968l39.3812-.106c1.7175-.0046,3.4352-.0155,5.1527-.0138a51.1485,51.1485,0,0,1,21.022,4.4533c3.3584,1.5217,6.6063,3.3258,9.8825,5.012l42.3165,21.7792c8.5644,4.4079,17.221,8.674,25.7046,13.2362,11.6069,6.2419,23.1063,12.6917,34.6574,19.0363l1.1115.6106a1.9749,1.9749,0,0,0,2.8553-1.1616l12.487-34.2165,5.94-16.277a138.3035,138.3035,0,0,1,13.7775-27.847c7.603-11.7394,17.0344-21.7753,27.61-30.8659l-2.3554.304,16.4705,10.0132,26.0967,15.8656,6.0047,3.6505-.8933-1.1616,3.63,16.1414,2.3342,10.38a65.0645,65.0645,0,0,1,1.4519,7.4859,38.9131,38.9131,0,0,1-5.679,24.1338l-6.3786,10.7833L555.92,389.7947l-17.8937,30.25a63.6875,63.6875,0,0,1-73.7223,27.9423c-5.457-1.7169-10.5105-4.3472-15.6354-6.8424-10.8011-5.2587-21.657-10.418-32.4079-15.7786-7.15-3.5649-14.2367-7.2617-21.3535-10.8917l-41.602-21.22-29.1336-14.86-1.5023-.7663c-2.2241-1.1344-4.1936,2.2184-1.962,3.3567l28.4154,14.4937,48.3739,24.6739c7.2724,3.7094,14.5215,7.46,21.8615,11.0335l23.7576,11.567c6.209,3.023,12.398,6.3849,18.9561,8.5923A68.1775,68.1775,0,0,0,534.9073,431.06a88.4021,88.4021,0,0,0,8.5959-12.6379l10.9118-18.447L581.76,353.7463l7.1989-12.17a42.17,42.17,0,0,0,4.9068-31.0274q-2.5973-11.5978-5.215-23.1912l-1.0483-4.6621a5.05,5.05,0,0,0-.8643-2.4782,20.622,20.622,0,0,0-3.968-2.4771l-41.5612-25.2672-3.4361-2.089a1.9965,1.9965,0,0,0-2.3554.3039,150.1739,150.1739,0,0,0-24.96,26.8507,138.9879,138.9879,0,0,0-17.1336,32.7736q-6.76,18.4917-13.5,36.9911l-5.221,14.3063,2.8553-1.1616-33.9531-18.6494c-7.4834-4.11-15.1664-7.8753-22.757-11.782l-43.685-22.4835q-5.3306-2.7435-10.6612-5.4871a58.2852,58.2852,0,0,0-27.1512-6.2522l-41.7986.1125-1.1844.0032c-2.5011.0067-2.5058,3.8941,0,3.8874Z"/><path class="cls-1" d="M391.5677,922.8651a35.77,35.77,0,0,1,2.4793,13.5014H268.1237l-.14-9.0769h-.07V911.4552s16.9144-5.6616,36.6143,7.9264c13.5085,5.0954,17.4485-7.9264,31.52-6.2279s9.3688,6.3936,17.9115,6.3108c0,0,10.2024.4832,16.9566-5.7446S386.3279,910.496,391.5677,922.8651Z"/><path d="M389.6934,923.3818a32.7306,32.7306,0,0,1,2.41,12.9847l1.9437-1.9437H273.2643a47.8552,47.8552,0,0,0-4.93,0,2.0285,2.0285,0,0,1-.2107,0l1.9437,1.9437-.14-9.0769a1.9742,1.9742,0,0,0-1.9437-1.9437h-.07l1.9437,1.9437V911.4552l-1.427,1.8743a21.8758,21.8758,0,0,1,5.2205-.9544,41.3421,41.3421,0,0,1,14.1844,1.2858,46.9193,46.9193,0,0,1,8.8744,3.35c3.2352,1.6119,6.111,4.1159,9.6469,4.9763,4.9015,1.1927,9.4178.013,13.7844-2.2773,3.8894-2.04,7.652-4.4347,12.16-4.727a26.4732,26.4732,0,0,1,8.8492,1.1077,13.61,13.61,0,0,1,2.5624.9623q.5078.2605.99.5675c.1639.1049.99.7164.6592.4529a20.3571,20.3571,0,0,0,2.8773,2.1988,11.1768,11.1768,0,0,0,5.17,1.1342,31.7494,31.7494,0,0,0,10.3122-1.4514,23.92,23.92,0,0,0,8.5691-4.861,9.045,9.045,0,0,1,5.9806-2.5761c5.8446.0605,9.5862,6.6048,11.6182,11.3279a1.955,1.955,0,0,0,2.6593.6973,1.9954,1.9954,0,0,0,.6973-2.6593c-2.25-5.23-5.8-10.626-11.4036-12.6257a11.0778,11.0778,0,0,0-6.77-.18c-2.5744.7587-4.3457,2.3834-6.3916,4.0109-3.7326,2.9692-8.7472,4.2715-13.4377,4.4265-.4108.0136-.82.0108-1.2312.0068-.33-.0032-.66-.0017-.99-.014-.4589-.0171-.9657-.0586-1.1431-.0881a8.9966,8.9966,0,0,1-1.0417-.2426c-.1507-.0439-.2991-.0986-.4454-.1552.3576.1382.0174.01-.1288-.0747-.2342-.1363-.462-.2753-.69-.4216-.06-.0384-.3983-.2959-.1724-.1218.2218.1709-.1508-.1267-.2137-.18a18.6874,18.6874,0,0,0-3.6048-2.575,29.3585,29.3585,0,0,0-16.5264-2.1045,27.4329,27.4329,0,0,0-6.7029,2.5589c-3.7749,1.9407-7.4547,4.54-11.87,4.5235a13.6985,13.6985,0,0,1-3.579-.5153,19.1261,19.1261,0,0,1-4.6494-2.5,54.5042,54.5042,0,0,0-9.9593-4.65,46.2421,46.2421,0,0,0-16.1019-2.6116,32.129,32.129,0,0,0-8.4221,1.118c-.1245.0373-.25.0708-.3737.1118a2,2,0,0,0-1.4269,1.8742V927.29a1.9719,1.9719,0,0,0,1.9437,1.9437h.07L266.04,927.29l.14,9.0769a1.9741,1.9741,0,0,0,1.9437,1.9437H378.4994c5.0988,0,10.2406.1942,15.3368,0,.07-.0026.1407,0,.2108,0a1.9837,1.9837,0,0,0,1.9437-1.9437,35.5448,35.5448,0,0,0-2.5487-14.0181C392.5715,920.0274,388.8124,921.0326,389.6934,923.3818Z"/><path class="cls-7" d="M604.1643,224.817s4.1512-13.559,10.0225-15.7066"/><path d="M606.0386,225.3337c.47-1.5308,1.052-3.032,1.6672-4.5092-.1332.32-.0156.038.0488-.1111s.1283-.2952.1934-.4423q.2358-.5322.4835-1.059.499-1.06,1.0539-2.0925c.3768-.6974.7753-1.3834,1.2032-2.0507q.3041-.4742.6291-.9343c.0986-.1392.1992-.2768.3006-.4139.0323-.0437.251-.3243.1036-.1379-.1351.1709.0837-.1007.1075-.1293a15.3613,15.3613,0,0,1,1.6441-1.7012c.3318-.2927-.1344.0688.1269-.106.158-.1057.31-.218.4724-.318.1571-.0971.3188-.1839.4813-.2713.06-.0321.1224-.0581.1828-.0886.2336-.1181-.4465.1733-.0334.0163a1.9991,1.9991,0,0,0,1.3576-2.391,1.9586,1.9586,0,0,0-2.391-1.3575c-3.1762,1.2075-5.32,4.077-6.98,6.9208a50.6132,50.6132,0,0,0-3.7768,8.3116c-.2194.6061-.4341,1.2153-.6234,1.8317-.736,2.3969,3.0152,3.4217,3.7486,1.0334Z"/><path class="cls-1" d="M320.5048,298.864H243.2723a21.1728,21.1728,0,0,1,20.9015-18.1173h15.5973a21.0315,21.0315,0,0,1,9.5181,2.2781Z"/><path d="M320.5048,296.92H243.2723l1.8743,2.46c1.2918-8.6993,8.383-15.8819,17.2792-16.6183,2.1916-.1814,4.4291-.072,6.6248-.072h9.0664a22.1954,22.1954,0,0,1,10.1933,2.0138c1.0292.512,2.0506,1.0405,3.0757,1.5606l15.9449,8.0907,12.1929,6.1868c2.226,1.13,4.1959-2.2231,1.962-3.3567L293.9241,283.2c-1.2068-.6123-2.4093-1.234-3.6206-1.8371a24.9919,24.9919,0,0,0-11.3449-2.56c-5.1547,0-10.336-.1631-15.4879.0116a23.3032,23.3032,0,0,0-22.0726,19.5327,1.9768,1.9768,0,0,0,1.8742,2.46h77.2325C323.0062,300.8077,323.01,296.92,320.5048,296.92Z"/><path d="M327.0239,243.5243a11.4573,11.4573,0,0,0,6.7042,5.1494,9.77,9.77,0,0,0,4.2858.0677,1.9545,1.9545,0,0,0,1.3575-2.3909,1.994,1.994,0,0,0-2.391-1.3576q-.1247.0249-.25.046-.3213.0495.1476-.0167a2.2368,2.2368,0,0,0-.4807.0415,7.2517,7.2517,0,0,1-.9218-.0085c-.188-.0138-.6127-.1552-.0322.0077-.1358-.0381-.2855-.0478-.4239-.0774a7.3483,7.3483,0,0,1-.8065-.2216c-.1288-.0433-.2551-.0925-.3823-.14-.3194-.1194.4713.2164.0063-.0029q-.3513-.1658-.6861-.3638-.322-.19-.6277-.4062c-.0986-.07-.1935-.144-.2916-.2141.5365.3831.1684.1285.05.03a12.5938,12.5938,0,0,1-1.624-1.6762c-.1809-.2188.3564.4769.1427.1832-.0366-.05-.0742-.1-.1105-.15-.0583-.081-.1156-.1627-.171-.2456-.0474-.0709-.0947-.1421-.1382-.2153a1.944,1.944,0,1,0-3.3566,1.962Z"/><path d="M448.0256,348.7157l16.0737,9.1964,25.5112,14.596,5.9018,3.3767c2.175,1.2444,4.1355-2.1132,1.9621-3.3567l-16.0737-9.1964L455.89,348.7357l-5.9018-3.3767c-2.175-1.2444-4.1355,2.1131-1.9621,3.3567Z"/><path class="cls-8" d="M242.84,193.9293v0a23.7557,23.7557,0,0,0-11.3221-24.943l-95.8263-55.9291-7.76,27.32,11.64,11.7084-11.64,6.2445L122.5,177.0631l24.0559,7.0251-27.16,8.5862L108.5316,228.58l114.405-15.6114A23.627,23.627,0,0,0,242.84,193.9293Z"/><path d="M244.7141,194.446a25.9322,25.9322,0,0,0-8.3513-24.363,40.3706,40.3706,0,0,0-6.1285-4.0967L210.2966,154.35l-30.3448-17.7108-28.5486-16.6624c-4.8321-2.82-9.6022-5.8157-14.5245-8.4773-.07-.0378-.1376-.08-.2062-.12a1.9655,1.9655,0,0,0-2.8553,1.1617l-6.7807,23.8719-.9793,3.4477a1.9565,1.9565,0,0,0,.5,1.8911l11.64,11.7085.3934-3.0528-5.6018,3.0052c-1.9846,1.0647-4.1335,2.0069-6.0247,3.2321a3.0086,3.0086,0,0,0-1.1477,2l-.8806,3.037-2.6078,8.9937-1.7026,5.8716a1.9752,1.9752,0,0,0,1.3576,2.391l21.0287,6.141,3.0272.884v-3.7485l-26.6435,8.423a2.4877,2.4877,0,0,0-1.8746,1.5228c-.1027.2837-.176.5818-.2633.87l-1.6266,5.3761-5.3147,17.565-3.6587,12.0923c-.4755,1.5715,1.0137,2.5789,2.391,2.391l14.2671-1.9469,32.83-4.48,36.7631-5.0166,26.0666-3.5569c1.4841-.2025,2.97-.3943,4.4526-.6076a25.5888,25.5888,0,0,0,19.1051-13.9451,26.39,26.39,0,0,0,2.1813-6.4555c.482-2.4436-3.264-3.4895-3.7486-1.0335a21.9866,21.9866,0,0,1-16.8015,17.3709c-1.6459.358-3.3427.5293-5.01.7568l-24.2179,3.3047L158.9142,219.76l-33.6233,4.5882-11.5323,1.5737c-1.81.2469-3.7038.3615-5.49.7492-.0824.0178-.1695.0231-.2532.0345l2.3909,2.391,9.504-31.4111,1.36-4.4947-1.3576,1.3575,23.7323-7.5026,3.4276-1.0836a1.9605,1.9605,0,0,0,0-3.7485l-21.0288-6.141-3.0271-.884,1.3576,2.3909,5.4319-18.7334-.8932,1.1616,11.64-6.2445a1.9625,1.9625,0,0,0,.3934-3.0528l-11.64-11.7084.5,1.8911,6.7807-23.8719.9793-3.4477-2.8553,1.1616,11.6489,6.7989,27.0354,15.7792L203.8513,155.09l22.207,12.9611c1.451.8469,2.9045,1.69,4.3531,2.5408a21.804,21.804,0,0,1,10.5541,22.821C240.5021,195.8574,244.248,196.905,244.7141,194.446Z"/><path d="M229.8045,497.2936a171.3534,171.3534,0,0,0-3.8758,29.2015c-1.2261,20.3666.3311,41.3011,6.6861,60.78a103.65,103.65,0,0,0,18.5251,34.217l-.5693-1.3744c.2643,15.0941.3954,30.19.4718,45.2865q.1223,24.1608.07,48.3221-.0354,22.12-.1661,44.24-.0948,16.52-.2352,33.04c-.0418,4.8868-.3253,9.8366-.138,14.7215.0025.0657-.0014.1322-.0021.198-.027,2.5022,3.86,2.504,3.8874,0q.1821-16.8668.2853-33.7343.2614-37.7874.267-75.5763-.0081-20.93-.1452-41.859-.072-10.0585-.1924-20.1165-.0561-4.5744-.1262-9.1485-.0356-2.3076-.0753-4.6153a3.4181,3.4181,0,0,0-.8625-2.47c-.5494-.6795-1.1043-1.354-1.6388-2.0454-15.803-20.4436-21.7292-46.7771-22.4493-72.1688a186.4653,186.4653,0,0,1,3.879-45.1853c.05-.2269.1-.4538.1535-.68.5782-2.4323-3.1693-3.47-3.7486-1.0335Z"/><path class="cls-7" d="M92.9827,564.1255l54.11-13.1379s14.305,20.02,13.0611,26.9015-10.5733,8.7586-10.5733,8.7586l-11.8171-5.0049s-11.1952-.6256-14.305-15.64"/><path d="M93.4994,566l18.3517-4.4558,29.087-7.0623,6.6714-1.62-2.195-.8932a135.3639,135.3639,0,0,1,8.1639,12.9189,45.6572,45.6572,0,0,1,4.2368,9.3788,15.05,15.05,0,0,1,.4253,1.8618c-.0561-.3644.0341.3885.04.535a6.3154,6.3154,0,0,1-.0281.94c.0628-.5712-.0231.0619-.0647.2041-.0677.232-.1176.4675-.1971.6966a6.0258,6.0258,0,0,1-.4922,1.0564,8.1527,8.1527,0,0,1-1.649,1.9692,14.2861,14.2861,0,0,1-6.7853,3.2441l1.4978.196q-5.8624-2.4829-11.7248-4.9658a3.7731,3.7731,0,0,0-1.0967-.3061c-.3493-.0413-.2192-.0492.1248.0252-.5966-.1291-1.1894-.2228-1.7773-.3984-.3929-.1174-.7776-.2556-1.1607-.4015-.3368-.1282-.0483-.0163.0166.0115q-.1944-.0831-.3859-.173c-.27-.1276-.5372-.2592-.8-.4006a13.0081,13.0081,0,0,1-2.9245-2.0844c-3.0545-2.8562-4.6409-6.7684-5.5-10.7906-.5224-2.4452-4.2707-1.41-3.7486,1.0334,1.2329,5.77,4.0646,11.2828,9.1272,14.5579a15.1133,15.1133,0,0,0,7.0521,2.51l-.981-.2654,10.2626,4.3465c1.1627.4925,2.19,1.0669,3.4779.7546a20.4008,20.4008,0,0,0,5.5006-2.2559,12.6464,12.6464,0,0,0,5.6206-6.3613,10.2026,10.2026,0,0,0-.0223-6.366c-1.3874-5.033-4.1479-9.76-6.8255-14.2-1.8961-3.144-3.8914-6.243-6.0252-9.2322a2.027,2.027,0,0,0-2.1951-.8932l-18.3517,4.4557-29.087,7.0624-6.6714,1.62c-2.43.59-1.4009,4.34,1.0334,3.7485Z"/><path class="cls-7" d="M128.028,617.0533l18.9089-5.381c23.1683-8.133,22.5463-20.02,22.5463-20.02s-.6219-18.1428-6.8415-20.6453-10.5732,8.133-10.5732,8.133-9.9513-10.01-14.305,2.5025c-4.3537-6.2562-10.5733-5.6306-14.9269,3.128-4.9757-4.0665-8.5519-3.5972-10.8843-2.1114a6.8345,6.8345,0,0,0-2.9041,6.9577l1.8568,10.4169a5.6192,5.6192,0,0,1-2.9954,6.0078h0"/><path d="M128.5447,618.9276l16.88-4.8038c7.8474-2.2332,16.2182-6.1317,21.585-12.4865,2.3017-2.7255,4.445-6.3,4.4162-10.0007a54.1038,54.1038,0,0,0-.7408-7.4266c-.5643-3.8087-1.3844-7.8421-3.3421-11.2083a8.4075,8.4075,0,0,0-4.4361-3.963,7.3387,7.3387,0,0,0-6.6244,1.19,19.3032,19.3032,0,0,0-6.0887,8.3947l3.2487-.8577a15.51,15.51,0,0,0-6.7593-4.05,7.9467,7.9467,0,0,0-6.0218.6859c-2.4791,1.4431-3.8378,4.1221-4.7726,6.7239l3.5526-.4644c-2.17-3.0457-5.3212-5.5873-9.2781-5.0147-4.2858.62-7.18,4.5467-9.0055,8.1428l3.0528-.3934c-2.7723-2.2173-6.0791-4.152-9.7643-3.6626a8.5954,8.5954,0,0,0-6.9838,5.7632c-.7459,2.161-.3515,4.2863.0344,6.4513l1.1927,6.691c.395,2.2156.6844,4.494-1.7614,5.7241-2.2354,1.1243-.2693,4.4789,1.962,3.3567a7.6726,7.6726,0,0,0,3.8854-8.2215c-.2426-1.49-.53-2.9736-.795-4.46-.6288-3.5279-2.6229-8.881,1.5127-11.0246,2.5508-1.3222,5.7566.3616,7.9685,2.1307a1.9721,1.9721,0,0,0,3.0527-.3933c1.24-2.4436,3.1035-5.6657,6.0579-6.2514,2.2035-.4368,4.22,1.31,5.5124,3.1233a1.9735,1.9735,0,0,0,3.5526-.4643c.6391-1.7791,1.6138-3.8214,3.3723-4.606a3.7169,3.7169,0,0,1,1.59-.2565,6.4079,6.4079,0,0,1,1.8076.4018,13.8634,13.8634,0,0,1,3.18,1.8435c-.3551-.267.145.1186.2565.2114q.2271.1889.4475.3855c.1365.1225.2727.2458.4024.3755a1.9715,1.9715,0,0,0,3.2486-.8577c-.3488.8457.024-.036.1369-.2733q.3957-.8313.8542-1.6308a15.4784,15.4784,0,0,1,2.9585-3.8568,3.8612,3.8612,0,0,1,3.7326-1.1891,4.3921,4.3921,0,0,1,2.4167,2.3512c1.7014,2.9863,2.385,6.74,2.8953,10.1852a49.2852,49.2852,0,0,1,.6,6.3459c.0021.17-.0074.3386-.01.5085-.0015.1009-.0242.201-.0279.3016-.0118.3128.1211-.6045.0074-.0706-.0683.3207-.1227.6426-.2054.9605-.1046.4027-.2312.8-.3747,1.19-.0467.127-.32.78-.098.27q-.1737.3987-.3674.7881a18.7479,18.7479,0,0,1-1.9335,3.0291c-4.7952,5.843-12.3385,9.5893-19.4868,11.6235l-17.53,4.9885c-2.4021.6836-1.3811,4.4357,1.0334,3.7486Z"/></svg>