<svg width="200" height="200" viewBox="0 0 200 200" fill="none" xmlns="http://www.w3.org/2000/svg">
<rect x="0.5" y="0.5" width="199" height="199" fill="#FBFBF6" stroke="black"/>
<path d="M112.444 73.1111H87.5556V85.6667H93.7778V123.333H87.5556V135.889H112.444V123.333H106.222V85.6667H112.444V73.1111ZM56.4444 48H143.556C146.856 48 150.021 49.3228 152.355 51.6774C154.689 54.0321 156 57.2256 156 60.5556V148.444C156 151.774 154.689 154.968 152.355 157.323C150.021 159.677 146.856 161 143.556 161H56.4444C53.144 161 49.9787 159.677 47.6449 157.323C45.3111 154.968 44 151.774 44 148.444V60.5556C44 57.2256 45.3111 54.0321 47.6449 51.6774C49.9787 49.3228 53.144 48 56.4444 48Z" fill="#827062"/>
</svg>
