<svg id="svg" version="1.1" xmlns="http://www.w3.org/2000/svg" xmlns:xlink="http://www.w3.org/1999/xlink" width="400" height="400" viewBox="0, 0, 400,400"><g id="svgg"><path id="path0" d="M155.454 21.037 C 155.606 21.457,156.022 22.250,156.380 22.800 C 156.737 23.350,157.292 24.340,157.614 25.000 C 157.935 25.660,158.289 26.290,158.399 26.400 C 158.510 26.510,158.842 27.030,159.138 27.555 C 160.182 29.409,161.151 31.089,166.203 39.800 C 169.010 44.640,171.688 49.320,172.154 50.200 C 172.619 51.080,173.090 51.890,173.200 52.000 C 173.452 52.252,174.296 53.731,175.370 55.800 C 175.826 56.680,176.290 57.490,176.400 57.600 C 176.510 57.710,176.842 58.230,177.138 58.755 C 178.395 60.988,179.275 62.515,182.546 68.135 C 184.446 71.399,186.000 74.125,186.000 74.194 C 186.000 74.262,186.720 75.503,187.600 76.952 C 188.480 78.400,189.200 79.769,189.200 79.993 C 189.200 80.217,189.346 80.400,189.525 80.400 C 189.704 80.400,190.098 81.030,190.400 81.800 C 190.702 82.570,191.075 83.200,191.228 83.200 C 191.381 83.200,191.610 83.515,191.736 83.900 C 191.862 84.285,192.448 85.410,193.039 86.400 C 193.630 87.390,194.448 88.785,194.857 89.500 C 196.685 92.696,197.251 93.677,199.884 98.200 C 201.421 100.840,203.130 103.810,203.682 104.800 C 204.235 105.790,205.055 107.250,205.506 108.045 C 205.956 108.840,206.567 109.920,206.862 110.445 C 207.158 110.970,207.490 111.490,207.600 111.600 C 207.710 111.710,208.042 112.230,208.338 112.755 C 209.165 114.225,210.318 116.256,211.200 117.800 C 211.640 118.570,212.360 119.830,212.800 120.600 C 214.777 124.059,215.158 124.718,216.287 126.621 C 216.947 127.733,217.936 129.443,218.486 130.421 C 219.417 132.075,219.885 132.899,222.000 136.600 C 222.882 138.144,224.035 140.175,224.862 141.645 C 225.158 142.170,225.490 142.690,225.600 142.800 C 225.710 142.910,226.042 143.430,226.338 143.955 C 227.888 146.709,229.623 149.751,230.755 151.700 C 231.170 152.415,232.542 154.800,233.805 157.000 C 235.068 159.200,236.438 161.585,236.850 162.300 C 237.263 163.015,237.960 164.230,238.400 165.000 C 238.840 165.770,239.560 167.030,240.000 167.800 C 240.440 168.570,241.160 169.830,241.600 170.600 C 243.602 174.104,243.966 174.731,245.200 176.800 C 246.534 179.038,247.401 180.537,249.015 183.400 C 249.511 184.280,250.836 186.589,251.959 188.532 C 253.081 190.474,254.000 192.229,254.000 192.432 C 254.000 192.634,254.135 192.801,254.300 192.803 C 254.465 192.805,254.798 193.210,255.040 193.703 C 255.283 194.196,255.913 195.387,256.440 196.350 L 257.400 198.100 257.671 181.150 C 257.821 171.827,258.141 154.300,258.383 142.200 C 258.939 114.474,259.466 86.387,259.960 58.200 C 260.172 46.100,260.474 33.213,260.632 29.563 L 260.918 22.926 258.359 22.634 C 256.952 22.474,245.900 22.174,233.800 21.968 C 190.425 21.229,170.875 20.840,163.088 20.560 C 155.414 20.283,155.185 20.297,155.454 21.037 M142.764 200.100 C 142.745 200.155,142.557 210.280,142.347 222.600 C 142.137 234.920,141.800 254.090,141.597 265.200 C 141.394 276.310,141.051 295.210,140.835 307.200 C 140.618 319.190,140.318 331.703,140.166 335.006 C 139.859 341.703,139.864 341.718,142.500 342.153 C 143.325 342.289,144.631 342.510,145.401 342.644 C 148.378 343.162,148.800 344.324,148.800 352.000 C 148.800 360.787,148.558 361.200,143.406 361.200 L 140.083 361.200 139.807 367.100 C 139.655 370.345,139.501 374.710,139.465 376.800 L 139.400 380.600 196.900 380.701 C 230.047 380.760,254.400 380.653,254.400 380.449 C 254.400 380.254,253.786 379.626,253.035 379.054 C 252.284 378.481,251.424 377.784,251.125 377.506 C 250.826 377.228,249.415 376.020,247.990 374.822 C 244.622 371.990,233.624 361.062,230.800 357.741 C 229.590 356.318,228.240 354.739,227.800 354.230 C 227.360 353.722,226.550 352.719,226.000 352.000 C 225.450 351.281,224.730 350.373,224.400 349.980 C 222.963 348.273,222.533 347.721,221.614 346.400 C 221.077 345.630,220.531 344.910,220.399 344.800 C 219.840 344.334,211.600 332.329,211.600 331.982 C 211.600 331.772,211.420 331.600,211.200 331.600 C 210.980 331.600,210.800 331.330,210.800 331.000 C 210.800 330.670,210.620 330.400,210.400 330.400 C 210.180 330.400,210.000 330.212,210.000 329.982 C 210.000 329.752,209.100 328.230,208.000 326.600 C 206.900 324.970,206.000 323.525,206.000 323.390 C 206.000 323.255,205.460 322.359,204.800 321.400 C 204.140 320.441,203.600 319.541,203.600 319.400 C 203.600 319.259,203.060 318.359,202.400 317.400 C 201.740 316.441,201.200 315.566,201.200 315.456 C 201.200 315.346,199.895 312.948,198.300 310.127 C 196.705 307.306,194.952 304.098,194.405 302.999 C 193.858 301.900,193.314 300.910,193.195 300.800 C 193.076 300.690,191.998 298.620,190.800 296.200 C 189.602 293.780,188.516 291.710,188.387 291.600 C 188.258 291.490,187.061 289.150,185.726 286.400 C 181.614 277.931,177.192 268.755,175.605 265.400 C 174.772 263.640,173.271 260.490,172.270 258.400 C 167.958 249.400,164.800 242.689,164.800 242.528 C 164.800 241.761,148.510 209.178,144.389 201.700 C 143.610 200.287,142.935 199.623,142.764 200.100 " stroke="none" fill="#a3fbf3" fill-rule="evenodd"></path><path id="path1" d="M154.547 20.195 C 154.339 20.735,156.159 24.400,156.634 24.400 C 156.744 24.400,156.376 23.619,155.817 22.665 C 154.578 20.550,154.574 20.465,155.700 20.012 L 156.600 19.651 155.687 19.625 C 155.186 19.611,154.672 19.868,154.547 20.195 M158.433 20.145 C 158.525 20.224,167.150 20.374,177.600 20.478 C 188.050 20.582,193.720 20.541,190.200 20.388 C 183.427 20.092,158.150 19.899,158.433 20.145 M198.833 20.945 C 198.925 21.025,207.820 21.176,218.600 21.281 C 229.380 21.387,235.500 21.345,232.200 21.188 C 225.948 20.891,198.542 20.692,198.833 20.945 M250.781 21.896 C 257.958 21.983,260.655 22.146,260.911 22.507 C 261.166 22.866,261.216 22.837,261.097 22.400 C 260.958 21.887,259.481 21.798,250.967 21.789 L 241.000 21.778 250.781 21.896 M156.809 25.100 C 156.814 25.265,157.185 25.850,157.633 26.400 L 158.448 27.400 157.814 26.100 C 157.211 24.865,156.789 24.445,156.809 25.100 M260.893 33.800 C 260.841 38.860,260.721 47.230,260.626 52.400 L 260.453 61.800 260.826 54.800 C 261.031 50.950,261.151 42.580,261.093 36.200 C 260.988 24.624,260.987 24.619,260.893 33.800 M158.409 27.900 C 158.414 28.065,158.785 28.650,159.233 29.200 L 160.048 30.200 159.414 28.900 C 158.811 27.665,158.389 27.245,158.409 27.900 M160.009 30.700 C 160.014 30.865,160.385 31.450,160.833 32.000 L 161.648 33.000 161.014 31.700 C 160.411 30.465,159.989 30.045,160.009 30.700 M161.609 33.500 C 161.614 33.665,161.985 34.250,162.433 34.800 L 163.248 35.800 162.614 34.500 C 162.011 33.265,161.589 32.845,161.609 33.500 M163.218 36.200 C 163.218 36.420,163.570 37.050,164.000 37.600 C 164.430 38.150,164.782 38.420,164.782 38.200 C 164.782 37.980,164.430 37.350,164.000 36.800 C 163.570 36.250,163.218 35.980,163.218 36.200 M165.386 39.900 C 165.735 40.615,166.106 41.200,166.210 41.200 C 166.608 41.200,166.352 40.563,165.567 39.600 L 164.752 38.600 165.386 39.900 M166.760 42.200 C 167.434 43.505,167.988 44.228,167.985 43.800 C 167.983 43.580,167.614 42.950,167.164 42.400 C 166.621 41.736,166.485 41.669,166.760 42.200 M168.894 46.000 C 171.705 51.096,174.406 55.600,174.652 55.600 C 174.769 55.600,174.513 55.015,174.083 54.300 C 173.652 53.585,172.273 51.200,171.018 49.000 C 169.763 46.800,168.549 44.820,168.319 44.600 C 168.089 44.380,168.348 45.010,168.894 46.000 M174.809 56.300 C 174.814 56.465,175.185 57.050,175.633 57.600 L 176.448 58.600 175.814 57.300 C 175.211 56.065,174.789 55.645,174.809 56.300 M176.409 59.100 C 176.414 59.265,176.785 59.850,177.233 60.400 L 178.048 61.400 177.414 60.100 C 176.811 58.865,176.389 58.445,176.409 59.100 M178.009 61.900 C 178.014 62.065,178.385 62.650,178.833 63.200 L 179.648 64.200 179.014 62.900 C 178.411 61.665,177.989 61.245,178.009 61.900 M179.609 64.700 C 179.614 64.865,179.985 65.450,180.433 66.000 L 181.248 67.000 180.614 65.700 C 180.011 64.465,179.589 64.045,179.609 64.700 M181.786 68.300 C 182.135 69.015,182.506 69.600,182.610 69.600 C 183.008 69.600,182.752 68.963,181.967 68.000 L 181.152 67.000 181.786 68.300 M260.093 76.000 C 260.041 80.730,259.920 88.830,259.825 94.000 C 259.664 102.716,259.678 102.978,260.023 97.600 C 260.228 94.410,260.349 86.310,260.292 79.600 C 260.205 69.355,260.173 68.778,260.093 76.000 M183.671 71.600 C 184.219 72.590,185.057 74.075,185.533 74.900 C 187.452 78.221,188.157 79.462,188.883 80.800 C 189.301 81.570,190.011 82.650,190.461 83.200 L 191.279 84.200 190.489 82.800 C 190.055 82.030,188.664 79.600,187.399 77.400 C 186.133 75.200,184.744 72.770,184.311 72.000 C 183.878 71.230,183.334 70.420,183.100 70.200 C 182.866 69.980,183.123 70.610,183.671 71.600 M54.664 70.700 C 54.563 70.865,54.417 73.240,54.340 75.977 C 54.181 81.620,54.026 81.347,58.000 82.425 C 73.752 86.700,78.254 91.651,79.982 106.600 C 80.712 112.917,80.546 315.849,79.806 321.812 C 77.968 336.619,73.489 341.131,56.400 345.391 C 49.810 347.033,50.400 346.385,50.400 351.984 C 50.400 356.632,50.429 356.792,51.300 357.002 C 51.795 357.122,72.900 357.170,98.200 357.110 L 144.200 357.000 144.312 351.922 L 144.424 346.844 142.912 346.424 C 142.080 346.193,141.189 346.003,140.932 346.002 C 139.554 345.996,130.158 342.952,127.396 341.618 C 121.162 338.606,117.445 333.955,116.193 327.600 C 114.777 320.420,114.790 320.936,114.427 253.800 C 113.992 173.265,113.354 145.488,111.382 121.300 L 111.178 118.800 113.304 118.800 L 115.431 118.800 116.803 121.100 C 120.360 127.062,131.618 143.746,136.979 151.000 C 138.117 152.540,140.019 155.150,141.206 156.800 C 143.208 159.582,145.594 162.865,149.202 167.800 C 150.006 168.900,152.191 171.870,154.058 174.400 C 157.503 179.067,164.566 188.735,167.298 192.523 C 170.545 197.025,171.993 199.007,177.000 205.812 C 179.860 209.699,183.550 214.739,185.200 217.011 C 186.850 219.284,190.720 224.589,193.800 228.800 C 196.880 233.011,200.750 238.314,202.400 240.585 C 204.050 242.855,207.740 247.893,210.600 251.780 C 213.460 255.667,216.430 259.726,217.200 260.800 C 217.970 261.874,222.380 267.903,227.000 274.198 C 231.620 280.492,236.076 286.578,236.903 287.721 C 237.729 288.864,239.120 290.790,239.994 292.000 C 240.867 293.210,242.531 295.484,243.691 297.054 C 244.851 298.624,247.284 301.954,249.097 304.454 C 250.911 306.954,254.571 311.970,257.231 315.600 C 259.891 319.230,263.254 323.820,264.704 325.800 C 268.262 330.658,270.710 333.994,271.603 335.200 C 274.397 338.972,282.551 350.162,285.230 353.900 L 288.455 358.400 304.833 358.400 L 321.211 358.400 321.040 317.700 C 320.668 229.311,321.289 106.973,322.131 102.867 C 324.749 90.091,329.432 85.821,345.000 82.011 C 346.980 81.526,349.185 80.952,349.900 80.734 L 351.200 80.338 351.200 75.369 L 351.200 70.400 312.057 70.400 L 272.915 70.400 272.634 76.906 C 272.297 84.714,272.148 84.270,275.672 85.974 C 280.545 88.328,284.358 93.046,285.391 98.000 C 286.790 104.702,286.805 105.229,287.170 160.000 C 287.605 225.243,288.457 259.400,290.254 283.700 L 290.483 286.800 288.706 286.800 C 287.243 286.800,286.855 286.638,286.512 285.887 C 283.926 280.211,270.857 260.376,259.600 245.043 C 257.950 242.795,254.980 238.741,253.000 236.033 C 251.020 233.326,247.240 228.178,244.600 224.594 C 241.960 221.010,238.450 216.230,236.800 213.971 C 235.150 211.712,231.910 207.303,229.600 204.174 C 227.290 201.044,223.704 196.170,221.631 193.342 C 217.050 187.091,214.774 183.998,210.345 178.000 C 208.477 175.470,205.445 171.330,203.608 168.800 C 201.771 166.270,198.799 162.220,197.003 159.800 C 195.206 157.380,191.962 152.970,189.792 150.000 C 187.623 147.030,184.383 142.620,182.592 140.200 C 180.801 137.780,178.000 133.975,176.368 131.743 C 168.746 121.326,166.859 118.754,164.374 115.400 C 162.908 113.420,159.204 108.380,156.145 104.200 C 153.086 100.020,148.876 94.281,146.791 91.447 C 144.706 88.613,141.380 84.092,139.400 81.401 C 137.420 78.710,134.810 75.141,133.600 73.469 L 131.400 70.428 93.124 70.414 C 72.072 70.406,54.765 70.535,54.664 70.700 M191.369 84.800 C 191.496 85.130,191.711 85.715,191.846 86.100 C 191.982 86.485,192.259 86.800,192.461 86.800 C 192.824 86.800,192.475 86.006,191.583 84.800 C 191.188 84.267,191.165 84.267,191.369 84.800 M192.809 87.500 C 192.814 87.665,193.185 88.250,193.633 88.800 L 194.448 89.800 193.814 88.500 C 193.211 87.265,192.789 86.845,192.809 87.500 M194.409 90.300 C 194.414 90.465,194.785 91.050,195.233 91.600 L 196.048 92.600 195.414 91.300 C 194.811 90.065,194.389 89.645,194.409 90.300 M196.000 92.899 C 196.000 93.297,198.810 98.000,199.049 98.000 C 199.164 98.000,198.678 96.965,197.969 95.700 C 196.664 93.372,196.000 92.427,196.000 92.899 M199.764 99.499 C 200.124 100.213,200.980 101.743,201.665 102.899 C 202.351 104.054,203.247 105.585,203.656 106.300 C 204.065 107.015,204.735 108.185,205.143 108.900 C 205.552 109.615,206.370 111.010,206.961 112.000 C 207.552 112.990,208.138 114.115,208.264 114.500 C 208.390 114.885,208.667 115.200,208.879 115.200 C 209.092 115.200,208.913 114.615,208.483 113.900 C 208.052 113.185,206.664 110.800,205.399 108.600 C 204.133 106.400,202.760 104.015,202.349 103.300 C 201.937 102.585,201.223 101.325,200.762 100.500 C 199.689 98.578,198.900 97.787,199.764 99.499 M259.293 118.200 C 259.241 122.600,259.120 130.430,259.024 135.600 C 258.865 144.207,258.882 144.528,259.225 139.400 C 259.432 136.320,259.553 128.490,259.494 122.000 C 259.410 112.654,259.368 111.864,259.293 118.200 M209.215 115.800 C 209.217 116.020,209.586 116.650,210.036 117.200 C 210.579 117.864,210.715 117.931,210.440 117.400 C 209.766 116.095,209.212 115.372,209.215 115.800 M210.800 118.499 C 210.800 118.897,213.610 123.600,213.849 123.600 C 213.964 123.600,213.478 122.565,212.769 121.300 C 211.464 118.972,210.800 118.027,210.800 118.499 M214.612 125.200 C 214.999 125.970,216.574 128.760,218.113 131.400 C 219.651 134.040,221.262 136.830,221.693 137.600 C 222.123 138.370,222.666 139.180,222.900 139.400 C 223.375 139.847,222.773 138.743,217.997 130.400 C 214.812 124.835,213.134 122.257,214.612 125.200 M224.809 143.100 C 224.814 143.265,225.185 143.850,225.633 144.400 L 226.448 145.400 225.814 144.100 C 225.211 142.865,224.789 142.445,224.809 143.100 M228.586 149.500 C 228.935 150.215,229.306 150.800,229.410 150.800 C 229.808 150.800,229.552 150.163,228.767 149.200 L 227.952 148.200 228.586 149.500 M229.693 151.400 C 230.988 153.868,238.969 167.499,239.295 167.800 C 239.533 168.020,239.360 167.570,238.911 166.800 C 238.462 166.030,236.350 162.340,234.218 158.600 C 232.086 154.860,230.149 151.620,229.912 151.400 C 229.626 151.133,229.553 151.133,229.693 151.400 M258.493 160.235 C 258.442 163.774,258.321 171.334,258.225 177.035 C 258.070 186.238,258.093 186.750,258.424 181.600 C 258.629 178.410,258.749 170.850,258.692 164.800 C 258.630 158.342,258.548 156.457,258.493 160.235 M239.609 168.700 C 239.614 168.865,239.985 169.450,240.433 170.000 L 241.248 171.000 240.614 169.700 C 240.011 168.465,239.589 168.045,239.609 168.700 M242.809 174.300 C 242.814 174.465,243.185 175.050,243.633 175.600 L 244.448 176.600 243.814 175.300 C 243.211 174.065,242.789 173.645,242.809 174.300 M246.586 180.700 C 246.935 181.415,247.306 182.000,247.410 182.000 C 247.808 182.000,247.552 181.363,246.767 180.400 L 245.952 179.400 246.586 180.700 M248.186 183.500 C 248.535 184.215,248.906 184.800,249.010 184.800 C 249.408 184.800,249.152 184.163,248.367 183.200 L 247.552 182.200 248.186 183.500 M249.886 186.400 C 250.334 187.170,251.727 189.600,252.982 191.800 C 254.237 194.000,255.458 195.980,255.696 196.200 C 255.933 196.420,255.762 195.970,255.314 195.200 C 254.866 194.430,253.473 192.000,252.218 189.800 C 250.963 187.600,249.742 185.620,249.504 185.400 C 249.267 185.180,249.438 185.630,249.886 186.400 M256.012 197.000 C 256.027 197.985,257.540 199.422,257.813 198.711 C 257.957 198.334,257.983 197.795,257.869 197.513 C 257.756 197.231,257.648 197.450,257.629 198.000 L 257.595 199.000 256.800 197.800 C 256.363 197.140,256.008 196.780,256.012 197.000 M142.263 197.870 C 142.118 198.015,142.037 200.578,142.082 203.567 L 142.164 209.000 142.382 203.600 L 142.600 198.200 143.700 199.793 C 144.927 201.570,145.107 201.537,144.192 199.704 C 143.489 198.295,142.643 197.491,142.263 197.870 M146.593 205.000 C 147.641 206.980,148.677 208.780,148.897 209.000 C 149.117 209.220,148.452 207.780,147.421 205.800 C 146.389 203.820,145.352 202.020,145.117 201.800 C 144.881 201.580,145.546 203.020,146.593 205.000 M149.270 209.823 C 149.578 210.824,152.946 217.187,153.091 217.042 C 153.179 216.954,152.527 215.469,151.642 213.741 C 150.123 210.773,148.982 208.889,149.270 209.823 M141.500 225.764 C 141.335 229.484,141.229 237.134,141.264 242.764 L 141.327 253.000 141.665 238.400 C 142.043 222.063,141.957 215.458,141.500 225.764 M158.020 227.500 C 158.052 227.971,161.957 235.439,161.980 235.073 C 161.991 234.894,161.180 233.049,160.177 230.973 C 158.524 227.552,157.963 226.648,158.020 227.500 M162.111 235.900 C 162.615 236.858,165.798 243.614,166.277 244.743 C 166.590 245.482,166.931 246.002,167.034 245.900 C 167.242 245.692,162.453 235.600,162.146 235.600 C 162.040 235.600,162.024 235.735,162.111 235.900 M168.034 248.200 C 168.034 248.420,168.378 249.230,168.800 250.000 C 169.222 250.770,169.566 251.220,169.566 251.000 C 169.566 250.780,169.222 249.970,168.800 249.200 C 168.378 248.430,168.034 247.980,168.034 248.200 M170.417 253.500 C 170.439 253.901,171.962 256.670,171.983 256.349 C 172.011 255.935,170.805 253.200,170.595 253.200 C 170.488 253.200,170.408 253.335,170.417 253.500 M173.619 260.300 C 173.646 260.736,175.959 265.054,175.981 264.712 C 176.009 264.293,174.011 260.000,173.788 260.000 C 173.685 260.000,173.608 260.135,173.619 260.300 M140.701 268.000 C 140.537 271.190,140.431 279.020,140.465 285.400 L 140.528 297.000 140.865 281.400 C 141.233 264.337,141.168 258.945,140.701 268.000 M177.347 268.100 C 178.483 270.748,182.460 278.800,182.632 278.800 C 182.876 278.800,182.098 277.032,179.421 271.500 C 177.318 267.156,176.051 265.078,177.347 268.100 M186.011 285.710 C 185.994 286.208,188.835 291.699,189.016 291.517 C 189.106 291.427,188.470 290.014,187.601 288.376 C 186.732 286.739,186.016 285.539,186.011 285.710 M194.624 302.600 C 195.903 305.020,197.455 307.863,198.074 308.918 C 198.694 309.972,199.204 310.962,199.209 311.118 C 199.214 311.273,199.591 311.850,200.048 312.400 C 200.806 313.313,199.927 311.531,197.089 306.400 C 196.541 305.410,195.429 303.340,194.617 301.800 C 193.805 300.260,192.952 298.820,192.720 298.600 C 192.488 298.380,193.345 300.180,194.624 302.600 M139.900 310.364 C 139.735 313.754,139.629 321.764,139.664 328.164 L 139.728 339.800 140.065 323.600 C 140.434 305.907,140.369 300.729,139.900 310.364 M200.809 313.900 C 200.814 314.065,201.185 314.650,201.633 315.200 L 202.448 316.200 201.814 314.900 C 201.211 313.665,200.789 313.245,200.809 313.900 M202.418 316.600 C 202.418 316.820,202.770 317.450,203.200 318.000 C 203.630 318.550,203.982 318.820,203.982 318.600 C 203.982 318.380,203.630 317.750,203.200 317.200 C 202.770 316.650,202.418 316.380,202.418 316.600 M204.559 320.300 C 205.289 321.684,206.370 323.099,206.387 322.691 C 206.402 322.341,204.377 319.200,204.137 319.200 C 204.050 319.200,204.240 319.695,204.559 320.300 M207.015 324.300 C 208.356 326.385,208.800 326.977,208.800 326.680 C 208.800 326.296,206.755 323.200,206.501 323.200 C 206.395 323.200,206.626 323.695,207.015 324.300 M209.445 328.212 C 209.810 328.769,210.186 329.147,210.282 329.051 C 210.519 328.814,209.484 327.200,209.095 327.200 C 208.922 327.200,209.080 327.656,209.445 328.212 M211.403 331.200 C 211.992 332.302,215.238 336.800,215.444 336.800 C 215.713 336.800,215.361 336.229,213.468 333.600 C 211.769 331.238,210.859 330.181,211.403 331.200 M218.799 341.952 C 219.760 343.322,220.727 344.555,220.947 344.691 C 221.168 344.827,220.562 343.818,219.601 342.448 C 218.640 341.078,217.673 339.845,217.453 339.709 C 217.232 339.573,217.838 340.582,218.799 341.952 M142.400 342.779 C 142.730 343.004,143.525 343.191,144.167 343.194 C 145.704 343.202,145.384 342.970,143.400 342.638 C 142.254 342.446,141.970 342.486,142.400 342.779 M146.200 343.671 C 147.298 344.285,147.212 344.167,147.819 345.870 C 148.290 347.189,148.367 347.257,148.382 346.358 C 148.401 345.252,146.788 343.192,145.919 343.212 C 145.634 343.219,145.760 343.425,146.200 343.671 M223.251 347.900 C 233.010 360.332,243.274 370.875,253.100 378.562 C 254.475 379.638,255.600 380.671,255.600 380.859 C 255.600 381.047,229.410 381.200,197.400 381.200 L 139.200 381.200 139.200 371.233 C 139.200 364.826,139.346 361.194,139.610 361.063 C 139.835 360.952,139.790 360.907,139.510 360.963 C 139.113 361.044,139.000 363.314,139.000 371.233 L 139.000 381.400 197.200 381.495 C 256.919 381.592,257.550 381.576,255.600 380.035 C 250.652 376.126,249.090 374.842,246.657 372.684 C 242.402 368.911,236.640 363.067,230.987 356.791 C 228.922 354.498,223.100 347.277,222.368 346.100 C 222.060 345.605,221.655 345.200,221.469 345.200 C 221.283 345.200,222.085 346.415,223.251 347.900 M147.860 358.000 C 147.705 358.777,147.159 359.481,146.310 359.998 C 145.552 360.460,145.272 360.798,145.645 360.799 C 146.615 360.801,148.400 358.822,148.400 357.745 C 148.400 356.442,148.148 356.561,147.860 358.000 " stroke="none" fill="#4b4b4b" fill-rule="evenodd"></path><path id="path2" d="M92.800 6.532 C 92.800 6.825,93.295 7.296,93.900 7.579 C 94.505 7.862,95.313 8.252,95.695 8.447 C 96.077 8.641,96.752 8.800,97.195 8.800 C 97.638 8.800,98.000 8.980,98.000 9.200 C 98.000 9.420,98.360 9.600,98.800 9.600 C 99.240 9.600,99.600 9.780,99.600 10.000 C 99.600 10.220,99.960 10.400,100.400 10.400 C 100.840 10.400,101.200 10.580,101.200 10.800 C 101.200 11.020,101.549 11.200,101.976 11.200 C 102.403 11.200,102.864 11.380,103.000 11.600 C 103.136 11.820,103.687 12.000,104.224 12.000 C 104.761 12.000,105.200 12.180,105.200 12.400 C 105.200 12.620,105.560 12.800,106.000 12.800 C 106.440 12.800,106.800 12.980,106.800 13.200 C 106.800 13.420,107.160 13.600,107.600 13.600 C 108.040 13.600,108.400 13.780,108.400 14.000 C 108.400 14.220,108.850 14.400,109.400 14.400 C 109.950 14.400,110.400 14.580,110.400 14.800 C 110.400 15.020,110.760 15.200,111.200 15.200 C 111.640 15.200,112.000 15.380,112.000 15.600 C 112.000 15.820,112.360 16.000,112.800 16.000 C 113.240 16.000,113.600 16.180,113.600 16.400 C 113.600 16.620,113.949 16.800,114.376 16.800 C 114.803 16.800,115.264 16.980,115.400 17.200 C 115.536 17.420,116.087 17.600,116.624 17.600 C 117.161 17.600,117.600 17.780,117.600 18.000 C 117.600 18.220,117.960 18.400,118.400 18.400 C 118.840 18.400,119.200 18.580,119.200 18.800 C 119.200 19.020,119.560 19.200,120.000 19.200 C 120.440 19.200,120.800 19.341,120.800 19.513 C 120.800 19.685,121.655 20.074,122.700 20.378 C 123.745 20.682,124.690 21.047,124.800 21.188 C 125.052 21.512,128.678 23.200,129.121 23.200 C 129.302 23.200,130.383 23.650,131.523 24.200 C 132.663 24.750,133.867 25.200,134.198 25.200 C 134.529 25.200,134.800 25.380,134.800 25.600 C 134.800 25.820,135.340 26.000,136.000 26.000 C 136.660 26.000,137.200 26.180,137.200 26.400 C 137.200 26.620,137.560 26.800,138.000 26.800 C 138.440 26.800,138.800 26.980,138.800 27.200 C 138.800 27.420,139.160 27.600,139.600 27.600 C 140.040 27.600,140.400 27.780,140.400 28.000 C 140.400 28.220,140.760 28.400,141.200 28.400 C 141.640 28.400,142.000 28.580,142.000 28.800 C 142.000 29.020,142.373 29.200,142.829 29.200 C 143.925 29.200,145.606 31.202,146.271 33.300 C 146.393 33.685,146.652 34.000,146.847 34.000 C 147.041 34.000,147.200 34.360,147.200 34.800 C 147.200 35.240,147.380 35.600,147.600 35.600 C 147.820 35.600,148.000 35.836,148.000 36.125 C 148.000 36.413,148.360 37.036,148.800 37.508 C 149.240 37.980,149.600 38.644,149.600 38.983 C 149.600 39.322,149.780 39.600,150.000 39.600 C 150.220 39.600,150.400 39.870,150.400 40.200 C 150.400 40.530,150.580 40.800,150.800 40.800 C 151.020 40.800,151.200 41.120,151.200 41.512 C 151.200 41.903,151.560 42.483,152.000 42.800 C 152.440 43.117,152.800 43.697,152.800 44.088 C 152.800 44.480,152.980 44.800,153.200 44.800 C 153.420 44.800,153.600 45.160,153.600 45.600 C 153.600 46.040,153.780 46.400,154.000 46.400 C 154.220 46.400,154.400 46.636,154.400 46.925 C 154.400 47.213,154.760 47.836,155.200 48.308 C 155.640 48.780,156.000 49.444,156.000 49.783 C 156.000 50.122,156.180 50.400,156.400 50.400 C 156.620 50.400,156.800 50.760,156.800 51.200 C 156.800 51.640,156.948 52.000,157.129 52.000 C 157.310 52.000,158.134 53.350,158.961 55.000 C 159.787 56.650,160.629 58.000,160.832 58.000 C 161.034 58.000,161.200 58.360,161.200 58.800 C 161.200 59.240,161.380 59.600,161.600 59.600 C 161.820 59.600,162.000 59.960,162.000 60.400 C 162.000 60.840,162.180 61.200,162.400 61.200 C 162.620 61.200,162.800 61.436,162.800 61.725 C 162.800 62.013,163.160 62.636,163.600 63.108 C 164.040 63.580,164.400 64.244,164.400 64.583 C 164.400 64.922,164.580 65.200,164.800 65.200 C 165.020 65.200,165.200 65.478,165.200 65.817 C 165.200 66.156,165.560 66.820,166.000 67.292 C 166.440 67.764,166.800 68.387,166.800 68.675 C 166.800 68.964,166.980 69.200,167.200 69.200 C 167.420 69.200,167.600 69.560,167.600 70.000 C 167.600 70.440,167.780 70.800,168.000 70.800 C 168.220 70.800,168.400 71.036,168.400 71.325 C 168.400 71.613,168.725 72.198,169.122 72.625 C 169.520 73.051,170.103 73.985,170.420 74.700 C 170.736 75.415,171.131 76.000,171.298 76.000 C 171.464 76.000,171.600 76.320,171.600 76.712 C 171.600 77.103,171.960 77.683,172.400 78.000 C 172.840 78.317,173.200 78.897,173.200 79.288 C 173.200 79.680,173.380 80.000,173.600 80.000 C 173.820 80.000,174.000 80.360,174.000 80.800 C 174.000 81.240,174.180 81.600,174.400 81.600 C 174.620 81.600,174.800 81.949,174.800 82.376 C 174.800 82.803,174.975 83.261,175.189 83.393 C 175.403 83.526,175.886 84.301,176.263 85.117 C 176.639 85.933,177.454 87.352,178.073 88.272 C 178.693 89.192,179.200 90.137,179.200 90.372 C 179.200 90.607,179.380 90.800,179.600 90.800 C 179.820 90.800,180.000 91.078,180.000 91.417 C 180.000 91.756,180.360 92.420,180.800 92.892 C 181.240 93.364,181.600 93.987,181.600 94.275 C 181.600 94.564,181.780 94.800,182.000 94.800 C 182.220 94.800,182.400 95.160,182.400 95.600 C 182.400 96.040,182.580 96.400,182.800 96.400 C 183.020 96.400,183.200 96.720,183.200 97.112 C 183.200 97.503,183.560 98.083,184.000 98.400 C 184.440 98.717,184.800 99.297,184.800 99.688 C 184.800 100.080,184.980 100.400,185.200 100.400 C 185.420 100.400,185.600 100.760,185.600 101.200 C 185.600 101.640,185.780 102.000,186.000 102.000 C 186.220 102.000,186.400 102.236,186.400 102.525 C 186.400 102.813,186.760 103.436,187.200 103.908 C 187.640 104.380,188.000 105.044,188.000 105.383 C 188.000 105.722,188.180 106.000,188.400 106.000 C 188.620 106.000,188.800 106.270,188.800 106.600 C 188.800 106.930,188.980 107.200,189.200 107.200 C 189.420 107.200,189.600 107.520,189.600 107.912 C 189.600 108.303,189.960 108.883,190.400 109.200 C 190.840 109.517,191.200 109.946,191.200 110.154 C 191.200 110.834,192.546 113.600,192.877 113.600 C 193.055 113.600,193.200 113.960,193.200 114.400 C 193.200 114.840,193.380 115.200,193.600 115.200 C 193.820 115.200,194.000 115.560,194.000 116.000 C 194.000 116.440,194.180 116.800,194.400 116.800 C 194.620 116.800,194.800 117.036,194.800 117.325 C 194.800 117.613,195.160 118.236,195.600 118.708 C 196.040 119.180,196.400 119.844,196.400 120.183 C 196.400 120.522,196.536 120.800,196.702 120.800 C 196.869 120.800,197.264 121.385,197.580 122.100 C 197.897 122.815,198.480 123.749,198.878 124.175 C 199.275 124.602,199.600 125.187,199.600 125.475 C 199.600 125.764,199.780 126.000,200.000 126.000 C 200.220 126.000,200.400 126.360,200.400 126.800 C 200.400 127.240,200.580 127.600,200.800 127.600 C 201.020 127.600,201.200 127.836,201.200 128.125 C 201.200 128.413,201.560 129.036,202.000 129.508 C 202.440 129.980,202.800 130.644,202.800 130.983 C 202.800 131.322,202.980 131.600,203.200 131.600 C 203.420 131.600,203.600 131.878,203.600 132.217 C 203.600 132.556,203.960 133.220,204.400 133.692 C 204.840 134.164,205.200 134.787,205.200 135.075 C 205.200 135.364,205.380 135.600,205.600 135.600 C 205.820 135.600,206.000 135.960,206.000 136.400 C 206.000 136.840,206.135 137.201,206.300 137.203 C 206.465 137.205,206.798 137.610,207.040 138.103 C 208.291 140.655,210.579 144.616,210.869 144.733 C 211.051 144.807,211.200 145.212,211.200 145.633 C 211.200 146.055,211.380 146.400,211.600 146.400 C 211.820 146.400,212.000 146.760,212.000 147.200 C 212.000 147.640,212.158 148.000,212.351 148.000 C 212.545 148.000,212.927 148.540,213.200 149.200 C 213.473 149.860,213.855 150.400,214.049 150.400 C 214.242 150.400,214.400 150.760,214.400 151.200 C 214.400 151.640,214.559 152.000,214.753 152.000 C 214.948 152.000,215.207 152.315,215.329 152.700 C 215.546 153.387,216.805 155.606,217.201 156.000 C 217.311 156.110,217.671 156.740,218.001 157.400 C 218.330 158.060,218.915 158.949,219.300 159.375 C 219.685 159.802,220.000 160.387,220.000 160.675 C 220.000 160.964,220.180 161.200,220.400 161.200 C 220.620 161.200,220.800 161.560,220.800 162.000 C 220.800 162.440,220.980 162.800,221.200 162.800 C 221.420 162.800,221.600 163.120,221.600 163.512 C 221.600 163.903,221.960 164.483,222.400 164.800 C 222.840 165.117,223.200 165.697,223.200 166.088 C 223.200 166.480,223.380 166.800,223.600 166.800 C 223.820 166.800,224.000 167.145,224.000 167.567 C 224.000 167.988,224.135 168.393,224.300 168.467 C 224.465 168.540,224.959 169.320,225.398 170.200 C 226.543 172.494,228.548 175.777,228.900 175.933 C 229.065 176.007,229.200 176.412,229.200 176.833 C 229.200 177.255,229.380 177.600,229.600 177.600 C 229.820 177.600,230.000 177.878,230.000 178.217 C 230.000 178.556,230.360 179.220,230.800 179.692 C 231.240 180.164,231.600 180.787,231.600 181.075 C 231.600 181.364,231.780 181.600,232.000 181.600 C 232.220 181.600,232.400 181.960,232.400 182.400 C 232.400 182.840,232.580 183.200,232.800 183.200 C 233.020 183.200,233.200 183.436,233.200 183.725 C 233.200 184.013,233.560 184.636,234.000 185.108 C 234.440 185.580,234.800 186.244,234.800 186.583 C 234.800 186.922,234.980 187.200,235.200 187.200 C 235.420 187.200,235.600 187.560,235.600 188.000 C 235.600 188.440,235.780 188.800,236.000 188.800 C 236.220 188.800,236.400 189.070,236.400 189.400 C 236.400 189.730,236.580 190.000,236.800 190.000 C 237.020 190.000,237.200 190.270,237.200 190.600 C 237.200 190.930,237.380 191.200,237.600 191.200 C 237.820 191.200,238.000 191.470,238.000 191.800 C 238.000 192.130,238.180 192.400,238.400 192.400 C 238.620 192.400,238.800 192.760,238.800 193.200 C 238.800 193.640,238.980 194.000,239.200 194.000 C 239.420 194.000,239.600 194.236,239.600 194.525 C 239.600 194.813,239.960 195.436,240.400 195.908 C 240.840 196.380,241.200 197.044,241.200 197.383 C 241.200 197.722,241.380 198.000,241.600 198.000 C 241.820 198.000,242.000 198.347,242.000 198.771 C 242.000 199.196,242.270 199.813,242.600 200.143 C 242.930 200.473,243.200 201.011,243.200 201.338 C 243.200 201.665,243.335 201.993,243.500 202.067 C 243.665 202.140,244.233 203.055,244.763 204.100 C 245.292 205.145,245.844 206.000,245.988 206.000 C 246.133 206.000,246.498 206.630,246.800 207.400 C 247.102 208.170,247.496 208.800,247.675 208.800 C 247.854 208.800,248.000 209.036,248.000 209.325 C 248.000 209.613,248.360 210.236,248.800 210.708 C 249.240 211.180,249.600 211.844,249.600 212.183 C 249.600 212.522,249.780 212.800,250.000 212.800 C 250.220 212.800,250.400 213.160,250.400 213.600 C 250.400 214.040,250.580 214.400,250.800 214.400 C 251.020 214.400,251.200 214.636,251.200 214.925 C 251.200 215.213,251.560 215.836,252.000 216.308 C 252.440 216.780,252.800 217.444,252.800 217.783 C 252.800 218.122,252.980 218.400,253.200 218.400 C 253.420 218.400,253.600 218.678,253.600 219.017 C 253.600 219.356,253.960 220.020,254.400 220.492 C 254.840 220.964,255.200 221.587,255.200 221.875 C 255.200 222.164,255.336 222.400,255.502 222.400 C 255.669 222.400,256.060 222.985,256.372 223.700 C 256.684 224.415,257.268 225.291,257.670 225.647 C 258.071 226.003,258.400 226.504,258.400 226.760 C 258.400 227.419,260.430 231.373,260.851 231.533 C 261.043 231.607,261.200 231.997,261.200 232.400 C 261.200 232.803,261.335 233.193,261.500 233.267 C 261.876 233.434,263.175 235.564,263.471 236.500 C 263.593 236.885,263.852 237.200,264.047 237.200 C 264.241 237.200,264.400 237.560,264.400 238.000 C 264.400 238.440,264.580 238.800,264.800 238.800 C 265.020 238.800,265.200 239.070,265.200 239.400 C 265.200 239.730,265.380 240.000,265.600 240.000 C 265.820 240.000,266.000 240.270,266.000 240.600 C 266.000 240.930,266.180 241.200,266.400 241.200 C 266.620 241.200,266.800 241.470,266.800 241.800 C 266.800 242.130,266.980 242.400,267.200 242.400 C 267.420 242.400,267.600 242.683,267.600 243.029 C 267.600 243.837,268.563 244.800,269.371 244.800 C 269.907 244.800,270.000 244.104,270.000 240.080 C 270.000 237.484,270.177 235.183,270.393 234.967 C 270.634 234.726,270.864 226.709,270.989 214.187 C 271.102 202.974,271.375 184.350,271.597 172.800 C 273.374 80.347,273.079 90.400,274.013 90.400 C 274.446 90.400,274.800 90.568,274.800 90.773 C 274.800 90.978,275.190 91.270,275.666 91.421 C 276.743 91.763,278.400 93.383,278.400 94.094 C 278.400 94.385,278.760 94.883,279.200 95.200 C 279.670 95.539,280.000 96.235,280.000 96.888 C 280.000 97.500,280.180 98.000,280.400 98.000 C 280.620 98.000,280.800 98.720,280.800 99.600 C 280.800 100.480,280.980 101.200,281.200 101.200 C 281.431 101.200,281.600 102.467,281.600 104.200 C 281.600 105.933,281.769 107.200,282.000 107.200 C 282.264 107.200,282.400 123.400,282.400 155.000 C 282.400 186.600,282.536 202.800,282.800 202.800 C 283.061 202.800,283.200 208.992,283.200 220.576 C 283.200 231.996,283.343 238.441,283.600 238.600 C 283.852 238.756,284.000 243.137,284.000 250.424 C 284.000 257.875,284.143 262.000,284.400 262.000 C 284.648 262.000,284.800 264.133,284.800 267.600 C 284.800 271.067,284.648 273.200,284.400 273.200 C 284.180 273.200,284.000 272.840,284.000 272.400 C 284.000 271.960,283.820 271.600,283.600 271.600 C 283.380 271.600,283.200 271.280,283.200 270.888 C 283.200 270.497,282.840 269.917,282.400 269.600 C 281.960 269.283,281.600 268.743,281.600 268.400 C 281.600 268.057,281.240 267.517,280.800 267.200 C 280.360 266.883,280.000 266.343,280.000 266.000 C 280.000 265.657,279.640 265.117,279.200 264.800 C 278.760 264.483,278.400 263.943,278.400 263.600 C 278.400 263.257,278.040 262.717,277.600 262.400 C 277.160 262.083,276.800 261.569,276.800 261.259 C 276.800 260.948,276.466 260.403,276.057 260.047 C 275.649 259.691,275.187 258.995,275.030 258.500 C 274.874 258.005,274.578 257.600,274.373 257.600 C 274.168 257.600,274.000 257.375,273.999 257.100 C 273.999 256.825,273.459 255.970,272.800 255.200 C 272.141 254.430,271.601 253.615,271.601 253.388 C 271.600 253.162,271.240 252.717,270.800 252.400 C 270.360 252.083,270.000 251.543,270.000 251.200 C 270.000 250.857,269.640 250.317,269.200 250.000 C 268.760 249.683,268.400 249.220,268.400 248.971 C 268.400 248.722,267.860 247.954,267.200 247.263 C 266.540 246.572,266.000 245.808,266.000 245.564 C 266.000 245.320,265.460 244.617,264.800 244.000 C 264.140 243.383,263.600 242.721,263.600 242.528 C 263.600 242.335,263.240 241.917,262.800 241.600 C 262.360 241.283,262.000 240.775,262.000 240.472 C 262.000 240.169,261.460 239.417,260.800 238.800 C 260.140 238.183,259.600 237.473,259.600 237.221 C 259.600 236.970,259.150 236.314,258.600 235.764 C 258.050 235.214,257.600 234.529,257.600 234.241 C 257.600 233.954,257.060 233.154,256.400 232.463 C 255.740 231.772,255.200 230.975,255.200 230.692 C 255.200 230.409,254.840 229.917,254.400 229.600 C 253.960 229.283,253.600 228.793,253.600 228.512 C 253.600 228.230,253.420 228.000,253.200 228.000 C 252.980 228.000,252.800 227.770,252.800 227.488 C 252.800 227.207,252.440 226.717,252.000 226.400 C 251.560 226.083,251.200 225.665,251.200 225.472 C 251.200 225.279,250.660 224.617,250.000 224.000 C 249.340 223.383,248.800 222.663,248.800 222.400 C 248.800 222.137,248.260 221.417,247.600 220.800 C 246.940 220.183,246.400 219.431,246.400 219.128 C 246.400 218.825,246.040 218.317,245.600 218.000 C 245.160 217.683,244.800 217.220,244.800 216.971 C 244.800 216.722,244.260 215.954,243.600 215.263 C 242.940 214.572,242.400 213.818,242.400 213.586 C 242.400 213.355,241.950 212.680,241.400 212.087 C 240.850 211.493,240.400 210.797,240.400 210.540 C 240.400 210.282,239.860 209.617,239.200 209.061 C 238.540 208.506,238.000 207.842,238.000 207.586 C 238.000 207.330,237.460 206.617,236.800 206.000 C 236.140 205.383,235.600 204.631,235.600 204.328 C 235.600 204.025,235.240 203.517,234.800 203.200 C 234.360 202.883,234.000 202.375,234.000 202.072 C 234.000 201.769,233.460 201.017,232.800 200.400 C 232.140 199.783,231.600 199.063,231.600 198.800 C 231.600 198.537,231.060 197.817,230.400 197.200 C 229.740 196.583,229.200 195.863,229.200 195.600 C 229.200 195.337,228.660 194.617,228.000 194.000 C 227.340 193.383,226.800 192.721,226.800 192.528 C 226.800 192.335,226.440 191.917,226.000 191.600 C 225.560 191.283,225.200 190.746,225.200 190.408 C 225.200 190.069,224.750 189.307,224.200 188.713 C 223.650 188.120,223.200 187.474,223.200 187.277 C 223.200 187.080,222.660 186.354,222.000 185.663 C 221.340 184.972,220.800 184.208,220.800 183.964 C 220.800 183.720,220.260 183.017,219.600 182.400 C 218.940 181.783,218.400 181.031,218.400 180.728 C 218.400 180.425,218.040 179.917,217.600 179.600 C 217.160 179.283,216.800 178.793,216.800 178.512 C 216.800 178.230,216.620 178.000,216.400 178.000 C 216.180 178.000,216.000 177.770,216.000 177.488 C 216.000 177.207,215.640 176.717,215.200 176.400 C 214.760 176.083,214.400 175.665,214.400 175.472 C 214.400 175.279,213.860 174.617,213.200 174.000 C 212.540 173.383,212.000 172.663,212.000 172.400 C 212.000 172.137,211.460 171.417,210.800 170.800 C 210.140 170.183,209.600 169.457,209.600 169.186 C 209.600 168.916,209.268 168.403,208.862 168.047 C 208.456 167.691,207.806 166.725,207.416 165.900 C 207.027 165.075,206.549 164.400,206.354 164.400 C 206.159 164.400,206.000 164.157,206.000 163.859 C 206.000 163.562,205.460 162.754,204.800 162.063 C 204.140 161.372,203.600 160.642,203.600 160.439 C 203.600 160.237,203.060 159.617,202.400 159.061 C 201.740 158.506,201.200 157.842,201.200 157.586 C 201.200 157.330,200.660 156.617,200.000 156.000 C 199.340 155.383,198.800 154.631,198.800 154.328 C 198.800 154.025,198.440 153.517,198.000 153.200 C 197.560 152.883,197.200 152.375,197.200 152.072 C 197.200 151.769,196.660 151.017,196.000 150.400 C 195.340 149.783,194.800 149.063,194.800 148.800 C 194.800 148.537,194.260 147.817,193.600 147.200 C 192.940 146.583,192.400 145.873,192.400 145.622 C 192.400 145.371,191.950 144.680,191.400 144.087 C 190.850 143.493,190.400 142.863,190.400 142.686 C 190.400 142.509,189.950 141.914,189.400 141.364 C 188.850 140.814,188.400 140.200,188.400 140.000 C 188.400 139.800,187.950 139.186,187.400 138.636 C 186.850 138.086,186.400 137.430,186.400 137.179 C 186.400 136.927,185.860 136.217,185.200 135.600 C 184.540 134.983,184.000 134.263,184.000 134.000 C 184.000 133.737,183.460 133.017,182.800 132.400 C 182.140 131.783,181.600 131.080,181.600 130.836 C 181.600 130.592,181.060 129.828,180.400 129.137 C 179.740 128.446,179.200 127.678,179.200 127.429 C 179.200 127.180,178.840 126.717,178.400 126.400 C 177.960 126.083,177.600 125.665,177.600 125.472 C 177.600 125.279,177.060 124.617,176.400 124.000 C 175.740 123.383,175.200 122.634,175.200 122.335 C 175.200 122.036,174.750 121.307,174.200 120.713 C 173.650 120.120,173.200 119.429,173.200 119.178 C 173.200 118.927,172.660 118.217,172.000 117.600 C 171.340 116.983,170.800 116.231,170.800 115.928 C 170.800 115.625,170.440 115.117,170.000 114.800 C 169.560 114.483,169.200 114.020,169.200 113.771 C 169.200 113.522,168.660 112.754,168.000 112.063 C 167.340 111.372,166.800 110.642,166.800 110.439 C 166.800 110.237,166.260 109.617,165.600 109.061 C 164.940 108.506,164.400 107.842,164.400 107.586 C 164.400 107.330,163.860 106.617,163.200 106.000 C 162.540 105.383,162.000 104.631,162.000 104.328 C 162.000 104.025,161.640 103.517,161.200 103.200 C 160.760 102.883,160.400 102.391,160.400 102.108 C 160.400 101.825,159.860 101.028,159.200 100.337 C 158.540 99.646,158.000 98.881,158.000 98.637 C 158.000 98.392,157.550 97.707,157.000 97.113 C 156.450 96.520,156.000 95.874,156.000 95.677 C 156.000 95.480,155.460 94.754,154.800 94.063 C 154.140 93.372,153.600 92.707,153.600 92.585 C 153.600 92.463,153.150 91.914,152.600 91.364 C 152.050 90.814,151.600 90.200,151.600 90.000 C 151.600 89.800,151.150 89.186,150.600 88.636 C 150.050 88.086,149.600 87.430,149.600 87.179 C 149.600 86.927,149.060 86.217,148.400 85.600 C 147.740 84.983,147.200 84.263,147.200 84.000 C 147.200 83.737,146.660 83.017,146.000 82.400 C 145.340 81.783,144.800 81.063,144.800 80.800 C 144.800 80.537,144.260 79.817,143.600 79.200 C 142.940 78.583,142.400 77.791,142.400 77.440 C 142.400 77.088,142.259 76.800,142.086 76.800 C 141.914 76.800,141.431 76.215,141.015 75.500 C 140.598 74.785,139.929 73.909,139.528 73.553 C 139.128 73.197,138.800 72.684,138.800 72.414 C 138.800 72.143,138.260 71.417,137.600 70.800 C 136.940 70.183,136.400 69.475,136.400 69.226 C 136.400 68.977,135.776 68.149,135.013 67.387 L 133.627 66.000 93.000 66.000 L 52.373 66.000 50.987 67.387 C 50.224 68.149,49.600 69.039,49.600 69.363 C 49.600 69.687,49.420 70.064,49.200 70.200 C 48.964 70.346,48.800 72.737,48.800 76.024 C 48.800 79.475,48.952 81.600,49.200 81.600 C 49.420 81.600,49.600 81.960,49.600 82.400 C 49.600 82.840,49.780 83.200,50.000 83.200 C 50.220 83.200,50.400 83.483,50.400 83.829 C 50.400 84.773,51.414 85.600,52.571 85.600 C 53.137 85.600,53.600 85.780,53.600 86.000 C 53.600 86.220,54.140 86.400,54.800 86.400 C 55.460 86.400,56.000 86.580,56.000 86.800 C 56.000 87.020,56.619 87.200,57.376 87.200 C 58.133 87.200,58.864 87.380,59.000 87.600 C 59.136 87.820,59.676 88.000,60.200 88.000 C 60.724 88.000,61.264 88.180,61.400 88.400 C 61.536 88.620,62.087 88.800,62.624 88.800 C 63.161 88.800,63.600 88.980,63.600 89.200 C 63.600 89.420,63.835 89.600,64.121 89.600 C 66.114 89.600,72.400 94.300,72.400 95.789 C 72.400 96.125,72.580 96.400,72.800 96.400 C 73.020 96.400,73.200 96.760,73.200 97.200 C 73.200 97.640,73.380 98.000,73.600 98.000 C 73.820 98.000,74.000 98.525,74.000 99.167 C 74.000 99.808,74.166 100.393,74.368 100.467 C 76.515 101.244,76.529 326.384,74.382 327.133 C 74.172 327.207,74.000 327.702,74.000 328.233 C 74.000 328.765,73.820 329.200,73.600 329.200 C 73.380 329.200,73.200 329.560,73.200 330.000 C 73.200 330.440,73.020 330.800,72.800 330.800 C 72.580 330.800,72.400 331.074,72.400 331.409 C 72.400 332.201,68.201 336.400,67.409 336.400 C 67.074 336.400,66.800 336.580,66.800 336.800 C 66.800 337.020,66.440 337.200,66.000 337.200 C 65.560 337.200,65.200 337.380,65.200 337.600 C 65.200 337.820,64.840 338.000,64.400 338.000 C 63.960 338.000,63.600 338.180,63.600 338.400 C 63.600 338.620,63.060 338.800,62.400 338.800 C 61.740 338.800,61.200 338.980,61.200 339.200 C 61.200 339.420,60.750 339.600,60.200 339.600 C 59.650 339.600,59.200 339.780,59.200 340.000 C 59.200 340.220,58.660 340.400,58.000 340.400 C 57.340 340.400,56.800 340.580,56.800 340.800 C 56.800 341.020,56.323 341.200,55.740 341.200 C 51.410 341.200,46.400 343.229,46.400 344.982 C 46.400 345.322,46.220 345.600,46.000 345.600 C 45.751 345.600,45.600 347.933,45.600 351.800 C 45.600 355.667,45.751 358.000,46.000 358.000 C 46.220 358.000,46.400 358.278,46.400 358.618 C 46.400 359.418,48.182 361.200,48.982 361.200 C 49.322 361.200,49.600 361.380,49.600 361.600 C 49.600 361.864,62.600 362.000,87.800 362.000 L 126.000 362.000 126.000 370.200 C 126.000 377.222,125.914 378.400,125.400 378.400 C 125.070 378.400,124.800 378.580,124.800 378.800 C 124.800 379.020,124.260 379.200,123.600 379.200 C 122.940 379.200,122.400 379.380,122.400 379.600 C 122.400 379.820,121.961 380.000,121.424 380.000 C 120.887 380.000,120.336 380.180,120.200 380.400 C 120.064 380.620,119.603 380.800,119.176 380.800 C 118.749 380.800,118.400 380.980,118.400 381.200 C 118.400 381.420,117.860 381.600,117.200 381.600 C 116.540 381.600,116.000 381.780,116.000 382.000 C 116.000 382.220,115.561 382.400,115.024 382.400 C 114.487 382.400,113.936 382.580,113.800 382.800 C 113.664 383.020,113.203 383.200,112.776 383.200 C 112.349 383.200,112.000 383.380,112.000 383.600 C 112.000 383.820,111.561 384.000,111.024 384.000 C 110.487 384.000,109.936 384.180,109.800 384.400 C 109.664 384.620,109.113 384.800,108.576 384.800 C 108.039 384.800,107.600 384.980,107.600 385.200 C 107.600 385.420,107.240 385.600,106.800 385.600 C 106.360 385.600,106.000 385.780,106.000 386.000 C 106.000 386.220,105.460 386.400,104.800 386.400 C 104.140 386.400,103.600 386.580,103.600 386.800 C 103.600 387.020,103.060 387.200,102.400 387.200 C 101.740 387.200,101.200 387.380,101.200 387.600 C 101.200 387.820,100.840 388.000,100.400 388.000 C 99.960 388.000,99.600 388.180,99.600 388.400 C 99.600 388.620,99.060 388.800,98.400 388.800 C 97.740 388.800,97.200 388.980,97.200 389.200 C 97.200 389.420,96.761 389.600,96.224 389.600 C 95.687 389.600,95.136 389.780,95.000 390.000 C 94.864 390.220,94.481 390.400,94.148 390.400 C 93.173 390.400,92.400 391.449,92.400 392.771 L 92.400 394.000 200.000 394.000 L 307.600 394.000 307.600 392.771 C 307.600 391.281,306.802 390.400,305.452 390.400 C 304.899 390.400,304.336 390.220,304.200 390.000 C 304.064 389.780,303.333 389.600,302.576 389.600 C 301.819 389.600,301.200 389.420,301.200 389.200 C 301.200 388.980,300.660 388.800,300.000 388.800 C 299.340 388.800,298.800 388.620,298.800 388.400 C 298.800 388.180,298.260 388.000,297.600 388.000 C 296.940 388.000,296.400 387.820,296.400 387.600 C 296.400 387.380,296.051 387.200,295.624 387.200 C 295.197 387.200,294.736 387.020,294.600 386.800 C 294.464 386.580,293.913 386.400,293.376 386.400 C 292.839 386.400,292.400 386.220,292.400 386.000 C 292.400 385.780,292.051 385.600,291.624 385.600 C 291.197 385.600,290.736 385.420,290.600 385.200 C 290.464 384.980,290.003 384.800,289.576 384.800 C 289.149 384.800,288.800 384.620,288.800 384.400 C 288.800 384.180,288.440 384.000,288.000 384.000 C 287.560 384.000,287.200 383.820,287.200 383.600 C 287.200 383.380,286.966 383.200,286.680 383.200 C 285.944 383.200,284.007 382.259,284.003 381.900 C 284.001 381.735,283.640 381.600,283.200 381.600 C 282.760 381.600,282.400 381.420,282.400 381.200 C 282.400 380.980,282.040 380.800,281.600 380.800 C 281.160 380.800,280.800 380.620,280.800 380.400 C 280.800 380.180,280.440 380.000,280.000 380.000 C 279.560 380.000,279.200 379.820,279.200 379.600 C 279.200 379.380,278.840 379.200,278.400 379.200 C 277.960 379.200,277.600 379.020,277.600 378.800 C 277.600 378.580,277.364 378.400,277.075 378.400 C 276.787 378.400,276.193 378.085,275.755 377.700 C 275.317 377.315,274.608 376.804,274.180 376.564 C 273.751 376.324,272.536 375.648,271.479 375.060 C 270.423 374.473,269.174 373.635,268.704 373.196 C 268.234 372.758,267.653 372.400,267.413 372.400 C 267.173 372.400,266.717 372.040,266.400 371.600 C 266.083 371.160,265.593 370.800,265.312 370.800 C 265.031 370.800,264.059 370.080,263.152 369.200 C 262.245 368.320,261.331 367.600,261.120 367.600 C 260.910 367.600,260.046 366.880,259.200 366.000 C 258.354 365.120,257.568 364.400,257.453 364.400 C 256.897 364.400,241.200 349.003,241.200 348.458 C 241.200 348.273,240.829 347.690,240.375 347.161 C 239.922 346.633,238.887 345.412,238.075 344.450 C 237.264 343.487,236.015 342.098,235.300 341.363 C 234.585 340.628,234.000 339.823,234.000 339.574 C 234.000 339.325,233.460 338.617,232.800 338.000 C 232.140 337.383,231.600 336.708,231.600 336.499 C 231.600 336.290,231.060 335.554,230.400 334.863 C 229.740 334.172,229.200 333.424,229.200 333.200 C 229.200 332.976,228.660 332.228,228.000 331.537 C 227.340 330.846,226.800 330.078,226.800 329.829 C 226.800 329.580,226.440 329.117,226.000 328.800 C 225.560 328.483,225.200 327.981,225.200 327.685 C 225.200 327.137,223.246 324.310,222.700 324.067 C 222.535 323.993,222.400 323.628,222.400 323.255 C 222.400 322.882,222.040 322.317,221.600 322.000 C 221.160 321.683,220.800 321.103,220.800 320.712 C 220.800 320.320,220.642 320.000,220.449 320.000 C 220.255 320.000,219.873 319.460,219.600 318.800 C 219.327 318.140,218.945 317.600,218.751 317.600 C 218.558 317.600,218.400 317.280,218.400 316.888 C 218.400 316.497,218.040 315.917,217.600 315.600 C 217.160 315.283,216.800 314.703,216.800 314.312 C 216.800 313.920,216.620 313.600,216.400 313.600 C 216.180 313.600,216.000 313.364,216.000 313.075 C 216.000 312.787,215.640 312.164,215.200 311.692 C 214.760 311.220,214.400 310.556,214.400 310.217 C 214.400 309.878,214.220 309.600,214.000 309.600 C 213.780 309.600,213.600 309.330,213.600 309.000 C 213.600 308.670,213.420 308.400,213.200 308.400 C 212.980 308.400,212.800 308.164,212.800 307.875 C 212.800 307.587,212.440 306.964,212.000 306.492 C 211.560 306.020,211.200 305.356,211.200 305.017 C 211.200 304.678,211.020 304.400,210.800 304.400 C 210.580 304.400,210.400 304.040,210.400 303.600 C 210.400 303.160,210.220 302.800,210.000 302.800 C 209.780 302.800,209.600 302.440,209.600 302.000 C 209.600 301.560,209.450 301.200,209.268 301.200 C 209.085 301.200,208.741 300.795,208.503 300.300 C 208.266 299.805,207.389 297.960,206.554 296.200 C 205.719 294.440,204.938 292.910,204.818 292.800 C 204.430 292.444,203.157 290.220,202.929 289.500 C 202.807 289.115,202.548 288.800,202.353 288.800 C 202.159 288.800,202.000 288.440,202.000 288.000 C 202.000 287.560,201.820 287.200,201.600 287.200 C 201.380 287.200,201.200 286.840,201.200 286.400 C 201.200 285.960,201.020 285.600,200.800 285.600 C 200.580 285.600,200.400 285.240,200.400 284.800 C 200.400 284.360,200.220 284.000,200.000 284.000 C 199.780 284.000,199.600 283.640,199.600 283.200 C 199.600 282.760,199.420 282.400,199.200 282.400 C 198.980 282.400,198.800 282.040,198.800 281.600 C 198.800 281.160,198.620 280.800,198.400 280.800 C 198.180 280.800,198.000 280.440,198.000 280.000 C 198.000 279.560,197.820 279.200,197.600 279.200 C 197.380 279.200,197.200 278.840,197.200 278.400 C 197.200 277.960,197.020 277.600,196.800 277.600 C 196.580 277.600,196.400 277.240,196.400 276.800 C 196.400 276.360,196.220 276.000,196.000 276.000 C 195.780 276.000,195.600 275.730,195.600 275.400 C 195.600 275.070,195.420 274.800,195.200 274.800 C 194.980 274.800,194.800 274.440,194.800 274.000 C 194.800 273.560,194.620 273.200,194.400 273.200 C 194.180 273.200,194.000 272.840,194.000 272.400 C 194.000 271.960,193.820 271.600,193.600 271.600 C 193.380 271.600,193.200 271.328,193.200 270.995 C 193.200 270.662,193.020 270.032,192.800 269.595 C 192.580 269.158,192.220 268.442,192.000 268.005 C 191.780 267.568,191.600 267.035,191.600 266.820 C 191.600 266.228,187.882 258.619,187.518 258.467 C 187.343 258.393,187.200 257.988,187.200 257.567 C 187.200 257.145,187.020 256.800,186.800 256.800 C 186.580 256.800,186.400 256.440,186.400 256.000 C 186.400 255.560,186.220 255.200,186.000 255.200 C 185.780 255.200,185.600 254.928,185.600 254.595 C 185.600 254.262,185.443 253.677,185.250 253.295 C 183.752 250.320,183.200 249.047,183.200 248.562 C 183.200 248.253,183.020 248.000,182.800 248.000 C 182.580 248.000,182.400 247.640,182.400 247.200 C 182.400 246.760,182.220 246.400,182.000 246.400 C 181.780 246.400,181.600 246.040,181.600 245.600 C 181.600 245.160,181.420 244.800,181.200 244.800 C 180.980 244.800,180.800 244.440,180.800 244.000 C 180.800 243.560,180.620 243.200,180.400 243.200 C 180.180 243.200,180.000 242.930,180.000 242.600 C 180.000 242.270,179.820 242.000,179.600 242.000 C 179.380 242.000,179.200 241.640,179.200 241.200 C 179.200 240.760,179.020 240.400,178.800 240.400 C 178.580 240.400,178.400 239.961,178.400 239.424 C 178.400 238.887,178.220 238.336,178.000 238.200 C 177.780 238.064,177.600 237.603,177.600 237.176 C 177.600 236.749,177.420 236.400,177.200 236.400 C 176.980 236.400,176.800 236.040,176.800 235.600 C 176.800 235.160,176.620 234.800,176.400 234.800 C 176.180 234.800,176.000 234.440,176.000 234.000 C 176.000 233.560,175.820 233.200,175.600 233.200 C 175.380 233.200,175.200 232.928,175.200 232.595 C 175.200 231.847,172.362 225.850,171.921 225.667 C 171.744 225.593,171.600 225.188,171.600 224.767 C 171.600 224.345,171.420 224.000,171.200 224.000 C 170.980 224.000,170.800 223.640,170.800 223.200 C 170.800 222.760,170.620 222.400,170.400 222.400 C 170.180 222.400,170.000 222.108,170.000 221.751 C 170.000 220.985,165.982 212.661,165.518 212.467 C 165.343 212.393,165.200 211.988,165.200 211.567 C 165.200 211.145,165.020 210.800,164.800 210.800 C 164.580 210.800,164.400 210.455,164.400 210.033 C 164.400 209.612,164.265 209.207,164.100 209.133 C 163.724 208.966,162.425 206.836,162.129 205.900 C 162.007 205.515,161.748 205.200,161.553 205.200 C 161.359 205.200,161.200 204.840,161.200 204.400 C 161.200 203.960,161.020 203.600,160.800 203.600 C 160.580 203.600,160.400 203.240,160.400 202.800 C 160.400 202.360,160.220 202.000,160.000 202.000 C 159.780 202.000,159.600 201.640,159.600 201.200 C 159.600 200.760,159.420 200.400,159.200 200.400 C 158.980 200.400,158.800 200.040,158.800 199.600 C 158.800 199.160,158.620 198.800,158.400 198.800 C 158.180 198.800,158.000 198.513,158.000 198.162 C 158.000 197.559,156.871 195.233,156.368 194.800 C 156.240 194.690,155.881 194.015,155.570 193.300 C 155.259 192.585,154.869 192.000,154.702 192.000 C 154.536 192.000,154.400 191.640,154.400 191.200 C 154.400 190.760,154.220 190.400,154.000 190.400 C 153.780 190.400,153.600 190.164,153.600 189.875 C 153.600 189.587,153.240 188.964,152.800 188.492 C 152.360 188.020,152.000 187.356,152.000 187.017 C 152.000 186.678,151.820 186.400,151.600 186.400 C 151.380 186.400,151.200 186.080,151.200 185.688 C 151.200 185.297,150.840 184.717,150.400 184.400 C 149.960 184.083,149.600 183.503,149.600 183.112 C 149.600 182.720,149.420 182.400,149.200 182.400 C 148.980 182.400,148.800 182.164,148.800 181.875 C 148.800 181.587,148.440 180.964,148.000 180.492 C 147.560 180.020,147.200 179.438,147.200 179.200 C 147.200 178.962,146.840 178.380,146.400 177.908 C 145.960 177.436,145.600 176.813,145.600 176.525 C 145.600 176.236,145.420 176.000,145.200 176.000 C 144.980 176.000,144.800 175.770,144.800 175.488 C 144.800 175.207,144.440 174.717,144.000 174.400 C 143.560 174.083,143.200 173.543,143.200 173.200 C 143.200 172.857,142.840 172.317,142.400 172.000 C 141.960 171.683,141.600 171.201,141.600 170.929 C 141.600 170.349,139.980 167.783,138.814 166.514 C 138.366 166.027,138.000 165.469,138.000 165.274 C 138.000 165.078,137.460 164.354,136.800 163.663 C 136.140 162.972,135.600 162.252,135.600 162.063 C 135.600 161.874,135.060 161.154,134.400 160.463 C 133.740 159.772,133.200 159.107,133.200 158.985 C 133.200 158.496,131.196 156.800,130.618 156.800 C 130.082 156.800,129.999 157.824,129.994 164.500 C 129.990 169.619,129.858 171.999,129.600 171.600 C 129.347 171.208,129.210 178.230,129.206 191.820 C 129.202 204.922,129.054 212.786,128.807 213.033 C 128.560 213.280,128.406 221.187,128.393 234.313 C 128.380 247.195,128.227 255.200,127.993 255.200 C 127.762 255.200,127.534 263.267,127.408 275.900 C 126.867 330.140,126.774 335.600,126.392 335.600 C 126.177 335.600,126.000 335.420,126.000 335.200 C 126.000 334.980,125.807 334.800,125.571 334.800 C 125.014 334.800,124.339 334.069,123.632 332.700 C 123.320 332.095,122.915 331.600,122.732 331.600 C 122.550 331.600,122.400 331.240,122.400 330.800 C 122.400 330.360,122.220 330.000,122.000 330.000 C 121.780 330.000,121.600 329.561,121.600 329.024 C 121.600 328.487,121.420 327.936,121.200 327.800 C 120.980 327.664,120.800 326.933,120.800 326.176 C 120.800 325.419,120.620 324.800,120.400 324.800 C 120.163 324.800,120.000 323.333,120.000 321.200 C 120.000 319.067,119.837 317.600,119.600 317.600 C 119.335 317.600,119.200 298.200,119.200 260.200 C 119.200 222.200,119.065 202.800,118.800 202.800 C 118.538 202.800,118.400 195.400,118.400 181.400 C 118.400 167.400,118.262 160.000,118.000 160.000 C 117.743 160.000,117.600 156.067,117.600 149.000 C 117.600 141.933,117.457 138.000,117.200 138.000 C 116.963 138.000,116.800 136.533,116.800 134.400 C 116.800 132.420,116.903 130.800,117.029 130.800 C 117.466 130.800,118.400 131.946,118.400 132.483 C 118.400 132.780,118.760 133.283,119.200 133.600 C 119.640 133.917,120.000 134.457,120.000 134.800 C 120.000 135.143,120.360 135.683,120.800 136.000 C 121.240 136.317,121.600 136.857,121.600 137.200 C 121.600 137.543,121.960 138.083,122.400 138.400 C 122.840 138.717,123.200 139.231,123.200 139.541 C 123.200 139.852,123.534 140.397,123.943 140.753 C 124.351 141.109,124.813 141.805,124.970 142.300 C 125.126 142.795,125.422 143.200,125.627 143.200 C 125.832 143.200,126.000 143.443,126.000 143.741 C 126.000 144.038,126.540 144.846,127.200 145.537 C 127.860 146.228,128.400 147.025,128.400 147.308 C 128.400 147.591,128.760 148.083,129.200 148.400 C 129.640 148.717,130.000 149.225,130.000 149.528 C 130.000 149.831,130.540 150.583,131.200 151.200 C 131.860 151.817,132.400 152.569,132.400 152.872 C 132.400 153.175,132.760 153.683,133.200 154.000 C 133.640 154.317,134.000 154.780,134.000 155.029 C 134.000 155.278,134.540 156.046,135.200 156.737 C 135.860 157.428,136.400 158.102,136.400 158.236 C 136.400 158.370,136.940 158.983,137.600 159.600 C 138.260 160.217,138.800 160.969,138.800 161.272 C 138.800 161.575,139.160 162.083,139.600 162.400 C 140.040 162.717,140.400 163.215,140.400 163.506 C 140.400 163.798,140.850 164.486,141.400 165.036 C 141.950 165.586,142.400 166.271,142.400 166.559 C 142.400 166.846,142.940 167.646,143.600 168.337 C 144.260 169.028,144.800 169.825,144.800 170.108 C 144.800 170.391,145.160 170.883,145.600 171.200 C 146.040 171.517,146.400 171.973,146.400 172.213 C 146.400 172.454,146.940 173.168,147.600 173.800 C 148.260 174.432,148.800 175.114,148.800 175.314 C 148.800 175.515,149.340 176.183,150.000 176.800 C 150.660 177.417,151.200 178.169,151.200 178.472 C 151.200 178.775,151.560 179.283,152.000 179.600 C 152.440 179.917,152.800 180.425,152.800 180.728 C 152.800 181.031,153.340 181.783,154.000 182.400 C 154.660 183.017,155.200 183.737,155.200 184.000 C 155.200 184.263,155.740 184.983,156.400 185.600 C 157.060 186.217,157.600 186.927,157.600 187.178 C 157.600 187.429,158.050 188.120,158.600 188.713 C 159.150 189.307,159.600 190.017,159.600 190.293 C 159.600 190.568,159.960 191.018,160.400 191.293 C 160.840 191.568,161.200 192.037,161.200 192.336 C 161.200 192.635,161.740 193.383,162.400 194.000 C 163.060 194.617,163.600 195.337,163.600 195.600 C 163.600 195.863,164.140 196.583,164.800 197.200 C 165.460 197.817,166.000 198.569,166.000 198.872 C 166.000 199.175,166.360 199.683,166.800 200.000 C 167.240 200.317,167.600 200.780,167.600 201.029 C 167.600 201.278,168.140 202.046,168.800 202.737 C 169.460 203.428,170.000 204.192,170.000 204.436 C 170.000 204.680,170.540 205.383,171.200 206.000 C 171.860 206.617,172.400 207.247,172.400 207.400 C 172.400 207.553,172.940 208.183,173.600 208.800 C 174.260 209.417,174.800 210.181,174.800 210.499 C 174.800 210.817,175.160 211.493,175.600 212.000 C 176.040 212.507,176.400 213.067,176.400 213.243 C 176.400 213.419,176.850 214.014,177.400 214.564 C 177.950 215.114,178.400 215.770,178.400 216.021 C 178.400 216.273,178.940 216.983,179.600 217.600 C 180.260 218.217,180.800 218.969,180.800 219.272 C 180.800 219.575,181.160 220.083,181.600 220.400 C 182.040 220.717,182.400 221.207,182.400 221.488 C 182.400 221.770,182.580 222.000,182.800 222.000 C 183.020 222.000,183.200 222.230,183.200 222.512 C 183.200 222.793,183.560 223.283,184.000 223.600 C 184.440 223.917,184.800 224.335,184.800 224.528 C 184.800 224.721,185.340 225.383,186.000 226.000 C 186.660 226.617,187.200 227.337,187.200 227.600 C 187.200 227.863,187.740 228.583,188.400 229.200 C 189.060 229.817,189.600 230.569,189.600 230.872 C 189.600 231.175,189.960 231.683,190.400 232.000 C 190.840 232.317,191.200 232.820,191.200 233.117 C 191.200 233.414,191.425 233.908,191.700 234.215 C 192.861 235.509,193.200 235.986,193.200 236.324 C 193.200 236.520,193.740 237.246,194.400 237.937 C 195.060 238.628,195.600 239.295,195.600 239.420 C 195.600 239.729,198.032 242.844,198.900 243.647 C 199.285 244.003,199.600 244.516,199.600 244.786 C 199.600 245.057,200.140 245.783,200.800 246.400 C 201.460 247.017,202.000 247.737,202.000 248.000 C 202.000 248.263,202.540 248.983,203.200 249.600 C 203.860 250.217,204.400 250.969,204.400 251.272 C 204.400 251.575,204.760 252.083,205.200 252.400 C 205.640 252.717,206.000 253.225,206.000 253.528 C 206.000 253.831,206.540 254.583,207.200 255.200 C 207.860 255.817,208.400 256.511,208.400 256.742 C 208.400 256.974,208.850 257.614,209.400 258.164 C 209.950 258.714,210.400 259.353,210.400 259.585 C 210.400 259.817,210.940 260.572,211.600 261.263 C 212.260 261.954,212.800 262.722,212.800 262.971 C 212.800 263.220,213.160 263.683,213.600 264.000 C 214.040 264.317,214.400 264.825,214.400 265.128 C 214.400 265.431,214.940 266.183,215.600 266.800 C 216.260 267.417,216.800 268.137,216.800 268.400 C 216.800 268.663,217.340 269.383,218.000 270.000 C 218.660 270.617,219.200 271.369,219.200 271.672 C 219.200 271.975,219.560 272.483,220.000 272.800 C 220.440 273.117,220.800 273.535,220.800 273.728 C 220.800 273.921,221.340 274.583,222.000 275.200 C 222.660 275.817,223.200 276.543,223.200 276.814 C 223.200 277.084,223.533 277.597,223.941 277.953 C 224.348 278.309,225.005 279.230,225.400 280.000 C 225.795 280.770,226.452 281.691,226.859 282.047 C 227.267 282.403,227.600 282.948,227.600 283.259 C 227.600 283.569,227.960 284.083,228.400 284.400 C 228.840 284.717,229.200 285.180,229.200 285.429 C 229.200 285.678,229.740 286.446,230.400 287.137 C 231.060 287.828,231.600 288.548,231.600 288.737 C 231.600 288.926,232.140 289.646,232.800 290.337 C 233.460 291.028,234.000 291.735,234.000 291.908 C 234.000 292.081,234.360 292.483,234.800 292.800 C 235.240 293.117,235.600 293.625,235.600 293.928 C 235.600 294.231,236.140 294.983,236.800 295.600 C 237.460 296.217,238.000 296.937,238.000 297.200 C 238.000 297.463,238.540 298.183,239.200 298.800 C 239.860 299.417,240.400 300.143,240.400 300.414 C 240.400 300.684,240.732 301.197,241.138 301.553 C 241.544 301.909,242.194 302.875,242.584 303.700 C 242.973 304.525,243.451 305.200,243.646 305.200 C 243.841 305.200,244.000 305.454,244.000 305.764 C 244.000 306.075,244.540 306.783,245.200 307.339 C 245.860 307.894,246.400 308.558,246.400 308.814 C 246.400 309.070,246.940 309.783,247.600 310.400 C 248.260 311.017,248.800 311.769,248.800 312.072 C 248.800 312.375,249.160 312.883,249.600 313.200 C 250.040 313.517,250.400 314.025,250.400 314.328 C 250.400 314.631,250.940 315.383,251.600 316.000 C 252.260 316.617,252.800 317.337,252.800 317.600 C 252.800 317.863,253.340 318.583,254.000 319.200 C 254.660 319.817,255.200 320.537,255.200 320.800 C 255.200 321.063,255.695 321.762,256.300 322.352 C 257.426 323.450,257.892 324.101,259.054 326.200 C 259.419 326.860,260.052 327.691,260.459 328.047 C 260.867 328.403,261.200 328.916,261.200 329.186 C 261.200 329.457,261.740 330.183,262.400 330.800 C 263.060 331.417,263.600 332.169,263.600 332.472 C 263.600 332.775,263.960 333.283,264.400 333.600 C 264.840 333.917,265.200 334.380,265.200 334.629 C 265.200 334.878,265.740 335.646,266.400 336.337 C 267.060 337.028,267.600 337.792,267.600 338.036 C 267.600 338.280,268.140 338.983,268.800 339.600 C 269.460 340.217,270.000 340.847,270.000 341.000 C 270.000 341.153,270.540 341.783,271.200 342.400 C 271.860 343.017,272.400 343.769,272.400 344.072 C 272.400 344.375,272.760 344.883,273.200 345.200 C 273.640 345.517,274.000 346.020,274.000 346.317 C 274.000 346.614,274.225 347.108,274.500 347.415 C 275.661 348.709,276.000 349.186,276.000 349.524 C 276.000 349.720,276.540 350.446,277.200 351.137 C 277.860 351.828,278.400 352.576,278.400 352.800 C 278.400 353.024,278.940 353.772,279.600 354.463 C 280.260 355.154,280.800 355.922,280.800 356.171 C 280.800 356.420,281.160 356.883,281.600 357.200 C 282.040 357.517,282.400 357.935,282.400 358.128 C 282.400 358.321,282.940 358.983,283.600 359.600 C 284.260 360.217,284.800 361.009,284.800 361.360 C 284.800 361.733,285.134 362.000,285.600 362.000 C 286.040 362.000,286.400 362.180,286.400 362.400 C 286.400 363.356,323.082 362.898,324.197 361.928 L 325.200 361.056 325.200 238.528 C 325.200 157.109,325.334 116.000,325.600 116.000 C 325.847 116.000,326.000 113.933,326.000 110.600 C 326.000 107.267,326.153 105.200,326.400 105.200 C 326.620 105.200,326.800 104.300,326.800 103.200 C 326.800 102.100,326.980 101.200,327.200 101.200 C 327.420 101.200,327.600 100.480,327.600 99.600 C 327.600 98.720,327.780 98.000,328.000 98.000 C 328.220 98.000,328.400 97.640,328.400 97.200 C 328.400 96.760,328.580 96.400,328.800 96.400 C 329.020 96.400,329.200 96.125,329.200 95.789 C 329.200 94.592,332.754 91.601,335.899 90.152 C 337.605 89.366,339.313 88.560,339.695 88.362 C 340.077 88.163,340.842 88.000,341.395 88.000 C 341.948 88.000,342.400 87.840,342.400 87.644 C 342.400 87.309,343.322 87.083,346.903 86.542 C 347.729 86.418,348.505 86.155,348.626 85.958 C 348.748 85.761,349.557 85.600,350.424 85.600 C 351.291 85.600,352.000 85.420,352.000 85.200 C 352.000 84.980,352.291 84.800,352.646 84.800 C 353.001 84.800,353.901 84.135,354.646 83.322 L 356.000 81.844 356.000 75.400 L 356.000 68.956 354.646 67.478 L 353.292 66.000 313.646 66.000 L 274.000 66.000 274.003 47.700 C 274.007 26.975,274.103 25.366,275.351 25.077 C 276.523 24.806,278.957 23.850,279.200 23.565 C 279.310 23.436,280.255 23.082,281.300 22.778 C 282.345 22.474,283.200 22.085,283.200 21.913 C 283.200 21.741,283.560 21.600,284.000 21.600 C 284.440 21.600,284.800 21.420,284.800 21.200 C 284.800 20.980,285.072 20.800,285.405 20.800 C 285.738 20.800,286.323 20.640,286.705 20.444 C 287.087 20.248,288.300 19.663,289.400 19.144 C 290.500 18.625,291.460 18.065,291.533 17.900 C 291.607 17.735,292.192 17.600,292.833 17.600 C 293.475 17.600,294.000 17.420,294.000 17.200 C 294.000 16.980,294.360 16.800,294.800 16.800 C 295.240 16.800,295.600 16.620,295.600 16.400 C 295.600 16.180,295.960 16.000,296.400 16.000 C 296.840 16.000,297.200 15.820,297.200 15.600 C 297.200 15.380,297.650 15.200,298.200 15.200 C 298.750 15.200,299.200 15.020,299.200 14.800 C 299.200 14.580,299.650 14.400,300.200 14.400 C 300.750 14.400,301.200 14.220,301.200 14.000 C 301.200 13.780,301.560 13.600,302.000 13.600 C 302.440 13.600,302.800 13.420,302.800 13.200 C 302.800 12.980,303.160 12.800,303.600 12.800 C 304.040 12.800,304.400 12.620,304.400 12.400 C 304.400 12.180,304.773 12.000,305.229 12.000 C 306.291 12.000,307.344 10.953,307.051 10.190 C 306.860 9.692,305.246 9.598,296.713 9.588 C 291.151 9.581,285.340 9.416,283.800 9.222 C 282.260 9.028,263.941 8.739,243.090 8.581 C 222.240 8.422,205.085 8.137,204.967 7.946 C 204.849 7.756,195.673 7.600,184.576 7.600 C 171.392 7.600,164.400 7.461,164.400 7.200 C 164.400 6.939,157.467 6.800,144.400 6.800 C 131.333 6.800,124.400 6.661,124.400 6.400 C 124.400 6.140,118.867 6.000,108.600 6.000 C 95.714 6.000,92.800 6.098,92.800 6.532 M177.200 20.195 C 190.269 20.389,219.257 20.936,248.000 21.531 L 261.000 21.800 260.978 37.000 C 260.966 45.360,260.727 63.180,260.446 76.600 C 260.165 90.020,259.780 109.730,259.590 120.400 C 258.410 186.719,258.066 199.072,257.400 198.892 C 257.180 198.832,256.618 198.112,256.152 197.292 C 255.686 196.471,253.031 191.869,250.252 187.065 C 247.473 182.260,245.200 178.165,245.200 177.965 C 245.200 177.764,245.065 177.599,244.900 177.597 C 244.735 177.595,244.402 177.190,244.160 176.697 C 243.331 175.010,241.800 172.200,241.600 172.000 C 241.490 171.890,241.158 171.370,240.862 170.845 C 239.964 169.250,239.125 167.792,233.050 157.263 C 229.832 151.687,227.200 146.962,227.200 146.763 C 227.200 146.563,227.065 146.399,226.900 146.397 C 226.735 146.395,226.402 145.990,226.160 145.497 C 225.331 143.810,223.800 141.000,223.600 140.800 C 223.490 140.690,223.158 140.170,222.862 139.645 C 220.974 136.292,214.937 125.793,213.406 123.200 C 212.691 121.990,211.653 120.176,211.100 119.168 C 209.450 116.169,209.011 115.411,208.800 115.200 C 208.690 115.090,208.358 114.570,208.062 114.045 C 206.512 111.291,204.777 108.249,203.645 106.300 C 203.230 105.585,201.864 103.200,200.609 101.000 C 199.354 98.800,198.190 96.820,198.022 96.600 C 197.853 96.380,197.176 95.210,196.517 94.000 C 195.857 92.790,194.948 91.150,194.497 90.355 C 194.045 89.560,193.433 88.480,193.138 87.955 C 192.842 87.430,192.510 86.910,192.399 86.800 C 192.289 86.690,191.935 86.060,191.614 85.400 C 191.292 84.740,190.728 83.750,190.361 83.200 C 189.994 82.650,189.313 81.525,188.847 80.700 C 187.868 78.966,186.719 76.953,185.650 75.100 C 185.238 74.385,183.868 72.000,182.605 69.800 C 181.342 67.600,179.970 65.215,179.555 64.500 C 179.140 63.785,178.440 62.570,178.000 61.800 C 177.560 61.030,176.840 59.770,176.400 59.000 C 174.398 55.496,174.034 54.869,172.800 52.800 C 171.313 50.306,170.330 48.597,168.887 46.000 C 168.337 45.010,166.987 42.670,165.886 40.800 C 164.786 38.930,163.551 36.815,163.143 36.100 C 162.734 35.385,162.040 34.170,161.600 33.400 C 161.160 32.630,160.440 31.370,160.000 30.600 C 159.560 29.830,158.840 28.570,158.400 27.800 C 156.611 24.669,156.069 23.733,155.213 22.297 C 153.793 19.914,154.101 19.719,159.061 19.863 C 161.448 19.933,169.610 20.082,177.200 20.195 M133.600 73.469 C 134.810 75.141,137.420 78.710,139.400 81.401 C 141.380 84.092,144.706 88.613,146.791 91.447 C 148.876 94.281,153.086 100.020,156.145 104.200 C 159.204 108.380,162.908 113.420,164.374 115.400 C 166.859 118.754,168.746 121.326,176.368 131.743 C 178.000 133.975,180.801 137.780,182.592 140.200 C 184.383 142.620,187.623 147.030,189.792 150.000 C 191.962 152.970,195.206 157.380,197.003 159.800 C 198.799 162.220,201.771 166.270,203.608 168.800 C 205.445 171.330,208.477 175.470,210.345 178.000 C 214.774 183.998,217.050 187.091,221.631 193.342 C 223.704 196.170,227.290 201.044,229.600 204.174 C 231.910 207.303,235.150 211.712,236.800 213.971 C 238.450 216.230,241.960 221.010,244.600 224.594 C 247.240 228.178,251.020 233.326,253.000 236.033 C 254.980 238.741,257.950 242.795,259.600 245.043 C 270.857 260.376,283.926 280.211,286.512 285.887 C 286.855 286.638,287.243 286.800,288.706 286.800 L 290.483 286.800 290.254 283.700 C 288.457 259.400,287.605 225.243,287.170 160.000 C 286.805 105.229,286.790 104.702,285.391 98.000 C 284.358 93.046,280.545 88.328,275.672 85.974 C 272.148 84.270,272.297 84.714,272.634 76.906 L 272.915 70.400 312.057 70.400 L 351.200 70.400 351.200 75.369 L 351.200 80.338 349.900 80.734 C 349.185 80.952,346.980 81.526,345.000 82.011 C 329.432 85.821,324.749 90.091,322.131 102.867 C 321.539 105.753,320.805 206.249,320.868 275.800 C 320.868 276.460,320.946 295.315,321.040 317.700 L 321.211 358.400 304.833 358.400 L 288.455 358.400 285.230 353.900 C 282.551 350.162,274.397 338.972,271.603 335.200 C 270.710 333.994,268.262 330.658,264.704 325.800 C 263.254 323.820,259.891 319.230,257.231 315.600 C 254.571 311.970,250.911 306.954,249.097 304.454 C 247.284 301.954,244.851 298.624,243.691 297.054 C 242.531 295.484,240.867 293.210,239.994 292.000 C 239.120 290.790,237.729 288.864,236.903 287.721 C 236.076 286.578,231.620 280.492,227.000 274.198 C 222.380 267.903,217.970 261.874,217.200 260.800 C 216.430 259.726,213.460 255.667,210.600 251.780 C 207.740 247.893,204.050 242.855,202.400 240.585 C 200.750 238.314,196.880 233.011,193.800 228.800 C 190.720 224.589,186.850 219.284,185.200 217.011 C 183.550 214.739,179.860 209.699,177.000 205.812 C 171.993 199.007,170.545 197.025,167.298 192.523 C 164.566 188.735,157.503 179.067,154.058 174.400 C 152.191 171.870,150.006 168.900,149.202 167.800 C 145.594 162.865,143.208 159.582,141.206 156.800 C 140.019 155.150,138.117 152.540,136.979 151.000 C 131.618 143.746,120.360 127.062,116.803 121.100 L 115.431 118.800 113.304 118.800 L 111.178 118.800 111.382 121.300 C 113.354 145.488,113.992 173.265,114.427 253.800 C 114.790 320.936,114.777 320.420,116.193 327.600 C 117.445 333.955,121.162 338.606,127.396 341.618 C 130.158 342.952,139.554 345.996,140.932 346.002 C 141.189 346.003,142.080 346.193,142.912 346.424 L 144.424 346.844 144.312 351.922 L 144.200 357.000 98.200 357.110 C 72.900 357.170,51.795 357.122,51.300 357.002 C 50.429 356.792,50.400 356.632,50.400 351.984 C 50.400 346.385,49.810 347.033,56.400 345.391 C 73.489 341.131,77.968 336.619,79.806 321.812 C 80.546 315.849,80.712 112.917,79.982 106.600 C 78.254 91.651,73.752 86.700,58.000 82.425 C 54.026 81.347,54.181 81.620,54.340 75.977 C 54.417 73.240,54.563 70.865,54.664 70.700 C 54.765 70.535,72.072 70.406,93.124 70.414 L 131.400 70.428 133.600 73.469 M144.522 200.333 C 145.051 201.360,146.503 204.090,147.749 206.400 C 151.193 212.787,163.712 238.142,167.201 245.800 C 168.457 248.557,170.772 253.477,173.787 259.800 C 174.941 262.220,177.302 267.170,179.033 270.800 C 182.458 277.982,192.150 297.304,194.583 301.800 C 197.932 307.989,199.164 310.191,204.092 318.800 C 204.533 319.570,205.233 320.678,205.647 321.262 C 206.061 321.846,206.400 322.443,206.400 322.590 C 206.400 322.736,206.940 323.641,207.600 324.600 C 208.260 325.559,208.800 326.454,208.800 326.589 C 208.800 326.723,209.160 327.220,209.600 327.692 C 210.040 328.164,210.400 328.787,210.400 329.075 C 210.400 329.364,210.580 329.600,210.800 329.600 C 211.020 329.600,211.200 329.800,211.200 330.044 C 211.200 330.288,212.057 331.683,213.104 333.144 C 214.151 334.605,215.545 336.610,216.203 337.600 C 217.362 339.344,219.947 342.978,221.729 345.368 C 223.567 347.832,229.439 355.081,230.983 356.791 C 236.765 363.194,242.411 368.919,246.657 372.684 C 249.090 374.842,250.652 376.126,255.600 380.035 C 257.550 381.576,256.919 381.592,197.200 381.495 L 139.000 381.400 139.000 371.200 L 139.000 361.000 142.221 360.800 C 147.819 360.452,148.593 359.210,148.314 351.013 C 148.093 344.546,147.746 343.884,144.200 343.171 C 143.320 342.994,141.970 342.696,141.200 342.508 L 139.800 342.167 139.832 327.184 C 139.849 318.943,140.083 301.580,140.352 288.600 C 140.621 275.620,141.002 255.910,141.198 244.800 C 142.147 190.924,141.834 195.111,144.522 200.333 " stroke="none" fill="#040404" fill-rule="evenodd"></path><path id="path3" d="M155.900 20.282 C 156.395 20.378,157.205 20.378,157.700 20.282 C 158.195 20.187,157.790 20.109,156.800 20.109 C 155.810 20.109,155.405 20.187,155.900 20.282 M176.700 20.695 C 177.855 20.776,179.745 20.776,180.900 20.695 C 182.055 20.614,181.110 20.548,178.800 20.548 C 176.490 20.548,175.545 20.614,176.700 20.695 M190.300 21.097 C 191.895 21.173,194.505 21.173,196.100 21.097 C 197.695 21.021,196.390 20.959,193.200 20.959 C 190.010 20.959,188.705 21.021,190.300 21.097 M217.315 21.496 C 218.588 21.576,220.568 21.575,221.715 21.494 C 222.862 21.414,221.820 21.349,219.400 21.350 C 216.980 21.351,216.042 21.416,217.315 21.496 M231.320 21.898 C 233.255 21.972,236.315 21.971,238.120 21.897 C 239.924 21.823,238.340 21.763,234.600 21.764 C 230.860 21.764,229.384 21.825,231.320 21.898 M258.105 22.287 C 258.714 22.379,259.614 22.377,260.105 22.282 C 260.597 22.187,260.100 22.111,259.000 22.114 C 257.900 22.117,257.497 22.195,258.105 22.287 M260.551 44.800 C 260.551 47.330,260.616 48.365,260.696 47.100 C 260.775 45.835,260.775 43.765,260.696 42.500 C 260.616 41.235,260.551 42.270,260.551 44.800 M260.165 60.800 C 260.165 64.650,260.225 66.225,260.298 64.300 C 260.371 62.375,260.371 59.225,260.298 57.300 C 260.225 55.375,260.165 56.950,260.165 60.800 M259.746 87.000 C 259.747 89.200,259.814 90.049,259.895 88.887 C 259.976 87.724,259.976 85.924,259.893 84.887 C 259.811 83.849,259.745 84.800,259.746 87.000 M259.366 103.200 C 259.366 107.270,259.425 108.935,259.498 106.900 C 259.571 104.865,259.571 101.535,259.498 99.500 C 259.425 97.465,259.366 99.130,259.366 103.200 M258.946 128.600 C 258.947 130.800,259.014 131.649,259.095 130.487 C 259.176 129.324,259.176 127.524,259.093 126.487 C 259.011 125.449,258.945 126.400,258.946 128.600 M258.567 146.600 C 258.567 150.780,258.626 152.436,258.698 150.279 C 258.771 148.123,258.770 144.703,258.698 142.679 C 258.625 140.656,258.566 142.420,258.567 146.600 M258.142 170.200 C 258.141 172.180,258.208 173.040,258.292 172.112 C 258.376 171.184,258.377 169.564,258.295 168.512 C 258.212 167.460,258.143 168.220,258.142 170.200 M257.768 189.400 C 257.768 193.800,257.826 195.655,257.898 193.521 C 257.970 191.388,257.970 187.788,257.899 185.521 C 257.827 183.255,257.768 185.000,257.768 189.400 M142.170 217.200 C 142.170 221.930,142.228 223.865,142.298 221.500 C 142.369 219.135,142.369 215.265,142.298 212.900 C 142.228 210.535,142.170 212.470,142.170 217.200 M141.748 236.400 C 141.748 238.710,141.814 239.655,141.895 238.500 C 141.976 237.345,141.976 235.455,141.895 234.300 C 141.814 233.145,141.748 234.090,141.748 236.400 M141.367 260.400 C 141.367 264.690,141.426 266.445,141.498 264.300 C 141.570 262.155,141.570 258.645,141.498 256.500 C 141.426 254.355,141.367 256.110,141.367 260.400 M140.946 278.600 C 140.947 280.800,141.014 281.649,141.095 280.487 C 141.176 279.324,141.176 277.524,141.093 276.487 C 141.011 275.449,140.945 276.400,140.946 278.600 M140.567 304.200 C 140.567 308.380,140.626 310.036,140.698 307.879 C 140.771 305.723,140.770 302.303,140.698 300.279 C 140.625 298.256,140.566 300.020,140.567 304.200 M140.146 320.600 C 140.147 322.800,140.214 323.649,140.295 322.487 C 140.376 321.324,140.376 319.524,140.293 318.487 C 140.211 317.449,140.145 318.400,140.146 320.600 M148.557 352.000 C 148.557 354.970,148.620 356.185,148.697 354.700 C 148.774 353.215,148.774 350.785,148.697 349.300 C 148.620 347.815,148.557 349.030,148.557 352.000 M141.300 361.091 C 142.125 361.178,143.475 361.178,144.300 361.091 C 145.125 361.005,144.450 360.934,142.800 360.934 C 141.150 360.934,140.475 361.005,141.300 361.091 M139.340 364.400 C 139.340 366.270,139.409 367.035,139.493 366.100 C 139.577 365.165,139.577 363.635,139.493 362.700 C 139.409 361.765,139.340 362.530,139.340 364.400 M243.600 370.525 C 243.600 370.594,244.185 371.179,244.900 371.825 L 246.200 373.000 245.025 371.700 C 243.930 370.488,243.600 370.216,243.600 370.525 M254.748 380.099 C 255.269 380.763,252.418 380.802,197.148 380.900 L 139.000 381.003 197.300 381.101 C 230.552 381.158,255.600 381.049,255.600 380.849 C 255.600 380.656,255.285 380.251,254.900 379.949 C 254.266 379.452,254.252 379.466,254.748 380.099 " stroke="none" fill="#6ba29c" fill-rule="evenodd"></path><path id="path4" d="M168.515 20.696 C 169.788 20.776,171.768 20.775,172.915 20.694 C 174.062 20.614,173.020 20.549,170.600 20.550 C 168.180 20.551,167.242 20.616,168.515 20.696 M179.100 21.097 C 180.695 21.173,183.305 21.173,184.900 21.097 C 186.495 21.021,185.190 20.959,182.000 20.959 C 178.810 20.959,177.505 21.021,179.100 21.097 M209.100 21.495 C 210.255 21.576,212.145 21.576,213.300 21.495 C 214.455 21.414,213.510 21.348,211.200 21.348 C 208.890 21.348,207.945 21.414,209.100 21.495 M219.500 21.897 C 221.095 21.973,223.705 21.973,225.300 21.897 C 226.895 21.821,225.590 21.759,222.400 21.759 C 219.210 21.759,217.905 21.821,219.500 21.897 M251.100 22.295 C 252.255 22.376,254.145 22.376,255.300 22.295 C 256.455 22.214,255.510 22.148,253.200 22.148 C 250.890 22.148,249.945 22.214,251.100 22.295 M258.300 22.682 C 258.795 22.778,259.605 22.778,260.100 22.682 C 260.595 22.587,260.190 22.509,259.200 22.509 C 258.210 22.509,257.805 22.587,258.300 22.682 M260.548 36.400 C 260.548 38.710,260.614 39.655,260.695 38.500 C 260.776 37.345,260.776 35.455,260.695 34.300 C 260.614 33.145,260.548 34.090,260.548 36.400 M260.163 47.600 C 260.163 51.230,260.223 52.715,260.298 50.900 C 260.372 49.085,260.372 46.115,260.298 44.300 C 260.223 42.485,260.163 43.970,260.163 47.600 M259.499 81.200 C 259.336 84.390,259.230 89.070,259.263 91.600 C 259.306 94.844,259.424 93.489,259.665 87.000 C 259.852 81.940,259.958 77.260,259.900 76.600 C 259.842 75.940,259.662 78.010,259.499 81.200 M258.695 122.800 C 258.534 125.990,258.430 131.030,258.464 134.000 C 258.511 138.139,258.604 137.017,258.863 129.200 C 259.048 123.590,259.152 118.550,259.094 118.000 C 259.035 117.450,258.856 119.610,258.695 122.800 M257.888 164.563 C 257.730 167.623,257.628 172.753,257.662 175.963 C 257.713 180.697,257.789 179.796,258.063 171.200 C 258.436 159.521,258.339 155.856,257.888 164.563 M142.479 202.451 C 142.558 206.164,142.560 206.171,142.699 203.212 C 142.776 201.568,143.018 200.112,143.238 199.976 C 143.479 199.827,143.393 199.526,143.019 199.216 C 142.467 198.758,142.409 199.108,142.479 202.451 M142.089 231.037 C 142.040 234.137,141.921 239.177,141.825 242.237 L 141.649 247.800 142.024 242.600 C 142.230 239.740,142.349 234.700,142.288 231.400 L 142.178 225.400 142.089 231.037 M168.428 250.200 C 168.428 250.420,168.686 251.050,169.000 251.600 C 169.314 252.150,169.572 252.420,169.572 252.200 C 169.572 251.980,169.314 251.350,169.000 250.800 C 168.686 250.250,168.428 249.980,168.428 250.200 M141.287 273.200 C 141.237 276.170,141.119 281.210,141.024 284.400 L 140.850 290.200 141.228 284.600 C 141.436 281.520,141.554 276.480,141.491 273.400 L 141.376 267.800 141.287 273.200 M140.290 321.557 C 140.120 327.143,140.055 331.788,140.146 331.879 C 140.391 332.125,140.888 317.014,140.733 314.000 C 140.660 312.570,140.461 315.971,140.290 321.557 M201.215 315.400 C 201.217 315.620,201.586 316.250,202.036 316.800 C 202.579 317.464,202.715 317.531,202.440 317.000 C 201.766 315.695,201.212 314.972,201.215 315.400 M214.400 336.400 C 214.870 337.060,215.344 337.600,215.454 337.600 C 215.564 337.600,215.270 337.060,214.800 336.400 C 214.330 335.740,213.856 335.200,213.746 335.200 C 213.636 335.200,213.930 335.740,214.400 336.400 M230.000 356.658 C 230.000 356.874,230.585 357.579,231.300 358.225 L 232.600 359.400 231.400 358.002 C 230.740 357.233,230.155 356.528,230.100 356.435 C 230.045 356.343,230.000 356.443,230.000 356.658 M147.563 359.845 C 147.269 360.199,146.662 360.638,146.214 360.819 C 145.640 361.052,145.586 361.157,146.030 361.175 C 146.377 361.189,147.083 360.750,147.600 360.200 C 148.117 359.650,148.440 359.200,148.319 359.200 C 148.197 359.200,147.857 359.490,147.563 359.845 M236.000 363.400 C 237.417 364.830,238.667 366.000,238.777 366.000 C 238.887 366.000,237.817 364.830,236.400 363.400 C 234.983 361.970,233.733 360.800,233.623 360.800 C 233.513 360.800,234.583 361.970,236.000 363.400 M139.734 364.000 C 139.734 365.650,139.805 366.325,139.891 365.500 C 139.978 364.675,139.978 363.325,139.891 362.500 C 139.805 361.675,139.734 362.350,139.734 364.000 M139.348 371.600 C 139.348 373.910,139.414 374.855,139.495 373.700 C 139.576 372.545,139.576 370.655,139.495 369.500 C 139.414 368.345,139.348 369.290,139.348 371.600 M242.200 369.600 C 243.059 370.480,243.852 371.200,243.962 371.200 C 244.072 371.200,243.459 370.480,242.600 369.600 C 241.741 368.720,240.948 368.000,240.838 368.000 C 240.728 368.000,241.341 368.720,242.200 369.600 M246.000 372.925 C 246.000 372.994,246.585 373.579,247.300 374.225 L 248.600 375.400 247.425 374.100 C 246.330 372.888,246.000 372.616,246.000 372.925 " stroke="none" fill="#6caca4" fill-rule="evenodd"></path></g></svg>