<svg width="112" height="113" viewBox="0 0 112 113" fill="none" xmlns="http://www.w3.org/2000/svg">
<path d="M68.4445 25.1111H43.5556V37.6667H49.7778V75.3333H43.5556V87.8889H68.4445V75.3333H62.2222V37.6667H68.4445V25.1111ZM12.4444 0H99.5556C102.856 0 106.021 1.32281 108.355 3.67744C110.689 6.03206 112 9.22562 112 12.5556V100.444C112 103.774 110.689 106.968 108.355 109.323C106.021 111.677 102.856 113 99.5556 113H12.4444C9.14397 113 5.97868 111.677 3.64489 109.323C1.31111 106.968 0 103.774 0 100.444V12.5556C0 9.22562 1.31111 6.03206 3.64489 3.67744C5.97868 1.32281 9.14397 0 12.4444 0Z" fill="#827062"/>
</svg>
