<svg width="10000" height="10000" viewBox="0 0 10000 10000" fill="none" xmlns="http://www.w3.org/2000/svg">
<g clip-path="url(#clip0_2105_444)">
<rect width="10000" height="10000" fill="white"/>
<path d="M-3763.99 5559.12L-1034.82 1652.99C-2.61057 175.757 1447.41 -959.456 3129.19 -1606.99L7578.13 -3320.13" stroke="#A0A3BD" stroke-width="7" stroke-miterlimit="10" stroke-linecap="round"/>
<path d="M-3570.09 5806.79L-840.917 1900.66C191.288 423.429 1641.31 -711.785 3323.08 -1359.31L7772.02 -3072.45" stroke="#A0A3BD" stroke-width="7" stroke-miterlimit="10" stroke-linecap="round"/>
<path d="M-3376.19 6054.46L-647.011 2148.33C385.194 671.101 1835.21 -464.113 3516.99 -1111.64L7965.93 -2824.78" stroke="#A0A3BD" stroke-width="7" stroke-miterlimit="10" stroke-linecap="round"/>
<path d="M-3182.29 6302.13L-453.112 2396.01C579.093 918.773 2029.11 -216.441 3710.89 -863.97L8159.83 -2577.11" stroke="#A0A3BD" stroke-width="7" stroke-miterlimit="10" stroke-linecap="round"/>
<path d="M-2999.16 6536.05L-269.98 2629.92C762.225 1152.69 2212.25 17.4733 3894.02 -630.056L8342.75 -2343.47" stroke="#A0A3BD" stroke-width="7" stroke-miterlimit="10" stroke-linecap="round"/>
<path d="M-2805.26 6783.72L-76.0812 2877.6C956.124 1400.36 2406.14 265.149 4087.92 -382.38L8536.64 -2095.8" stroke="#A0A3BD" stroke-width="7" stroke-miterlimit="10" stroke-linecap="round"/>
<path d="M-2611.35 7031.4L117.825 3125.27C1150.03 1648.04 2600.05 512.825 4281.83 -134.704L8730.55 -1848.12" stroke="#A0A3BD" stroke-width="7" stroke-miterlimit="10" stroke-linecap="round"/>
<path d="M-2417.45 7279.07L311.723 3372.94C1343.93 1895.71 2793.95 760.497 4475.73 112.968L8924.45 -1600.45" stroke="#A0A3BD" stroke-width="7" stroke-miterlimit="10" stroke-linecap="round"/>
<path d="M-2234.32 7512.98L494.856 3606.86C1527.06 2129.62 2977.08 994.411 4658.86 346.882L9107.58 -1366.53" stroke="#A0A3BD" stroke-width="7" stroke-miterlimit="10" stroke-linecap="round"/>
<path d="M-2040.42 7760.66L688.755 3854.53C1720.96 2377.3 3170.98 1242.08 4852.76 594.554L9301.48 -1118.86" stroke="#A0A3BD" stroke-width="7" stroke-miterlimit="10" stroke-linecap="round"/>
<path d="M-1846.52 8008.33L882.661 4102.2C1914.87 2624.97 3364.89 1489.75 5046.66 842.226L9495.39 -871.19" stroke="#A0A3BD" stroke-width="7" stroke-miterlimit="10" stroke-linecap="round"/>
<path d="M-1652.62 8256L1076.56 4349.88C2108.76 2872.64 3558.78 1737.43 5240.56 1089.9L9689.29 -623.514" stroke="#A0A3BD" stroke-width="7" stroke-miterlimit="10" stroke-linecap="round"/>
<path d="M-1469.48 8489.92L1259.69 4583.79C2291.9 3106.56 3741.92 1971.34 5423.69 1323.82L9872.42 -389.6" stroke="#A0A3BD" stroke-width="7" stroke-miterlimit="10" stroke-linecap="round"/>
<path d="M-1275.59 8737.59L1453.59 4831.46C2485.8 3354.23 3935.82 2219.02 5617.59 1571.49L10066.3 -141.929" stroke="#A0A3BD" stroke-width="7" stroke-miterlimit="10" stroke-linecap="round"/>
<path d="M-1081.68 8985.26L1647.5 5079.14C2679.7 3601.91 4129.72 2466.69 5811.5 1819.16L10260.2 105.747" stroke="#A0A3BD" stroke-width="7" stroke-miterlimit="10" stroke-linecap="round"/>
<path d="M-887.781 9232.94L1841.4 5326.81C2873.6 3849.58 4323.62 2714.36 6005.4 2066.84L10454.3 353.694" stroke="#A0A3BD" stroke-width="7" stroke-miterlimit="10" stroke-linecap="round"/>
<path d="M-693.875 9480.61L2035.3 5574.48C3067.51 4097.25 4517.53 2962.04 6199.3 2314.51L10648.2 601.366" stroke="#A0A3BD" stroke-width="7" stroke-miterlimit="10" stroke-linecap="round"/>
<path d="M-499.977 9728.28L2229.2 5822.15C3261.41 4344.92 4711.43 3209.71 6393.2 2562.18L10842.1 849.038" stroke="#A0A3BD" stroke-width="7" stroke-miterlimit="10" stroke-linecap="round"/>
<path d="M-306.071 9975.96L2423.11 6069.83C3455.31 4592.6 4905.33 3457.38 6587.11 2809.85L11036 1096.71" stroke="#A0A3BD" stroke-width="7" stroke-miterlimit="10" stroke-linecap="round"/>
<path d="M-112.172 10223.6L2617 6317.51C3649.21 4840.27 5099.23 3705.06 6781.01 3057.53L11229.9 1344.39" stroke="#A0A3BD" stroke-width="7" stroke-miterlimit="10" stroke-linecap="round"/>
<path d="M70.9607 10457.5L2800.14 6551.42C3832.34 5074.18 5282.36 3938.97 6964.14 3291.44L11413.1 1578.3" stroke="#A0A3BD" stroke-width="7" stroke-miterlimit="10" stroke-linecap="round"/>
<path d="M264.859 10705.2L2994.04 6799.09C4026.24 5321.86 5476.26 4186.65 7158.04 3539.12L11607 1825.98" stroke="#A0A3BD" stroke-width="7" stroke-miterlimit="10" stroke-linecap="round"/>
<path d="M458.765 10952.9L3187.94 7046.76C4220.15 5569.53 5670.17 4434.32 7351.94 3786.79L11800.9 2073.65" stroke="#A0A3BD" stroke-width="7" stroke-miterlimit="10" stroke-linecap="round"/>
<path d="M652.664 11200.6L3381.84 7294.44C4414.05 5817.2 5864.07 4681.99 7545.84 4034.46L11994.8 2321.32" stroke="#A0A3BD" stroke-width="7" stroke-miterlimit="10" stroke-linecap="round"/>
<path d="M835.797 11434.5L3564.97 7528.35C4597.18 6051.12 6047.2 4915.9 7728.98 4268.37L12177.9 2555.23" stroke="#A0A3BD" stroke-width="7" stroke-miterlimit="10" stroke-linecap="round"/>
<path d="M1029.7 11682.2L3758.87 7776.03C4791.08 6298.79 6241.1 5163.58 7922.87 4516.05L12371.8 2802.91" stroke="#A0A3BD" stroke-width="7" stroke-miterlimit="10" stroke-linecap="round"/>
<path d="M1223.6 11929.8L3952.78 8023.7C4984.98 6546.46 6435 5411.25 8116.78 4763.72L12565.7 3050.58" stroke="#A0A3BD" stroke-width="7" stroke-miterlimit="10" stroke-linecap="round"/>
<path d="M1417.5 12177.5L4146.68 8271.37C5178.88 6794.14 6628.9 5658.93 8310.68 5011.4L12759.6 3298.26" stroke="#A0A3BD" stroke-width="7" stroke-miterlimit="10" stroke-linecap="round"/>
<path d="M1600.63 12411.4L4329.81 8505.28C5362.01 7028.05 6812.03 5892.84 8493.81 5245.31L12942.8 3532.17" stroke="#A0A3BD" stroke-width="7" stroke-miterlimit="10" stroke-linecap="round"/>
<path d="M1794.53 12659.1L4523.71 8752.96C5555.91 7275.73 7005.93 6140.51 8687.71 5492.98L13136.6 3779.84" stroke="#A0A3BD" stroke-width="7" stroke-miterlimit="10" stroke-linecap="round"/>
<path d="M1988.44 12906.8L4717.61 9000.63C5749.82 7523.4 7199.84 6388.18 8881.62 5740.66L13330.6 4027.51" stroke="#A0A3BD" stroke-width="7" stroke-miterlimit="10" stroke-linecap="round"/>
<path d="M2182.34 13154.4L4911.51 9248.31C5943.72 7771.07 7393.74 6635.86 9075.51 5988.33L13524.5 4275.19" stroke="#A0A3BD" stroke-width="7" stroke-miterlimit="10" stroke-linecap="round"/>
<path d="M2330.16 13371.6L5059.34 9465.47C6091.55 7988.24 7541.57 6853.03 9223.34 6205.5L13672.3 4492.36" stroke="#A0A3BD" stroke-width="7" stroke-miterlimit="10" stroke-linecap="round"/>
<path d="M2524.06 13619.3L5253.24 9713.15C6285.44 8235.91 7735.46 7100.7 9417.24 6453.17L13866.2 4740.03" stroke="#A0A3BD" stroke-width="7" stroke-miterlimit="10" stroke-linecap="round"/>
<path d="M2717.97 13866.9L5447.15 9960.82C6479.35 8483.59 7929.37 7348.37 9611.15 6700.84L14060.1 4987.7" stroke="#A0A3BD" stroke-width="7" stroke-miterlimit="10" stroke-linecap="round"/>
<path d="M2911.87 14114.6L5641.04 10208.5C6673.25 8731.26 8123.27 7596.05 9805.05 6948.52L14254 5235.38" stroke="#A0A3BD" stroke-width="7" stroke-miterlimit="10" stroke-linecap="round"/>
<path d="M3095 14348.5L5824.18 10442.4C6856.38 8965.17 8306.4 7829.96 9988.18 7182.43L14437.1 5469.29" stroke="#A0A3BD" stroke-width="7" stroke-miterlimit="10" stroke-linecap="round"/>
<path d="M3288.9 14596.2L6018.08 10690.1C7050.28 9212.85 8500.3 8077.64 10182.1 7430.11L14631 5716.97" stroke="#A0A3BD" stroke-width="7" stroke-miterlimit="10" stroke-linecap="round"/>
<path d="M3482.8 14843.9L6211.98 10937.8C7244.19 9460.52 8694.21 8325.31 10376 7677.78L14824.9 5964.64" stroke="#A0A3BD" stroke-width="7" stroke-miterlimit="10" stroke-linecap="round"/>
<path d="M3676.7 15091.6L6405.88 11185.4C7438.08 9708.19 8888.1 8572.98 10569.9 7925.45L15018.8 6212.31" stroke="#A0A3BD" stroke-width="7" stroke-miterlimit="10" stroke-linecap="round"/>
<path d="M3859.84 15325.5L6589.01 11419.3C7621.22 9942.11 9071.24 8806.9 10753 8159.37L15202 6446.23" stroke="#A0A3BD" stroke-width="7" stroke-miterlimit="10" stroke-linecap="round"/>
<path d="M4053.73 15573.1L6782.91 11667C7815.12 10189.8 9265.14 9054.57 10946.9 8407.04L15395.9 6693.9" stroke="#A0A3BD" stroke-width="7" stroke-miterlimit="10" stroke-linecap="round"/>
<path d="M4247.64 15820.8L6976.82 11914.7C8009.02 10437.5 9459.04 9302.24 11140.8 8654.71L15589.8 6941.57" stroke="#A0A3BD" stroke-width="7" stroke-miterlimit="10" stroke-linecap="round"/>
<path d="M4441.54 16068.5L7170.72 12162.4C8202.92 10685.1 9652.94 9549.91 11334.7 8902.39L15783.7 7189.25" stroke="#A0A3BD" stroke-width="7" stroke-miterlimit="10" stroke-linecap="round"/>
</g>
<defs>
<clipPath id="clip0_2105_444">
<rect width="10000" height="10000" fill="white"/>
</clipPath>
</defs>
</svg>
